SplineFontDB: 3.0
FontName: Untitled1
FullName: Untitled1
FamilyName: Untitled1
Weight: Regular
Copyright: Copyright (c) 2018, Yuansheng Zhao
UComments: "2018-5-1: Created with FontForge (http://fontforge.org)"
Version: 001.000
ItalicAngle: 0
UnderlinePosition: -100
UnderlineWidth: 50
Ascent: 800
Descent: 200
InvalidEm: 0
LayerCount: 2
Layer: 0 0 "Back" 1
Layer: 1 0 "Fore" 0
XUID: [1021 70 263418660 32031]
OS2Version: 0
OS2_WeightWidthSlopeOnly: 0
OS2_UseTypoMetrics: 1
CreationTime: 1525154818
ModificationTime: 1525259338
OS2TypoAscent: 0
OS2TypoAOffset: 1
OS2TypoDescent: 0
OS2TypoDOffset: 1
OS2TypoLinegap: 0
OS2WinAscent: 0
OS2WinAOffset: 1
OS2WinDescent: 0
OS2WinDOffset: 1
HheadAscent: 0
HheadAOffset: 1
HheadDescent: 0
HheadDOffset: 1
OS2Vendor: 'PfEd'
Lookup: 1 0 0 "EBGaramond-Regular-'aalt' Access All Alternates lookup 0" { "EBGaramond-Regular-'aalt' Access All Alternates lookup 0 subtable"  } ['aalt' ('DFLT' <'dflt' > 'cyrl' <'MKD ' 'SRB ' 'dflt' > 'latn' <'AZE ' 'CAT ' 'CRT ' 'DEU ' 'LAT ' 'TRK ' 'dflt' > ) ]
Lookup: 3 0 0 "EBGaramond-Regular-'aalt' Access All Alternates lookup 1" { "EBGaramond-Regular-'aalt' Access All Alternates lookup 1 subtable"  } ['aalt' ('DFLT' <'dflt' > 'cyrl' <'MKD ' 'SRB ' 'dflt' > 'latn' <'AZE ' 'CAT ' 'CRT ' 'DEU ' 'LAT ' 'TRK ' 'dflt' > ) ]
Lookup: 1 0 0 "EBGaramond-Regular-'locl' Localized Forms in Cyrillic lookup 2" { "EBGaramond-Regular-'locl' Localized Forms in Cyrillic lookup 2 subtable"  } ['locl' ('cyrl' <'MKD ' > ) ]
Lookup: 1 0 0 "EBGaramond-Regular-'locl' Localized Forms in Cyrillic lookup 3" { "EBGaramond-Regular-'locl' Localized Forms in Cyrillic lookup 3 subtable"  } ['locl' ('cyrl' <'SRB ' > ) ]
Lookup: 1 0 0 "EBGaramond-Regular-'locl' Localized Forms in Latin lookup 4" { "EBGaramond-Regular-'locl' Localized Forms in Latin lookup 4 subtable"  } ['locl' ('latn' <'AZE ' > ) ]

StartChar: plus
Encoding: 43 43 0
Width: 590
Flags: W
HStem: 222 50<53.1042 270 330 545.949>
VStem: 270 60<-4.10672 222 272 475.117>
LayerCount: 2
Fore
SplineSet
282 -8 m 0
 276 -8 270 -1 270 6 c 2
 270 217 l 2
 270 220 269 222 266 222 c 2
 64 222 l 2
 57 222 50 228 50 234 c 0
 50 243 56 272 74 272 c 6
 263 272 l 2
 269 272 270 274 270 280 c 2
 270 451 l 2
 270 473 310 482 316 482 c 0
 323 482 330 476 330 469 c 2
 330 278 l 2
 330 273 330 272 332 272 c 2
 537 272 l 2
 544 272 550 268 550 262 c 0
 550 245 538 222 519 222 c 2
 334 222 l 2
 331 222 330 221 330 218 c 2
 330 16 l 2
 330 -5 291 -8 282 -8 c 0
EndSplineSet
Substitution2: "EBGaramond-Regular-'smcp' Lowercase to Small Capitals lookup 22 subtable" plus.sc
Substitution2: "EBGaramond-Regular-'c2sc' Capitals to Small Capitals lookup 21 subtable" plus.sc
Substitution2: "EBGaramond-Regular-'ordn' Ordinals lookup 15 subtable" plus.ordn
Substitution2: "EBGaramond-Regular-'sups' Superscript lookup 11 subtable" plus.sups
Substitution2: "EBGaramond-Regular-'sinf' Scientific Inferiors lookup 10 subtable" plus.sinf
Substitution2: "EBGaramond-Regular-'subs' Subscript lookup 9 subtable" plus.subs
AlternateSubs2: "EBGaramond-Regular-'aalt' Access All Alternates lookup 1 subtable" plus.subs plus.sinf plus.sups plus.ordn plus.sc
EndChar

StartChar: comma
Encoding: 44 44 1
Width: 230
Flags: W
HStem: -147 23<20.0329 67.1406> 29 88<52.4428 122.388>
VStem: 130 52<-60.0924 49.1868>
LayerCount: 2
Fore
SplineSet
38 -147 m 0
 26 -147 20 -142 20 -136 c 0
 20 -131 25 -126 34 -124 c 0
 77 -115 130 -85 130 -15 c 0
 130 1 113 27 91 29 c 0
 62 32 44 49 44 71 c 0
 44 98 70 117 99 117 c 0
 147 117 182 76 182 20 c 0
 182 -81 89 -147 38 -147 c 0
EndSplineSet
Substitution2: "EBGaramond-Regular-'smcp' Lowercase to Small Capitals lookup 22 subtable" comma.sc
Substitution2: "EBGaramond-Regular-'c2sc' Capitals to Small Capitals lookup 21 subtable" comma.sc
Substitution2: "EBGaramond-Regular-'ordn' Ordinals lookup 15 subtable" comma.ordn
Substitution2: "EBGaramond-Regular-'sups' Superscript lookup 11 subtable" comma.sups
Substitution2: "EBGaramond-Regular-'sinf' Scientific Inferiors lookup 10 subtable" comma.sinf
Substitution2: "EBGaramond-Regular-'subs' Subscript lookup 9 subtable" comma.subs
AlternateSubs2: "EBGaramond-Regular-'aalt' Access All Alternates lookup 1 subtable" comma.subs comma.sinf comma.sups comma.ordn comma.sc
EndChar

StartChar: hyphen
Encoding: 45 45 2
Width: 274
Flags: W
HStem: 170 85
VStem: 29 216<195.001 230.422>
LayerCount: 2
Fore
SplineSet
35 170 m 0
 30 170 29 172 29 176 c 0
 29 198 35 229 45 230 c 0
 109 239 173 248 237 255 c 0
 241 255 245 253 245 249 c 0
 245 224 240 197 224 195 c 0
 164 186 103 176 35 170 c 0
EndSplineSet
Substitution2: "EBGaramond-Regular-'smcp' Lowercase to Small Capitals lookup 22 subtable" hyphen.sc
Substitution2: "EBGaramond-Regular-'c2sc' Capitals to Small Capitals lookup 21 subtable" hyphen.sc
Substitution2: "EBGaramond-Regular-'ordn' Ordinals lookup 15 subtable" hyphen.ordn
Substitution2: "EBGaramond-Regular-'sups' Superscript lookup 11 subtable" hyphen.sups
Substitution2: "EBGaramond-Regular-'sinf' Scientific Inferiors lookup 10 subtable" hyphen.sinf
Substitution2: "EBGaramond-Regular-'subs' Subscript lookup 9 subtable" hyphen.subs
AlternateSubs2: "EBGaramond-Regular-'aalt' Access All Alternates lookup 1 subtable" hyphen.subs hyphen.sinf hyphen.sups hyphen.ordn hyphen.sc
EndChar

StartChar: period
Encoding: 46 46 3
Width: 230
Flags: W
HStem: -14 110<71.8467 158.153>
VStem: 60 110<-2.15331 84.1533>
LayerCount: 2
Fore
SplineSet
115 -14 m 0
 85 -14 60 11 60 41 c 0
 60 71 85 96 115 96 c 0
 145 96 170 71 170 41 c 0
 170 11 145 -14 115 -14 c 0
EndSplineSet
Substitution2: "EBGaramond-Regular-'smcp' Lowercase to Small Capitals lookup 22 subtable" period.sc
Substitution2: "EBGaramond-Regular-'c2sc' Capitals to Small Capitals lookup 21 subtable" period.sc
Substitution2: "EBGaramond-Regular-'ordn' Ordinals lookup 15 subtable" period.ordn
Substitution2: "EBGaramond-Regular-'sups' Superscript lookup 11 subtable" period.sups
Substitution2: "EBGaramond-Regular-'sinf' Scientific Inferiors lookup 10 subtable" period.sinf
Substitution2: "EBGaramond-Regular-'subs' Subscript lookup 9 subtable" period.subs
AlternateSubs2: "EBGaramond-Regular-'aalt' Access All Alternates lookup 1 subtable" period.subs period.sinf period.sups period.ordn period.sc
EndChar

StartChar: less
Encoding: 60 60 4
Width: 560
Flags: HW
HStem: 408 61<475 496.458>
LayerCount: 2
Fore
SplineSet
487 -2 m 2
 94 195 l 2
 77 203 53 216 53 222 c 0
 53 231 66 258 86 268 c 2
 489 466 l 2
 492 468 496 469 497 469 c 0
 503 469 506 465 506 459 c 0
 506 447 495 418 475 408 c 2
 132 234 l 2
 129 233 130 230 133 229 c 2
 483 55 l 2
 502 46 507 16 507 7 c 0
 507 -6 494 -5 487 -2 c 2
EndSplineSet
Substitution2: "EBGaramond-Regular-'ss04' Style Set 4 lookup 33 subtable" bullet.03
Substitution2: "EBGaramond-Regular-'ss02' Style Set 2 lookup 30 subtable" bullet.02
Substitution2: "EBGaramond-Regular-'smcp' Lowercase to Small Capitals lookup 22 subtable" less.sc
Substitution2: "EBGaramond-Regular-'c2sc' Capitals to Small Capitals lookup 21 subtable" less.sc
Substitution2: "EBGaramond-Regular-'ordn' Ordinals lookup 15 subtable" less.ordn
Substitution2: "EBGaramond-Regular-'sups' Superscript lookup 11 subtable" less.sups
Substitution2: "EBGaramond-Regular-'sinf' Scientific Inferiors lookup 10 subtable" less.sinf
Substitution2: "EBGaramond-Regular-'subs' Subscript lookup 9 subtable" less.subs
AlternateSubs2: "EBGaramond-Regular-'aalt' Access All Alternates lookup 1 subtable" less.subs less.sinf less.sups less.ordn less.sc
EndChar

StartChar: equal
Encoding: 61 61 5
Width: 566
Flags: W
HStem: 143 50<53.1042 511.757> 314 50<53.1042 510.543>
LayerCount: 2
Fore
SplineSet
64 314 m 2
 57 314 50 320 50 326 c 0
 50 335 56 364 74 364 c 2
 502 364 l 2
 508 364 516 359 516 353 c 0
 516 339 500 314 484 314 c 2
 64 314 l 2
64 143 m 2
 57 143 50 149 50 155 c 0
 50 164 56 193 74 193 c 6
 502 193 l 2
 508 193 516 188 516 182 c 0
 516 164 500 143 484 143 c 2
 64 143 l 2
EndSplineSet
Substitution2: "EBGaramond-Regular-'smcp' Lowercase to Small Capitals lookup 22 subtable" equal.sc
Substitution2: "EBGaramond-Regular-'c2sc' Capitals to Small Capitals lookup 21 subtable" equal.sc
Substitution2: "EBGaramond-Regular-'ordn' Ordinals lookup 15 subtable" equal.ordn
Substitution2: "EBGaramond-Regular-'sups' Superscript lookup 11 subtable" equal.sups
Substitution2: "EBGaramond-Regular-'sinf' Scientific Inferiors lookup 10 subtable" equal.sinf
Substitution2: "EBGaramond-Regular-'subs' Subscript lookup 9 subtable" equal.subs
AlternateSubs2: "EBGaramond-Regular-'aalt' Access All Alternates lookup 1 subtable" equal.subs equal.sinf equal.sups equal.ordn equal.sc
EndChar

StartChar: greater
Encoding: 62 62 6
Width: 560
Flags: W
HStem: -4 61<63.5423 85>
LayerCount: 2
Fore
SplineSet
73 467 m 2
 466 270 l 2
 483 262 507 249 507 243 c 0
 507 234 494 207 474 197 c 2
 71 -1 l 2
 68 -3 64 -4 63 -4 c 0
 57 -4 54 0 54 6 c 0
 54 18 65 47 85 57 c 2
 428 231 l 2
 431 232 430 235 427 236 c 2
 77 410 l 2
 58 419 53 449 53 458 c 0
 53 471 66 470 73 467 c 2
EndSplineSet
Substitution2: "EBGaramond-Regular-'ss04' Style Set 4 lookup 33 subtable" uni2767.01
Substitution2: "EBGaramond-Regular-'ss02' Style Set 2 lookup 30 subtable" bullet.01
Substitution2: "EBGaramond-Regular-'smcp' Lowercase to Small Capitals lookup 22 subtable" greater.sc
Substitution2: "EBGaramond-Regular-'c2sc' Capitals to Small Capitals lookup 21 subtable" greater.sc
Substitution2: "EBGaramond-Regular-'ordn' Ordinals lookup 15 subtable" greater.ordn
Substitution2: "EBGaramond-Regular-'sups' Superscript lookup 11 subtable" greater.sups
Substitution2: "EBGaramond-Regular-'sinf' Scientific Inferiors lookup 10 subtable" greater.sinf
Substitution2: "EBGaramond-Regular-'subs' Subscript lookup 9 subtable" greater.subs
AlternateSubs2: "EBGaramond-Regular-'aalt' Access All Alternates lookup 1 subtable" greater.subs greater.sinf greater.sups greater.ordn greater.sc
EndChar

StartChar: question
Encoding: 63 63 7
Width: 376
Flags: W
HStem: -14 120<103.745 196.255> 573 88<78.3613 180.784>
VStem: 90 120<-0.254639 92.2546> 98 53<195.696 274.776> 260 51<415.721 503.256>
LayerCount: 2
Fore
SplineSet
136 181 m 0xd8
 129 181 118 194 114 210 c 0
 108 231 98 252 98 297 c 0
 98 331 136 355 199 387 c 0
 227 401 260 429 260 458 c 0
 260 524 227 572 159 573 c 0
 150 573 143 572 136 571 c 0
 129 570 122 569 112 569 c 0
 91 569 70 598 70 625 c 0
 70 644 93 661 110 661 c 0
 143 661 185 644 218 611 c 0
 274 555 311 469 311 418 c 0
 311 369 289 345 269 334 c 0
 225 310 215 304 183 283 c 0
 155 265 152 236 151 204 c 0
 151 194 146 181 136 181 c 0xd8
150 -14 m 0
 117 -14 90 13 90 46 c 0
 90 79 117 106 150 106 c 0
 183 106 210 79 210 46 c 0xe8
 210 13 183 -14 150 -14 c 0
EndSplineSet
Substitution2: "EBGaramond-Regular-'smcp' Lowercase to Small Capitals lookup 22 subtable" question.sc
Substitution2: "EBGaramond-Regular-'c2sc' Capitals to Small Capitals lookup 21 subtable" question.sc
Substitution2: "EBGaramond-Regular-'ordn' Ordinals lookup 15 subtable" question.ordn
Substitution2: "EBGaramond-Regular-'sups' Superscript lookup 11 subtable" question.sups
Substitution2: "EBGaramond-Regular-'sinf' Scientific Inferiors lookup 10 subtable" question.sinf
Substitution2: "EBGaramond-Regular-'subs' Subscript lookup 9 subtable" question.subs
AlternateSubs2: "EBGaramond-Regular-'aalt' Access All Alternates lookup 1 subtable" question.subs question.sinf question.sups question.ordn question.sc
EndChar

StartChar: asciitilde
Encoding: 126 126 8
Width: 500
Flags: W
HStem: 260 59<274.792 386.981> 320 61<106.991 229.538>
LayerCount: 2
Fore
SplineSet
337 260 m 0
 302 260 272 276 243 291 c 0
 216 306 189 320 160 320 c 0
 110 320 74 265 69 265 c 0
 61 265 50 272 50 279 c 0
 50 306 101 381 171 381 c 0
 205 381 233 365 259 350 c 0
 285 334 310 319 337 319 c 0
 382 319 425 382 430 382 c 0
 435 382 450 375 450 362 c 0
 450 321 386 260 337 260 c 0
EndSplineSet
Substitution2: "EBGaramond-Regular-'smcp' Lowercase to Small Capitals lookup 22 subtable" asciitilde.sc
Substitution2: "EBGaramond-Regular-'c2sc' Capitals to Small Capitals lookup 21 subtable" asciitilde.sc
Substitution2: "EBGaramond-Regular-'ordn' Ordinals lookup 15 subtable" asciitilde.ordn
Substitution2: "EBGaramond-Regular-'sups' Superscript lookup 11 subtable" asciitilde.sups
Substitution2: "EBGaramond-Regular-'sinf' Scientific Inferiors lookup 10 subtable" asciitilde.sinf
Substitution2: "EBGaramond-Regular-'subs' Subscript lookup 9 subtable" asciitilde.subs
AlternateSubs2: "EBGaramond-Regular-'aalt' Access All Alternates lookup 1 subtable" asciitilde.subs asciitilde.sinf asciitilde.sups asciitilde.ordn asciitilde.sc
EndChar

StartChar: multiply
Encoding: 215 215 9
Width: 600
Flags: W
LayerCount: 2
Fore
SplineSet
456 60 m 0
 452 60 449 61 446 64 c 2
 304 207 l 2
 302 209 299 209 297 207 c 2
 154 64 l 2
 149 59 140 59 136 63 c 0
 131 68 114 87 114 102 c 0
 114 106 116 111 119 114 c 2
 253 248 l 2
 257 252 256 254 252 258 c 2
 123 386 l 2
 119 390 118 395 118 400 c 0
 118 416 131 437 134 441 c 0
 139 446 148 446 153 441 c 2
 296 299 l 2
 301 294 301 296 303 298 c 2
 447 441 l 2
 450 444 453 446 457 446 c 0
 460 446 464 444 466 441 c 0
 473 428 483 413 483 401 c 0
 483 396 481 391 476 386 c 2
 345 255 l 2
 343 253 343 252 345 250 c 2
 481 114 l 2
 484 111 486 107 486 102 c 0
 486 84 467 60 456 60 c 0
EndSplineSet
Substitution2: "EBGaramond-Regular-'smcp' Lowercase to Small Capitals lookup 22 subtable" multiply.sc
Substitution2: "EBGaramond-Regular-'c2sc' Capitals to Small Capitals lookup 21 subtable" multiply.sc
Substitution2: "EBGaramond-Regular-'aalt' Access All Alternates lookup 0 subtable" multiply.sc
EndChar

StartChar: divide
Encoding: 247 247 10
Width: 590
Flags: HW
HStem: 67 94<254.642 333.606> 231 51<72.7871 518.99> 352 94<253.642 332.606>
VStem: 247 94<75.0156 152.984 360.016 437.984>
CounterMasks: 1 e0
LayerCount: 2
Fore
SplineSet
293 352 m 0
 268 352 246 373 246 399 c 0
 246 425 268 446 293 446 c 0
 319 446 340 425 340 399 c 0
 340 373 319 352 293 352 c 0
84 231 m 2
 77 231 70 236 70 241 c 0
 70 249 73 282 93 282 c 6
 511 282 l 2
 516 282 523 277 523 272 c 0
 523 253 511 231 493 231 c 2
 84 231 l 2
294 67 m 0
 269 67 247 88 247 114 c 0
 247 140 269 161 294 161 c 0
 320 161 341 140 341 114 c 0
 341 88 320 67 294 67 c 0
EndSplineSet
Substitution2: "EBGaramond-Regular-'smcp' Lowercase to Small Capitals lookup 22 subtable" divide.sc
Substitution2: "EBGaramond-Regular-'c2sc' Capitals to Small Capitals lookup 21 subtable" divide.sc
Substitution2: "EBGaramond-Regular-'aalt' Access All Alternates lookup 0 subtable" divide.sc
EndChar

StartChar: uni0334
Encoding: 820 820 11
Width: 0
GlyphClass: 4
Flags: W
HStem: 260 59<24.7919 136.981> 320 61<-143.009 -20.4619>
LayerCount: 2
Fore
SplineSet
87 260 m 0
 52 260 22 276 -7 291 c 0
 -34 306 -61 320 -90 320 c 0
 -140 320 -176 265 -181 265 c 0
 -189 265 -200 272 -200 279 c 0
 -200 306 -149 381 -79 381 c 0
 -45 381 -17 365 9 350 c 0
 35 334 60 319 87 319 c 0
 132 319 175 382 180 382 c 0
 185 382 200 375 200 362 c 0
 200 321 136 260 87 260 c 0
EndSplineSet
EndChar

StartChar: uni0335
Encoding: 821 821 12
Width: 0
GlyphClass: 4
Flags: W
HStem: 356 44<-147.986 148.596>
VStem: -150 300<357.29 399.847>
LayerCount: 2
Fore
SplineSet
-136 356 m 2
 -143 356 -150 362 -150 368 c 0
 -150 377 -142 400 -126 400 c 2
 137 400 l 2
 143 400 150 394 150 388 c 0
 150 368 136 356 119 356 c 2
 -136 356 l 2
EndSplineSet
EndChar

StartChar: uni0336
Encoding: 822 822 13
Width: 0
GlyphClass: 4
Flags: W
HStem: 356 44<-222.986 223.596>
LayerCount: 2
Fore
SplineSet
-211 356 m 2
 -218 356 -225 362 -225 368 c 0
 -225 377 -217 400 -201 400 c 2
 212 400 l 2
 218 400 225 394 225 388 c 0
 225 368 211 356 194 356 c 2
 -211 356 l 2
EndSplineSet
EndChar

StartChar: existential
Encoding: 8707 8707 14
Width: 692
Flags: W
HStem: -5 50<91 375> 298 50<101 375> 603 48<91 375>
VStem: 375 67<45 298 348 603>
LayerCount: 2
Fore
SplineSet
442 -3 m 1
 91 -5 l 1
 91 45 l 1
 375 45 l 2
 375 298 l 2
 101 298 l 1
 101 348 l 1
 375 348 l 2
 375 603 l 2
 91 603 l 1
 91 653 l 1
 442 651 l 1
 442 -3 l 1
EndSplineSet
EndChar

StartChar: uni2204
Encoding: 8708 8708 15
Width: 200
Flags: W
HStem: 149 110<56.8467 143.153>
VStem: 45 110<160.847 247.153>
LayerCount: 2
Fore
SplineSet
100 149 m 0
 70 149 45 174 45 204 c 0
 45 234 70 259 100 259 c 0
 130 259 155 234 155 204 c 0
 155 174 130 149 100 149 c 0
EndSplineSet
EndChar

StartChar: element
Encoding: 8712 8712 16
Width: 692
Flags: HW
HStem: -5 50<272.333 442> 603 50<277.114 442>
VStem: 31 50<298 348>
LayerCount: 2
Fore
SplineSet
435 298 m 2
 435 348 l 2
 81 348 l 1
 81 298 l 1
 435 298 l 2
442 -5 m 1
 442 45 l 1
 195 45 100 132 100 324 c 3
 100 522 215 603 442 603 c 1
 442 653 l 1
 169 651 31 554 31 324 c 3
 31 94 169 -4 442 -5 c 1
EndSplineSet
EndChar

StartChar: notelement
Encoding: 8713 8713 17
Width: 200
Flags: W
HStem: 149 110<56.8467 143.153>
VStem: 45 110<160.847 247.153>
LayerCount: 2
Fore
SplineSet
100 149 m 0
 70 149 45 174 45 204 c 0
 45 234 70 259 100 259 c 0
 130 259 155 234 155 204 c 0
 155 174 130 149 100 149 c 0
EndSplineSet
EndChar

StartChar: uni220A
Encoding: 8714 8714 18
Width: 692
Flags: HW
HStem: 105 50<192.41 402> 503 50<192.41 402>
VStem: 31 50<298 348>
LayerCount: 2
Fore
SplineSet
395 298 m 2
 395 348 l 2
 81 348 l 1
 81 298 l 1
 395 298 l 2
402 105 m 1
 402 155 l 1
 235 155 90 162 90 324 c 7
 90 502 235 503 402 503 c 1
 402 553 l 1
 209 551 31 554 31 324 c 3
 31 94 209 106 402 105 c 1
EndSplineSet
EndChar

StartChar: suchthat
Encoding: 8715 8715 19
Width: 200
Flags: W
HStem: 149 110<56.8467 143.153>
VStem: 45 110<160.847 247.153>
LayerCount: 2
Fore
SplineSet
100 149 m 0
 70 149 45 174 45 204 c 0
 45 234 70 259 100 259 c 0
 130 259 155 234 155 204 c 0
 155 174 130 149 100 149 c 0
EndSplineSet
EndChar

StartChar: uni220C
Encoding: 8716 8716 20
Width: 200
Flags: W
HStem: 149 110<56.8467 143.153>
VStem: 45 110<160.847 247.153>
LayerCount: 2
Fore
SplineSet
100 149 m 0
 70 149 45 174 45 204 c 0
 45 234 70 259 100 259 c 0
 130 259 155 234 155 204 c 0
 155 174 130 149 100 149 c 0
EndSplineSet
EndChar

StartChar: uni220D
Encoding: 8717 8717 21
Width: 200
Flags: W
HStem: 149 110<56.8467 143.153>
VStem: 45 110<160.847 247.153>
LayerCount: 2
Fore
SplineSet
100 149 m 0
 70 149 45 174 45 204 c 0
 45 234 70 259 100 259 c 0
 130 259 155 234 155 204 c 0
 155 174 130 149 100 149 c 0
EndSplineSet
EndChar

StartChar: uni220E
Encoding: 8718 8718 22
Width: 655
Flags: W
HStem: -5 568<54.3245 603.952>
VStem: 50 555<-4.5575 562.146>
LayerCount: 2
Fore
SplineSet
79 -5 m 2
 62 -5 50 0 50 8 c 0
 50 105 53 95 54 536 c 4
 54 558 63 563 83 563 c 6
 576 563 l 6
 595 563 605 558 605 535 c 6
 605 30 l 2
 605 0 593 -5 576 -5 c 2
 79 -5 l 2
EndSplineSet
EndChar

StartChar: minus
Encoding: 8722 8722 23
Width: 600
Flags: W
HStem: 222 60<53.8933 544.1>
LayerCount: 2
Fore
SplineSet
64 222 m 2
 57 222 50 228 50 234 c 0
 50 243 53 282 74 282 c 6
 537 282 l 2
 543 282 550 276 550 270 c 0
 550 248 537 222 519 222 c 2
 64 222 l 2
EndSplineSet
EndChar

StartChar: uni2213
Encoding: 8723 8723 24
Width: 590
Flags: W
HStem: 192 50<54.0508 270 330 546.896> 432 50<52.7275 270 330 547.733> 432 30<309 324>
VStem: 270 60<-1.11694 192 242 455>
LayerCount: 2
Fore
SplineSet
536 482 m 2xd0
 543 482 550 476 550 470 c 0
 550 461 547 432 526 432 c 2
 63 432 l 2
 57 432 50 438 50 444 c 0
 50 466 63 482 81 482 c 2
 536 482 l 2xd0
318 462 m 0xb0
 324 462 330 455 330 448 c 2
 330 247 l 2
 330 244 331 242 334 242 c 6
 536 242 l 6
 543 242 550 236 550 230 c 4
 550 221 544 192 526 192 c 6
 337 192 l 6
 331 192 330 190 330 184 c 2
 330 23 l 2
 330 1 290 -8 284 -8 c 0
 277 -8 270 -2 270 5 c 2
 270 186 l 2
 270 191 270 192 268 192 c 2
 63 192 l 2
 56 192 50 196 50 202 c 0
 50 219 62 242 81 242 c 2
 266 242 l 2
 269 242 270 243 270 246 c 2
 270 438 l 2
 270 459 309 462 318 462 c 0xb0
EndSplineSet
EndChar

StartChar: uni2214
Encoding: 8724 8724 25
Width: 200
Flags: W
HStem: 149 110<56.8467 143.153>
VStem: 45 110<160.847 247.153>
LayerCount: 2
Fore
SplineSet
100 149 m 0
 70 149 45 174 45 204 c 0
 45 234 70 259 100 259 c 0
 130 259 155 234 155 204 c 0
 155 174 130 149 100 149 c 0
EndSplineSet
EndChar

StartChar: asteriskmath
Encoding: 8727 8727 26
Width: 340
Flags: W
VStem: 125 51<396.158 472.582> 165 51<27.4176 103.842>
LayerCount: 2
Fore
SplineSet
191 27 m 0x40
 177 27 167 39 165 53 c 2x40
 146 191 l 1
 112 167 72 144 27 117 c 0
 23 113 17 111 11 111 c 0
 -1 111 -16 116 -16 131 c 0
 -16 140 -11 149 -3 157 c 2
 107 244 l 1
 68 262 30 280 -16 307 c 0
 -26 311 -34 324 -34 334 c 0
 -34 355 -9 357 3 353 c 0
 51 332 95 317 134 301 c 1
 130 343 127 389 125 441 c 0
 125 457 132 473 150 473 c 0
 164 473 174 461 176 447 c 2x80
 195 309 l 1
 229 333 269 356 314 383 c 0
 318 387 324 389 330 389 c 0
 342 389 357 384 357 369 c 0
 357 360 352 351 344 343 c 2
 234 256 l 1
 273 238 311 220 357 193 c 0
 367 189 375 176 375 166 c 0
 375 145 350 143 338 147 c 0
 290 168 246 183 207 199 c 1
 211 157 214 111 216 59 c 0
 216 43 209 27 191 27 c 0x40
EndSplineSet
EndChar

StartChar: uni2218
Encoding: 8728 8728 27
Width: 290
Flags: W
HStem: 128 42<94.6126 195.387> 328 43<93.9189 196.081>
VStem: 25 43<196.324 303.244> 222 43<195.771 302.766>
LayerCount: 2
Fore
SplineSet
145 128 m 0
 82 128 25 188 25 252 c 0
 25 316 82 371 145 371 c 0
 208 371 265 318 265 254 c 0
 265 190 208 128 145 128 c 0
145 170 m 0
 187 170 222 207 222 249 c 0
 222 293 187 328 145 328 c 0
 103 328 68 293 68 249 c 0
 68 207 103 170 145 170 c 0
EndSplineSet
EndChar

StartChar: uni2219
Encoding: 8729 8729 28
Width: 200
Flags: W
HStem: 149 110<56.8467 143.153>
VStem: 45 110<160.847 247.153>
LayerCount: 2
Fore
SplineSet
100 149 m 0
 70 149 45 174 45 204 c 0
 45 234 70 259 100 259 c 0
 130 259 155 234 155 204 c 0
 155 174 130 149 100 149 c 0
EndSplineSet
EndChar

StartChar: infinity
Encoding: 8734 8734 29
Width: 749
Flags: W
HStem: 12 72<123.631 262.165 505.137 616.968> 316 70<132.164 243.147 484.66 620.801>
VStem: 35 29<151.074 252.676> 685 29<143.887 246.926>
LayerCount: 2
Fore
SplineSet
190 12 m 0
 98 12 35 97 35 189 c 0
 35 287 108 386 211 386 c 0
 292 386 334 329 382 253 c 0
 387 245 392 249 396 256 c 0
 424 307 471 386 559 386 c 0
 651 386 714 301 714 209 c 0
 714 111 641 12 538 12 c 0
 457 12 415 71 367 147 c 0
 362 155 358 154 353 144 c 0
 325 93 278 12 190 12 c 0
206 84 m 0
 270 84 306 114 341 157 c 0
 345 162 347 166 347 169 c 0
 347 175 343 181 337 189 c 0
 297 247 245 316 183 316 c 0
 119 316 64 262 64 203 c 0
 64 131 134 84 206 84 c 0
570 80 m 0
 633 80 685 136 685 195 c 0
 685 267 615 314 543 314 c 0
 479 314 446 283 411 240 c 0
 407 235 405 231 405 228 c 0
 405 222 409 216 415 208 c 0
 455 150 508 80 570 80 c 0
EndSplineSet
EndChar

StartChar: orthogonal
Encoding: 8735 8735 30
Width: 655
Flags: HW
HStem: -21 50<183.461 350.4>
VStem: 49 53<125.391 454.003> 422 53<113.139 454.003>
LayerCount: 2
Fore
SplineSet
470 -21 m 6
 77 -21 l 2
 60 -21 48 -16 48 -8 c 2
 49 425.5 l 2
 49 446.169921875 68.875 457.299804688 88.75 457.299804688 c 0
 95.375 457.299804688 102 449.018554688 102 440.73828125 c 2
 102 69 l 2
 102 42 112 29 137 29 c 2
 488 29 l 6
 494 29 502 24 502 18 c 4
 502 0 486 -21 470 -21 c 6
EndSplineSet
EndChar

StartChar: angle
Encoding: 8736 8736 31
Width: 655
Flags: HW
LayerCount: 2
Fore
SplineSet
470 -21 m 2
 64.5869140625 -21 l 2
 50.1298828125 -21 37.671875 -7.43359375 37.671875 6.1328125 c 3
 37.671875 24.15625 36.7617054155 31.2762040232 53.5546875 47.2919921875 c 2
 415.939453125 392.905273438 l 2
 430.338213254 406.637646336 459.377929688 413 476 413 c 3
 493 413 493.084536974 394.888412907 487 389 c 6
 147.524414062 60.466796875 l 2
 134.664494027 48.0213931514 134.634765625 29 169 29 c 2
 488 29 l 2
 494 29 502 24 502 18 c 0
 502 0 486 -21 470 -21 c 2
EndSplineSet
EndChar

StartChar: uni2221
Encoding: 8737 8737 32
Width: 655
Flags: HW
LayerCount: 2
Fore
SplineSet
273.999998609 -75.4744735423 m 0
 282.426058645 -50.4479563979 287 -23.7211457375 287 4 c 0
 287 116.286329984 212.607521932 212.258520042 110.739137316 244.99999865 c 0
 138.999994599 288.223084271 l 0
 254.447964542 245.403131578 337 134.11006983 337 4 c 0
 337 -34.9500209604 329.547482298 -72.2137057983 316.000001949 -106.458874319 c 0
 273.999998609 -75.4744735423 l 0
470 -21 m 2
 64.5869140625 -21 l 2
 50.1298828125 -21 37.671875 -7.43359375 37.671875 6.1328125 c 3
 37.671875 24.15625 36.7617054155 31.2762040232 53.5546875 47.2919921875 c 2
 415.939453125 392.905273438 l 2
 430.338213254 406.637646336 459.377929688 413 476 413 c 3
 493 413 493.084536974 394.888412907 487 389 c 2
 147.524414062 60.466796875 l 2
 134.664494027 48.0213931514 134.634765625 29 169 29 c 2
 488 29 l 2
 494 29 502 24 502 18 c 0
 502 0 486 -21 470 -21 c 2
EndSplineSet
EndChar

StartChar: uni2222
Encoding: 8738 8738 33
Width: 560
Flags: W
HStem: 408 61<475 496.058>
VStem: 345 50<124.926 337.284>
LayerCount: 2
Fore
SplineSet
263.999996696 47.4804179267 m 0
 313.690990137 93.7520282467 345 159.472860877 345 232 c 0
 345 310.754269377 308.404855662 381.483287803 251.401625115 427.99999715 c 0
 288.988914231 462.000003555 l 0
 353.83441304 406.373784765 395 323.878558543 395 232 c 0
 395 144.714402573 357.574052638 65.8974501699 298.000004003 10.541421664 c 0
 263.999996696 47.4804179267 l 0
487 -2 m 2
 94 195 l 2
 76.8083598092 203.617692411 53 216 53 228 c 0
 53 248 65.535476383 257.945469786 86 268 c 2
 489 466 l 2
 491.81242281 467.381785897 496 469 497 469 c 0
 503 469 506 465 506 459 c 0
 506 447 495.344647625 418.320608416 475 408 c 2
 132 234 l 2
 128.807091431 232.380273787 129.797271823 230.592213437 133 229 c 2
 483 55 l 2
 502.220950935 45.4444415353 507 16 507 7 c 0
 507 -6 494 -5 487 -2 c 2
EndSplineSet
EndChar

StartChar: logicaland
Encoding: 8743 8743 34
Width: 590
Flags: HW
HStem: 408 61<475 496.458>
LayerCount: 2
Fore
SplineSet
62.8330078125 82.1669921875 m 4
 62.8330078125 83.1669921875 63.8330078125 84.1669921875 63.8330078125 85.1669921875 c 6
 243.833007812 484.166992188 l 6
 250.833007812 502.166992188 264.833007812 525.166992188 270.833007812 525.166992188 c 4
 279.833007812 525.166992188 308.833007812 512.166992188 316.833007812 492.166992188 c 6
 496.833007812 85.1669921875 l 6
 496.833007812 81.1669921875 499.833007812 72.1669921875 487.833007812 72.1669921875 c 4
 475.833007812 72.1669921875 445.833007812 81.1669921875 436.833007812 103.166992188 c 6
 282.833007812 446.166992188 l 6
 281.833007812 449.166992188 278.833007812 448.166992188 277.833007812 445.166992188 c 6
 123.833007812 95.1669921875 l 6
 115.833007812 76.1669921875 84.8330078125 71.1669921875 75.8330078125 71.1669921875 c 4
 70.8330078125 71.1669921875 62.8330078125 76.1669921875 62.8330078125 82.1669921875 c 4
EndSplineSet
EndChar

StartChar: logicalor
Encoding: 8744 8744 35
Width: 590
Flags: HW
HStem: -4 61<63.5423 85>
LayerCount: 2
Fore
SplineSet
497.166992188 514.166992188 m 4
 497.166992188 513.166992188 496.166992188 512.166992188 496.166992188 511.166992188 c 6
 316.166992188 112.166992188 l 6
 309.166992188 94.1669921875 295.166992188 71.1669921875 289.166992188 71.1669921875 c 4
 280.166992188 71.1669921875 251.166992188 84.1669921875 243.166992188 104.166992188 c 6
 63.1669921875 511.166992188 l 6
 63.1669921875 515.166992188 60.1669921875 524.166992188 72.1669921875 524.166992188 c 4
 84.1669921875 524.166992188 114.166992188 515.166992188 123.166992188 493.166992188 c 6
 277.166992188 150.166992188 l 6
 278.166992188 147.166992188 281.166992188 148.166992188 282.166992188 151.166992188 c 6
 436.166992188 501.166992188 l 6
 444.166992188 520.166992188 475.166992188 525.166992188 484.166992188 525.166992188 c 4
 489.166992188 525.166992188 497.166992188 520.166992188 497.166992188 514.166992188 c 4
EndSplineSet
EndChar

StartChar: intersection
Encoding: 8745 8745 36
Width: 554
Flags: HW
HStem: -4 61<63.5423 85>
LayerCount: 2
Fore
SplineSet
136 85 m 6
 136 78 130 71 124 71 c 4
 115 71 86 77 86 95 c 6
 86 290 l 6
 86 453.002929688 168 525 278 525 c 4
 388 525 472 453.012695312 472 290 c 6
 472 85 l 6
 472 78 466 71 460 71 c 4
 451 71 422 77 422 95 c 6
 422 290 l 6
 422 394 376 470 278 470 c 4
 180 470 136 390 136 290 c 6
 136 85 l 6
EndSplineSet
EndChar

StartChar: union
Encoding: 8746 8746 37
Width: 554
Flags: HW
HStem: -4 61<63.5423 85>
LayerCount: 2
Fore
SplineSet
422 511 m 6
 422 518 428 525 434 525 c 4
 443 525 472 519 472 501 c 6
 472 306 l 6
 472 142.997070312 390 71 280 71 c 4
 170 71 86 142.987304688 86 306 c 6
 86 511 l 6
 86 518 92 525 98 525 c 4
 107 525 136 519 136 501 c 6
 136 306 l 6
 136 202 182 126 280 126 c 4
 378 126 422 206 422 306 c 6
 422 511 l 6
EndSplineSet
EndChar

StartChar: therefore
Encoding: 8756 8756 38
Width: 248
Flags: W
HStem: -14 110<-68.1533 18.1533 231.847 318.153> 262 110<81.8467 168.153>
VStem: -80 110<-2.15331 84.1533> 70 110<273.847 360.153> 220 110<-2.15331 84.1533>
CounterMasks: 1 38
LayerCount: 2
Fore
SplineSet
275 -14 m 4
 245 -14 220 11 220 41 c 4
 220 71 245 96 275 96 c 4
 305 96 330 71 330 41 c 4
 330 11 305 -14 275 -14 c 4
125 262 m 4
 95 262 70 287 70 317 c 4
 70 347 95 372 125 372 c 4
 155 372 180 347 180 317 c 4
 180 287 155 262 125 262 c 4
-25 -14 m 4
 -55 -14 -80 11 -80 41 c 4
 -80 71 -55 96 -25 96 c 4
 5 96 30 71 30 41 c 4
 30 11 5 -14 -25 -14 c 4
EndSplineSet
EndChar

StartChar: uni2235
Encoding: 8757 8757 39
Width: 248
Flags: W
HStem: -14 110<81.8467 168.153> 262 110<-68.1533 18.1533 231.847 318.153>
VStem: -80 110<273.847 360.153> 70 110<-2.15331 84.1533> 220 110<273.847 360.153>
CounterMasks: 1 38
LayerCount: 2
Fore
SplineSet
-25 372 m 4
 5 372 30 347 30 317 c 4
 30 287 5 262 -25 262 c 4
 -55 262 -80 287 -80 317 c 4
 -80 347 -55 372 -25 372 c 4
125 96 m 4
 155 96 180 71 180 41 c 4
 180 11 155 -14 125 -14 c 4
 95 -14 70 11 70 41 c 4
 70 71 95 96 125 96 c 4
275 372 m 4
 305 372 330 347 330 317 c 4
 330 287 305 262 275 262 c 4
 245 262 220 287 220 317 c 4
 220 347 245 372 275 372 c 4
EndSplineSet
EndChar

StartChar: uni2236
Encoding: 8758 8758 40
Width: 248
Flags: W
HStem: -14 110<81.8467 168.153> 262 110<81.8467 168.153>
VStem: 70 110<-2.15331 84.1533 273.847 360.153>
LayerCount: 2
Fore
SplineSet
125 262 m 0
 95 262 70 287 70 317 c 0
 70 347 95 372 125 372 c 0
 155 372 180 347 180 317 c 0
 180 287 155 262 125 262 c 0
125 -14 m 0
 95 -14 70 11 70 41 c 0
 70 71 95 96 125 96 c 0
 155 96 180 71 180 41 c 0
 180 11 155 -14 125 -14 c 0
EndSplineSet
EndChar

StartChar: uni2237
Encoding: 8759 8759 41
Width: 248
Flags: W
HStem: -14 110<81.8467 168.153 357.847 444.153> 262 110<81.8467 168.153 357.847 444.153>
VStem: 70 110<-2.15331 84.1533 273.847 360.153> 346 110<-2.15331 84.1533 273.847 360.153>
LayerCount: 2
Fore
SplineSet
401 262 m 4
 371 262 346 287 346 317 c 4
 346 347 371 372 401 372 c 4
 431 372 456 347 456 317 c 4
 456 287 431 262 401 262 c 4
401 -14 m 4
 371 -14 346 11 346 41 c 4
 346 71 371 96 401 96 c 4
 431 96 456 71 456 41 c 4
 456 11 431 -14 401 -14 c 4
125 262 m 0
 95 262 70 287 70 317 c 0
 70 347 95 372 125 372 c 0
 155 372 180 347 180 317 c 0
 180 287 155 262 125 262 c 0
125 -14 m 0
 95 -14 70 11 70 41 c 0
 70 71 95 96 125 96 c 0
 155 96 180 71 180 41 c 0
 180 11 155 -14 125 -14 c 0
EndSplineSet
EndChar

StartChar: uni2238
Encoding: 8760 8760 42
Width: 200
Flags: W
HStem: 149 110<56.8467 143.153>
VStem: 45 110<160.847 247.153>
LayerCount: 2
Fore
SplineSet
100 149 m 0
 70 149 45 174 45 204 c 0
 45 234 70 259 100 259 c 0
 130 259 155 234 155 204 c 0
 155 174 130 149 100 149 c 0
EndSplineSet
EndChar

StartChar: uni2239
Encoding: 8761 8761 43
Width: 200
Flags: W
HStem: 149 110<56.8467 143.153>
VStem: 45 110<160.847 247.153>
LayerCount: 2
Fore
SplineSet
100 149 m 0
 70 149 45 174 45 204 c 0
 45 234 70 259 100 259 c 0
 130 259 155 234 155 204 c 0
 155 174 130 149 100 149 c 0
EndSplineSet
EndChar

StartChar: uni223A
Encoding: 8762 8762 44
Width: 200
Flags: W
HStem: 149 110<56.8467 143.153>
VStem: 45 110<160.847 247.153>
LayerCount: 2
Fore
SplineSet
100 149 m 0
 70 149 45 174 45 204 c 0
 45 234 70 259 100 259 c 0
 130 259 155 234 155 204 c 0
 155 174 130 149 100 149 c 0
EndSplineSet
EndChar

StartChar: uni223B
Encoding: 8763 8763 45
Width: 200
Flags: W
HStem: 149 110<56.8467 143.153>
VStem: 45 110<160.847 247.153>
LayerCount: 2
Fore
SplineSet
100 149 m 0
 70 149 45 174 45 204 c 0
 45 234 70 259 100 259 c 0
 130 259 155 234 155 204 c 0
 155 174 130 149 100 149 c 0
EndSplineSet
EndChar

StartChar: similar
Encoding: 8764 8764 46
Width: 566
Flags: HW
HStem: 192 51<121.001 251.838> 260 53<310.445 454.054>
LayerCount: 2
Fore
SplineSet
386 192 m 4
 303 192 257 260 177 260 c 4
 109 260 74 197 69 197 c 4
 61 197 50 204 50 211 c 4
 50 238 101 313 188 313 c 4
 269 313 311 243 386 243 c 4
 448 243 491 314 496 314 c 4
 501 314 516 307 516 294 c 4
 516 253 452 192 386 192 c 4
EndSplineSet
EndChar

StartChar: uni223D
Encoding: 8765 8765 47
Width: 566
Flags: W
HStem: 192 51<121.001 251.838> 260 53<310.445 454.054>
LayerCount: 2
Fore
SplineSet
180 192 m 4
 263 192 309 260 389 260 c 4
 457 260 492 197 497 197 c 4
 505 197 516 204 516 211 c 4
 516 238 465 313 378 313 c 4
 297 313 255 243 180 243 c 4
 118 243 75 314 70 314 c 4
 65 314 50 307 50 294 c 4
 50 253 114 192 180 192 c 4
EndSplineSet
EndChar

StartChar: uni223E
Encoding: 8766 8766 48
Width: 200
Flags: W
HStem: 149 110<56.8467 143.153>
VStem: 45 110<160.847 247.153>
LayerCount: 2
Fore
SplineSet
100 149 m 0
 70 149 45 174 45 204 c 0
 45 234 70 259 100 259 c 0
 130 259 155 234 155 204 c 0
 155 174 130 149 100 149 c 0
EndSplineSet
EndChar

StartChar: uni223F
Encoding: 8767 8767 49
Width: 200
Flags: W
HStem: 149 110<56.8467 143.153>
VStem: 45 110<160.847 247.153>
LayerCount: 2
Fore
SplineSet
100 149 m 0
 70 149 45 174 45 204 c 0
 45 234 70 259 100 259 c 0
 130 259 155 234 155 204 c 0
 155 174 130 149 100 149 c 0
EndSplineSet
EndChar

StartChar: uni2240
Encoding: 8768 8768 50
Width: 200
Flags: W
HStem: 149 110<56.8467 143.153>
VStem: 45 110<160.847 247.153>
LayerCount: 2
Fore
SplineSet
100 149 m 0
 70 149 45 174 45 204 c 0
 45 234 70 259 100 259 c 0
 130 259 155 234 155 204 c 0
 155 174 130 149 100 149 c 0
EndSplineSet
EndChar

StartChar: uni2241
Encoding: 8769 8769 51
Width: 566
Flags: HW
HStem: 192 51<121.001 251.838> 260 53<310.445 454.054>
LayerCount: 2
Fore
SplineSet
386 192 m 0
 303 192 257 260 177 260 c 0
 109 260 74 197 69 197 c 0
 61 197 50 204 50 211 c 0
 50 238 101 313 188 313 c 0
 269 313 311 243 386 243 c 0
 448 243 491 314 496 314 c 0
 501 314 516 307 516 294 c 0
 516 253 452 192 386 192 c 0
172 -7 m 6
 164 -21 150 -22 134 -22 c 4
 127 -22 120 -13 124 -7 c 6
 397 483 l 6
 406 498 421 500 438 500 c 4
 445 500 449 489 445 483 c 6
 172 -7 l 6
EndSplineSet
EndChar

StartChar: uni2242
Encoding: 8770 8770 52
Width: 566
Flags: W
HStem: 89 51<314.162 444.999> 157 53<111.946 255.555> 295 50<53.1042 511.757>
LayerCount: 2
Fore
SplineSet
64 295 m 2
 57 295 50 301 50 307 c 0
 50 316 56 345 74 345 c 2
 502 345 l 2
 508 345 516 340 516 334 c 0
 516 316 500 295 484 295 c 2
 64 295 l 2
386 89 m 4
 303 89 257 157 177 157 c 4
 109 157 74 94 69 94 c 4
 61 94 50 101 50 108 c 4
 50 135 101 210 188 210 c 4
 269 210 311 140 386 140 c 4
 448 140 491 211 496 211 c 4
 501 211 516 204 516 191 c 4
 516 150 452 89 386 89 c 4
EndSplineSet
EndChar

StartChar: uni2243
Encoding: 8771 8771 53
Width: 566
Flags: W
HStem: 124 50<53.1042 511.757> 260 51<314.123 444.999> 328 53<111.946 255.528>
LayerCount: 2
Fore
SplineSet
64 124 m 2
 57 124 50 130 50 136 c 0
 50 145 56 174 74 174 c 2
 502 174 l 2
 508 174 516 169 516 163 c 0
 516 145 500 124 484 124 c 2
 64 124 l 2
386 260 m 4
 303.009765625 260 256.657226562 328 177 328 c 4
 109 328 74 265 69 265 c 4
 61 265 50 272 50 279 c 4
 50 306 101 381 188 381 c 4
 269.299804688 381 310.815429688 311 386 311 c 4
 448 311 491 382 496 382 c 4
 501 382 516 375 516 362 c 4
 516 321 452 260 386 260 c 4
EndSplineSet
EndChar

StartChar: uni2244
Encoding: 8772 8772 54
Width: 566
Flags: HW
HStem: 124 50<53.1042 511.757> 260 51<314.123 444.999> 328 53<111.946 255.528>
LayerCount: 2
Fore
SplineSet
177 -5 m 6
 169 -19 155 -20 139 -20 c 4
 132 -20 125 -11 129 -5 c 6
 402 485 l 6
 411 500 426 502 443 502 c 4
 450 502 454 491 450 485 c 6
 177 -5 l 6
64 124 m 2
 57 124 50 130 50 136 c 0
 50 145 56 174 74 174 c 2
 502 174 l 2
 508 174 516 169 516 163 c 0
 516 145 500 124 484 124 c 2
 64 124 l 2
386 260 m 0
 303.009765625 260 256.657226562 328 177 328 c 0
 109 328 74 265 69 265 c 0
 61 265 50 272 50 279 c 0
 50 306 101 381 188 381 c 0
 269.299804688 381 310.815429688 311 386 311 c 0
 448 311 491 382 496 382 c 0
 501 382 516 375 516 362 c 0
 516 321 452 260 386 260 c 0
EndSplineSet
EndChar

StartChar: congruent
Encoding: 8773 8773 55
Width: 566
Flags: HW
HStem: 97 50<53.1042 510.543> 225 50<53.1042 510.543> 318 51<314.123 444.999> 386 53<111.946 255.528>
LayerCount: 2
Fore
SplineSet
386 318 m 0
 303.009765625 318 256.657226562 386 177 386 c 0
 109 386 74 323 69 323 c 0
 61 323 50 330 50 337 c 0
 50 364 101 439 188 439 c 0
 269.299804688 439 310.815429688 369 386 369 c 0
 448 369 491 440 496 440 c 0
 501 440 516 433 516 420 c 0
 516 379 452 318 386 318 c 0
64 97 m 2
 57 97 50 103 50 109 c 0
 50 118 56 147 74 147 c 2
 502 147 l 2
 508 147 516 142 516 136 c 0
 516 122 500 97 484 97 c 2
 64 97 l 2
64 225 m 2
 57 225 50 231 50 237 c 0
 50 246 56 275 74 275 c 2
 502 275 l 2
 508 275 516 270 516 264 c 0
 516 250 500 225 484 225 c 2
 64 225 l 2
EndSplineSet
EndChar

StartChar: uni2246
Encoding: 8774 8774 56
Width: 566
Flags: HW
HStem: 97 50<53.1042 510.543> 225 50<53.1042 510.543> 318 51<314.123 444.999> 386 53<111.946 255.528>
LayerCount: 2
Fore
SplineSet
224 13 m 6
 216 -1 202 -2 186 -2 c 4
 179 -2 172 7 176 13 c 6
 338 303 l 6
 347 318 362 320 379 320 c 4
 386 320 390 309 386 303 c 6
 224 13 l 6
386 328 m 0
 303 328 257 396 177 396 c 0
 109 396 74 333 69 333 c 0
 61 333 50 340 50 347 c 0
 50 374 101 449 188 449 c 0
 269 449 311 379 386 379 c 0
 448 379 491 450 496 450 c 0
 501 450 516 443 516 430 c 0
 516 389 452 328 386 328 c 0
64 97 m 2
 57 97 50 103 50 109 c 0
 50 118 56 147 74 147 c 2
 502 147 l 2
 508 147 516 142 516 136 c 0
 516 122 500 97 484 97 c 2
 64 97 l 2
64 225 m 2
 57 225 50 231 50 237 c 0
 50 246 56 275 74 275 c 2
 502 275 l 2
 508 275 516 270 516 264 c 0
 516 250 500 225 484 225 c 2
 64 225 l 2
EndSplineSet
EndChar

StartChar: uni2247
Encoding: 8775 8775 57
Width: 566
Flags: W
HStem: 97 50<53.1042 510.543> 225 50<53.1042 510.543> 318 51<314.123 444.999> 386 53<111.946 255.528>
LayerCount: 2
Fore
SplineSet
177 13 m 6
 169 -1 155 -2 139 -2 c 4
 132 -2 125 7 129 13 c 6
 402 503 l 6
 411 518 426 520 443 520 c 4
 450 520 454 509 450 503 c 6
 177 13 l 6
386 318 m 0
 303.009765625 318 256.657226562 386 177 386 c 0
 109 386 74 323 69 323 c 0
 61 323 50 330 50 337 c 0
 50 364 101 439 188 439 c 0
 269.299804688 439 310.815429688 369 386 369 c 0
 448 369 491 440 496 440 c 0
 501 440 516 433 516 420 c 0
 516 379 452 318 386 318 c 0
64 97 m 2
 57 97 50 103 50 109 c 0
 50 118 56 147 74 147 c 2
 502 147 l 2
 508 147 516 142 516 136 c 0
 516 122 500 97 484 97 c 2
 64 97 l 2
64 225 m 2
 57 225 50 231 50 237 c 0
 50 246 56 275 74 275 c 2
 502 275 l 2
 508 275 516 270 516 264 c 0
 516 250 500 225 484 225 c 2
 64 225 l 2
EndSplineSet
EndChar

StartChar: approxequal
Encoding: 8776 8776 58
Width: 566
Flags: HW
HStem: 89 51<314.123 444.999> 157 53<111.946 255.528> 260 51<314.123 444.999> 328 53<111.946 255.528>
LayerCount: 2
Fore
SplineSet
386 89 m 0
 303.009765625 89 256.657226562 157 177 157 c 0
 109 157 74 94 69 94 c 0
 61 94 50 101 50 108 c 0
 50 135 101 210 188 210 c 0
 269.299804688 210 310.815429688 140 386 140 c 0
 448 140 491 211 496 211 c 0
 501 211 516 204 516 191 c 0
 516 150 452 89 386 89 c 0
386 260 m 0
 303.009765625 260 256.657226562 328 177 328 c 0
 109 328 74 265 69 265 c 0
 61 265 50 272 50 279 c 0
 50 306 101 381 188 381 c 0
 269.299804688 381 310.815429688 311 386 311 c 0
 448 311 491 382 496 382 c 0
 501 382 516 375 516 362 c 0
 516 321 452 260 386 260 c 0
EndSplineSet
EndChar

StartChar: uni2249
Encoding: 8777 8777 59
Width: 566
Flags: W
HStem: 89 51<314.123 444.999> 157 53<111.946 255.528> 260 51<314.123 444.999> 328 53<111.946 255.528>
LayerCount: 2
Fore
SplineSet
177 -10 m 6
 169 -24 155 -25 139 -25 c 4
 132 -25 125 -16 129 -10 c 6
 402 480 l 6
 411 495 426 497 443 497 c 4
 450 497 454 486 450 480 c 6
 177 -10 l 6
386 89 m 0
 303.009765625 89 256.657226562 157 177 157 c 0
 109 157 74 94 69 94 c 0
 61 94 50 101 50 108 c 0
 50 135 101 210 188 210 c 0
 269.299804688 210 310.815429688 140 386 140 c 0
 448 140 491 211 496 211 c 0
 501 211 516 204 516 191 c 0
 516 150 452 89 386 89 c 0
386 260 m 0
 303.009765625 260 256.657226562 328 177 328 c 0
 109 328 74 265 69 265 c 0
 61 265 50 272 50 279 c 0
 50 306 101 381 188 381 c 0
 269.299804688 381 310.815429688 311 386 311 c 0
 448 311 491 382 496 382 c 0
 501 382 516 375 516 362 c 0
 516 321 452 260 386 260 c 0
EndSplineSet
EndChar

StartChar: uni224A
Encoding: 8778 8778 60
Width: 566
Flags: W
HStem: 97 50<53.1042 510.543> 190 51<314.162 444.999> 258 53<111.946 255.555> 318 51<314.162 444.999> 386 53<111.946 255.555>
LayerCount: 2
Fore
SplineSet
386 190 m 4
 303 190 257 258 177 258 c 4
 109 258 74 195 69 195 c 4
 61 195 50 202 50 209 c 4
 50 236 101 311 188 311 c 4
 269 311 311 241 386 241 c 4
 448 241 491 312 496 312 c 4
 501 312 516 305 516 292 c 4
 516 251 452 190 386 190 c 4
386 318 m 0
 303 318 257 386 177 386 c 0
 109 386 74 323 69 323 c 0
 61 323 50 330 50 337 c 0
 50 364 101 439 188 439 c 0
 269 439 311 369 386 369 c 0
 448 369 491 440 496 440 c 0
 501 440 516 433 516 420 c 0
 516 379 452 318 386 318 c 0
64 97 m 2
 57 97 50 103 50 109 c 0
 50 118 56 147 74 147 c 2
 502 147 l 2
 508 147 516 142 516 136 c 0
 516 122 500 97 484 97 c 2
 64 97 l 2
EndSplineSet
EndChar

StartChar: uni224B
Encoding: 8779 8779 61
Width: 566
Flags: HW
HStem: 97 50<53.1042 510.543> 190 51<314.162 444.999> 258 53<111.946 255.555> 318 51<314.162 444.999> 386 53<111.946 255.555>
LayerCount: 2
Fore
SplineSet
386 62 m 4
 303 62 257 130 177 130 c 4
 109 130 74 67 69 67 c 4
 61 67 50 74 50 81 c 4
 50 108 101 183 188 183 c 4
 269 183 311 113 386 113 c 4
 448 113 491 184 496 184 c 4
 501 184 516 177 516 164 c 4
 516 123 452 62 386 62 c 4
386 190 m 0
 303 190 257 258 177 258 c 0
 109 258 74 195 69 195 c 0
 61 195 50 202 50 209 c 0
 50 236 101 311 188 311 c 0
 269 311 311 241 386 241 c 0
 448 241 491 312 496 312 c 0
 501 312 516 305 516 292 c 0
 516 251 452 190 386 190 c 0
386 318 m 0
 303 318 257 386 177 386 c 0
 109 386 74 323 69 323 c 0
 61 323 50 330 50 337 c 0
 50 364 101 439 188 439 c 0
 269 439 311 369 386 369 c 0
 448 369 491 440 496 440 c 0
 501 440 516 433 516 420 c 0
 516 379 452 318 386 318 c 0
EndSplineSet
EndChar

StartChar: uni224C
Encoding: 8780 8780 62
Width: 566
Flags: HW
HStem: 97 50<53.1042 510.543> 225 50<53.1042 510.543> 318 51<314.123 444.999> 386 53<111.946 255.528>
LayerCount: 2
Fore
SplineSet
180 318 m 0
 263 318 309 386 389 386 c 0
 457 386 492 323 497 323 c 0
 505 323 516 330 516 337 c 0
 516 364 465 439 378 439 c 0
 297 439 255 369 180 369 c 0
 118 369 75 440 70 440 c 0
 65 440 50 433 50 420 c 0
 50 379 114 318 180 318 c 0
64 97 m 2
 57 97 50 103 50 109 c 0
 50 118 56 147 74 147 c 2
 502 147 l 2
 508 147 516 142 516 136 c 0
 516 122 500 97 484 97 c 2
 64 97 l 2
64 225 m 2
 57 225 50 231 50 237 c 0
 50 246 56 275 74 275 c 2
 502 275 l 2
 508 275 516 270 516 264 c 0
 516 250 500 225 484 225 c 2
 64 225 l 2
EndSplineSet
EndChar

StartChar: uni224D
Encoding: 8781 8781 63
Width: 200
Flags: W
HStem: 149 110<56.8467 143.153>
VStem: 45 110<160.847 247.153>
LayerCount: 2
Fore
SplineSet
100 149 m 0
 70 149 45 174 45 204 c 0
 45 234 70 259 100 259 c 0
 130 259 155 234 155 204 c 0
 155 174 130 149 100 149 c 0
EndSplineSet
EndChar

StartChar: uni224E
Encoding: 8782 8782 64
Width: 200
Flags: W
HStem: 149 110<56.8467 143.153>
VStem: 45 110<160.847 247.153>
LayerCount: 2
Fore
SplineSet
100 149 m 0
 70 149 45 174 45 204 c 0
 45 234 70 259 100 259 c 0
 130 259 155 234 155 204 c 0
 155 174 130 149 100 149 c 0
EndSplineSet
EndChar

StartChar: uni224F
Encoding: 8783 8783 65
Width: 200
Flags: W
HStem: 149 110<56.8467 143.153>
VStem: 45 110<160.847 247.153>
LayerCount: 2
Fore
SplineSet
100 149 m 0
 70 149 45 174 45 204 c 0
 45 234 70 259 100 259 c 0
 130 259 155 234 155 204 c 0
 155 174 130 149 100 149 c 0
EndSplineSet
EndChar

StartChar: uni2250
Encoding: 8784 8784 66
Width: 200
Flags: W
HStem: 149 110<56.8467 143.153>
VStem: 45 110<160.847 247.153>
LayerCount: 2
Fore
SplineSet
100 149 m 0
 70 149 45 174 45 204 c 0
 45 234 70 259 100 259 c 0
 130 259 155 234 155 204 c 0
 155 174 130 149 100 149 c 0
EndSplineSet
EndChar

StartChar: uni2251
Encoding: 8785 8785 67
Width: 200
Flags: W
HStem: 149 110<56.8467 143.153>
VStem: 45 110<160.847 247.153>
LayerCount: 2
Fore
SplineSet
100 149 m 0
 70 149 45 174 45 204 c 0
 45 234 70 259 100 259 c 0
 130 259 155 234 155 204 c 0
 155 174 130 149 100 149 c 0
EndSplineSet
EndChar

StartChar: uni2252
Encoding: 8786 8786 68
Width: 200
Flags: W
HStem: 149 110<56.8467 143.153>
VStem: 45 110<160.847 247.153>
LayerCount: 2
Fore
SplineSet
100 149 m 0
 70 149 45 174 45 204 c 0
 45 234 70 259 100 259 c 0
 130 259 155 234 155 204 c 0
 155 174 130 149 100 149 c 0
EndSplineSet
EndChar

StartChar: uni2253
Encoding: 8787 8787 69
Width: 200
Flags: W
HStem: 149 110<56.8467 143.153>
VStem: 45 110<160.847 247.153>
LayerCount: 2
Fore
SplineSet
100 149 m 0
 70 149 45 174 45 204 c 0
 45 234 70 259 100 259 c 0
 130 259 155 234 155 204 c 0
 155 174 130 149 100 149 c 0
EndSplineSet
EndChar

StartChar: uni2254
Encoding: 8788 8788 70
Width: 772
Flags: W
HStem: 63 110<61.8467 148.153> 143 50<259.104 717.757> 314 50<259.104 716.543> 339 110<61.8467 148.153>
VStem: 50 110<74.8467 161.153 350.847 437.153>
LayerCount: 2
Fore
SplineSet
105 339 m 0x18
 75 339 50 364 50 394 c 0
 50 424 75 449 105 449 c 0
 135 449 160 424 160 394 c 0
 160 364 135 339 105 339 c 0x18
270 314 m 2x28
 263 314 256 320 256 326 c 0
 256 335 262 364 280 364 c 2
 708 364 l 2
 714 364 722 359 722 353 c 0
 722 339 706 314 690 314 c 2
 270 314 l 2x28
270 143 m 6x48
 263 143 256 149 256 155 c 4
 256 164 262 193 280 193 c 6
 708 193 l 6
 714 193 722 188 722 182 c 4
 722 164 706 143 690 143 c 6
 270 143 l 6x48
105 63 m 0x88
 75 63 50 88 50 118 c 0
 50 148 75 173 105 173 c 0
 135 173 160 148 160 118 c 0
 160 88 135 63 105 63 c 0x88
EndSplineSet
EndChar

StartChar: uni2255
Encoding: 8789 8789 71
Width: 772
Flags: W
HStem: 63 110<623.847 710.153> 148 50<55.4566 512.896> 319 50<54.2435 512.896> 339 110<623.847 710.153>
VStem: 612 110<74.8467 161.153 350.847 437.153>
LayerCount: 2
Fore
SplineSet
667 173 m 0x88
 697 173 722 148 722 118 c 0
 722 88 697 63 667 63 c 0
 637 63 612 88 612 118 c 0
 612 148 637 173 667 173 c 0x88
502 198 m 2x48
 509 198 516 192 516 186 c 0
 516 177 510 148 492 148 c 2
 64 148 l 2
 58 148 50 153 50 159 c 0
 50 173 66 198 82 198 c 2
 502 198 l 2x48
502 369 m 2x28
 509 369 516 363 516 357 c 0
 516 348 510 319 492 319 c 2
 64 319 l 2
 58 319 50 324 50 330 c 0
 50 348 66 369 82 369 c 2
 502 369 l 2x28
667 449 m 0x18
 697 449 722 424 722 394 c 0
 722 364 697 339 667 339 c 0
 637 339 612 364 612 394 c 0
 612 424 637 449 667 449 c 0x18
EndSplineSet
EndChar

StartChar: uni2256
Encoding: 8790 8790 72
Width: 200
Flags: W
HStem: 149 110<56.8467 143.153>
VStem: 45 110<160.847 247.153>
LayerCount: 2
Fore
SplineSet
100 149 m 0
 70 149 45 174 45 204 c 0
 45 234 70 259 100 259 c 0
 130 259 155 234 155 204 c 0
 155 174 130 149 100 149 c 0
EndSplineSet
EndChar

StartChar: uni2257
Encoding: 8791 8791 73
Width: 200
Flags: W
HStem: 149 110<56.8467 143.153>
VStem: 45 110<160.847 247.153>
LayerCount: 2
Fore
SplineSet
100 149 m 0
 70 149 45 174 45 204 c 0
 45 234 70 259 100 259 c 0
 130 259 155 234 155 204 c 0
 155 174 130 149 100 149 c 0
EndSplineSet
EndChar

StartChar: uni2258
Encoding: 8792 8792 74
Width: 200
Flags: W
HStem: 149 110<56.8467 143.153>
VStem: 45 110<160.847 247.153>
LayerCount: 2
Fore
SplineSet
100 149 m 0
 70 149 45 174 45 204 c 0
 45 234 70 259 100 259 c 0
 130 259 155 234 155 204 c 0
 155 174 130 149 100 149 c 0
EndSplineSet
EndChar

StartChar: uni2259
Encoding: 8793 8793 75
Width: 200
Flags: W
HStem: 149 110<56.8467 143.153>
VStem: 45 110<160.847 247.153>
LayerCount: 2
Fore
SplineSet
100 149 m 0
 70 149 45 174 45 204 c 0
 45 234 70 259 100 259 c 0
 130 259 155 234 155 204 c 0
 155 174 130 149 100 149 c 0
EndSplineSet
EndChar

StartChar: uni225A
Encoding: 8794 8794 76
Width: 200
Flags: W
HStem: 149 110<56.8467 143.153>
VStem: 45 110<160.847 247.153>
LayerCount: 2
Fore
SplineSet
100 149 m 0
 70 149 45 174 45 204 c 0
 45 234 70 259 100 259 c 0
 130 259 155 234 155 204 c 0
 155 174 130 149 100 149 c 0
EndSplineSet
EndChar

StartChar: uni225B
Encoding: 8795 8795 77
Width: 200
Flags: W
HStem: 149 110<56.8467 143.153>
VStem: 45 110<160.847 247.153>
LayerCount: 2
Fore
SplineSet
100 149 m 0
 70 149 45 174 45 204 c 0
 45 234 70 259 100 259 c 0
 130 259 155 234 155 204 c 0
 155 174 130 149 100 149 c 0
EndSplineSet
EndChar

StartChar: uni225C
Encoding: 8796 8796 78
Width: 200
Flags: W
HStem: 149 110<56.8467 143.153>
VStem: 45 110<160.847 247.153>
LayerCount: 2
Fore
SplineSet
100 149 m 0
 70 149 45 174 45 204 c 0
 45 234 70 259 100 259 c 0
 130 259 155 234 155 204 c 0
 155 174 130 149 100 149 c 0
EndSplineSet
EndChar

StartChar: uni225D
Encoding: 8797 8797 79
Width: 200
Flags: W
HStem: 149 110<56.8467 143.153>
VStem: 45 110<160.847 247.153>
LayerCount: 2
Fore
SplineSet
100 149 m 0
 70 149 45 174 45 204 c 0
 45 234 70 259 100 259 c 0
 130 259 155 234 155 204 c 0
 155 174 130 149 100 149 c 0
EndSplineSet
EndChar

StartChar: uni225E
Encoding: 8798 8798 80
Width: 200
Flags: W
HStem: 149 110<56.8467 143.153>
VStem: 45 110<160.847 247.153>
LayerCount: 2
Fore
SplineSet
100 149 m 0
 70 149 45 174 45 204 c 0
 45 234 70 259 100 259 c 0
 130 259 155 234 155 204 c 0
 155 174 130 149 100 149 c 0
EndSplineSet
EndChar

StartChar: notequal
Encoding: 8800 8800 81
Width: 566
Flags: W
HStem: 143 50<53.1042 211 287 511.757> 314 50<53.1042 307 383 510.543>
LayerCount: 2
Fore
SplineSet
502 193 m 2
 508 193 516 188 516 182 c 0
 516 164 500 143 484 143 c 2
 259 143 l 1
 177 -5 l 6
 169 -19 155 -20 139 -20 c 4
 132 -20 125 -11 129 -5 c 6
 211 143 l 1
 64 143 l 2
 57 143 50 149 50 155 c 0
 50 164 56 193 74 193 c 2
 239 193 l 1
 307 314 l 1
 64 314 l 2
 57 314 50 320 50 326 c 0
 50 335 56 364 74 364 c 2
 335 364 l 1
 402 485 l 6
 411 500 426 502 443 502 c 4
 450 502 454 491 450 485 c 6
 383 364 l 1
 502 364 l 2
 508 364 516 359 516 353 c 0
 516 339 500 314 484 314 c 2
 355 314 l 1
 287 193 l 1
 502 193 l 2
EndSplineSet
EndChar

StartChar: equivalence
Encoding: 8801 8801 82
Width: 566
Flags: W
HStem: 97 50<53.1042 510.543> 225 50<53.1042 510.543> 353 50<53.1042 510.543>
CounterMasks: 1 e0
LayerCount: 2
Fore
SplineSet
64 97 m 2
 57 97 50 103 50 109 c 0
 50 118 56 147 74 147 c 2
 502 147 l 2
 508 147 516 142 516 136 c 0
 516 122 500 97 484 97 c 2
 64 97 l 2
64 225 m 6
 57 225 50 231 50 237 c 4
 50 246 56 275 74 275 c 6
 502 275 l 6
 508 275 516 270 516 264 c 4
 516 250 500 225 484 225 c 6
 64 225 l 6
64 353 m 2
 57 353 50 359 50 365 c 0
 50 374 56 403 74 403 c 2
 502 403 l 2
 508 403 516 398 516 392 c 0
 516 378 500 353 484 353 c 2
 64 353 l 2
EndSplineSet
EndChar

StartChar: uni2262
Encoding: 8802 8802 83
Width: 566
Flags: HW
HStem: 97 50<53.1042 510.543> 225 50<53.1042 510.543> 353 50<53.1042 510.543>
LayerCount: 2
Fore
SplineSet
64 97 m 2
 57 97 50 103 50 109 c 0
 50 118 56 147 74 147 c 2
 502 147 l 2
 508 147 516 142 516 136 c 0
 516 122 500 97 484 97 c 2
 64 97 l 2
64 225 m 2
 57 225 50 231 50 237 c 0
 50 246 56 275 74 275 c 2
 502 275 l 2
 508 275 516 270 516 264 c 0
 516 250 500 225 484 225 c 2
 64 225 l 2
64 353 m 2
 57 353 50 359 50 365 c 0
 50 374 56 403 74 403 c 2
 502 403 l 2
 508 403 516 398 516 392 c 0
 516 378 500 353 484 353 c 2
 64 353 l 2
174 -54 m 6
 168 -68 153 -69 138 -69 c 4
 125 -69 119 -62 122 -54 c 6
 371 528 l 6
 377 543 393 545 410 545 c 4
 423 545 427 537 423 528 c 6
 174 -54 l 6
EndSplineSet
EndChar

StartChar: uni2263
Encoding: 8803 8803 84
Width: 566
Flags: HW
HStem: 65 50<53.1042 511.757> 172 50<53.1042 511.757> 279 50<53.1042 510.543> 386 50<53.1042 510.543>
LayerCount: 2
Fore
SplineSet
64 65 m 2
 57 65 50 71 50 77 c 0
 50 86 56 115 74 115 c 2
 502 115 l 2
 508 115 516 110 516 104 c 0
 516 86 500 65 484 65 c 2
 64 65 l 2
64 386 m 2
 57 386 50 392 50 398 c 0
 50 407 56 436 74 436 c 2
 502 436 l 2
 508 436 516 431 516 425 c 0
 516 411 500 386 484 386 c 2
 64 386 l 2
64 172 m 6
 57 172 50 178 50 184 c 4
 50 193 56 222 74 222 c 6
 502 222 l 6
 508 222 516 217 516 211 c 4
 516 193 500 172 484 172 c 6
 64 172 l 6
64 279 m 2
 57 279 50 285 50 291 c 0
 50 300 56 329 74 329 c 2
 502 329 l 2
 508 329 516 324 516 318 c 0
 516 304 500 279 484 279 c 2
 64 279 l 2
EndSplineSet
EndChar

StartChar: lessequal
Encoding: 8804 8804 85
Width: 590
Flags: HW
HStem: 408 61<475 496.458>
LayerCount: 2
Fore
SplineSet
496 81 m 4
 495 81 494 82 493 82 c 6
 94 262 l 6
 76 269 53 283 53 289 c 4
 53 298 66 327 86 335 c 6
 493 515 l 6
 497 515 506 518 506 506 c 4
 506 494 497 464 475 455 c 6
 132 301 l 6
 129 300 130 297 133 296 c 6
 483 142 l 6
 502 134 507 103 507 94 c 4
 507 89 502 81 496 81 c 4
493 48 m 2
 500 48 507 42 507 36 c 0
 507 27 504 -2 483 -2 c 2
 61 -2 l 2
 55 -2 48 3 48 9 c 0
 48 31 61 48 78 48 c 2
 493 48 l 2
EndSplineSet
EndChar

StartChar: greaterequal
Encoding: 8805 8805 86
Width: 590
Flags: HW
HStem: -1 49<50.7275 504.943>
LayerCount: 2
Fore
SplineSet
64 515 m 0
 65 515 66 514 67 514 c 2
 466 334 l 2
 484 327 507 313 507 307 c 0
 507 298 494 269 474 261 c 2
 67 81 l 2
 63 81 54 78 54 90 c 0
 54 102 63 132 85 141 c 2
 428 295 l 2
 431 296 430 299 427 300 c 2
 77 454 l 2
 58 462 53 493 53 502 c 0
 53 507 58 515 64 515 c 0
493 48 m 2
 500 48 507 42 507 36 c 0
 507 27 504 -2 483 -2 c 6
 61 -2 l 6
 55 -2 48 3 48 9 c 4
 48 31 61 48 78 48 c 2
 493 48 l 2
EndSplineSet
EndChar

StartChar: uni2266
Encoding: 8806 8806 87
Width: 590
Flags: W
HStem: -109 50<50.9294 504.733> -2 50<50.9294 504.733>
LayerCount: 2
Fore
SplineSet
493 -59 m 2
 500 -59 507 -65 507 -71 c 0
 507 -80 504 -109 483 -109 c 2
 61 -109 l 2
 55 -109 48 -104 48 -98 c 0
 48 -76 61 -59 78 -59 c 2
 493 -59 l 2
496 81 m 0
 495 81 494 82 493 82 c 2
 94 262 l 2
 76 269 53 283 53 289 c 0
 53 298 66 327 86 335 c 2
 493 515 l 2
 497 515 506 518 506 506 c 0
 506 494 497 464 475 455 c 2
 132 301 l 2
 129 300 130 297 133 296 c 2
 483 142 l 2
 502 134 507 103 507 94 c 0
 507 89 502 81 496 81 c 0
493 48 m 2
 500 48 507 42 507 36 c 0
 507 27 504 -2 483 -2 c 2
 61 -2 l 2
 55 -2 48 3 48 9 c 0
 48 31 61 48 78 48 c 2
 493 48 l 2
EndSplineSet
EndChar

StartChar: uni2267
Encoding: 8807 8807 88
Width: 590
Flags: W
HStem: -109 50<50.9294 504.733> -2 50<50.9294 504.733>
LayerCount: 2
Fore
SplineSet
493 -59 m 2
 500 -59 507 -65 507 -71 c 0
 507 -80 504 -109 483 -109 c 2
 61 -109 l 2
 55 -109 48 -104 48 -98 c 0
 48 -76 61 -59 78 -59 c 2
 493 -59 l 2
64 515 m 4
 65 515 66 514 67 514 c 6
 466 334 l 6
 484 327 507 313 507 307 c 4
 507 298 494 269 474 261 c 6
 67 81 l 6
 63 81 54 78 54 90 c 4
 54 102 63 132 85 141 c 6
 428 295 l 6
 431 296 430 299 427 300 c 6
 77 454 l 6
 58 462 53 493 53 502 c 4
 53 507 58 515 64 515 c 4
493 48 m 2
 500 48 507 42 507 36 c 0
 507 27 504 -2 483 -2 c 2
 61 -2 l 2
 55 -2 48 3 48 9 c 0
 48 31 61 48 78 48 c 2
 493 48 l 2
EndSplineSet
EndChar

StartChar: uni2268
Encoding: 8808 8808 89
Width: 590
Flags: HW
HStem: -109 50<50.9294 504.733> -2 50<50.9294 504.733>
LayerCount: 2
Fore
SplineSet
226 -153 m 6
 218 -167 204 -168 188 -168 c 4
 181 -168 174 -159 178 -153 c 6
 312 87 l 6
 321 102 336 104 353 104 c 4
 360 104 364 93 360 87 c 6
 226 -153 l 6
493 -59 m 2
 500 -59 507 -65 507 -71 c 0
 507 -80 504 -109 483 -109 c 2
 61 -109 l 2
 55 -109 48 -104 48 -98 c 0
 48 -76 61 -59 78 -59 c 2
 493 -59 l 2
496 81 m 0
 495 81 494 82 493 82 c 2
 94 262 l 2
 76 269 53 283 53 289 c 0
 53 298 66 327 86 335 c 2
 493 515 l 2
 497 515 506 518 506 506 c 0
 506 494 497 464 475 455 c 2
 132 301 l 2
 129 300 130 297 133 296 c 2
 483 142 l 2
 502 134 507 103 507 94 c 0
 507 89 502 81 496 81 c 0
493 48 m 2
 500 48 507 42 507 36 c 0
 507 27 504 -2 483 -2 c 2
 61 -2 l 2
 55 -2 48 3 48 9 c 0
 48 31 61 48 78 48 c 2
 493 48 l 2
EndSplineSet
EndChar

StartChar: uni2269
Encoding: 8809 8809 90
Width: 590
Flags: W
HStem: -109 50<50.9294 504.733> -2 50<50.9294 78 483 504.733>
LayerCount: 2
Fore
SplineSet
226 -153 m 6
 218 -167 204 -168 188 -168 c 4
 181 -168 174 -159 178 -153 c 6
 312 87 l 6
 321 102 336 104 353 104 c 4
 360 104 364 93 360 87 c 6
 226 -153 l 6
493 -59 m 2
 500 -59 507 -65 507 -71 c 0
 507 -80 504 -109 483 -109 c 2
 61 -109 l 2
 55 -109 48 -104 48 -98 c 0
 48 -76 61 -59 78 -59 c 2
 493 -59 l 2
64 515 m 0
 65 515 66 514 67 514 c 2
 466 334 l 2
 484 327 507 313 507 307 c 0
 507 298 494 269 474 261 c 2
 67 81 l 2
 63 81 54 78 54 90 c 0
 54 102 63 132 85 141 c 2
 428 295 l 2
 431 296 430 299 427 300 c 2
 77 454 l 2
 58 462 53 493 53 502 c 0
 53 507 58 515 64 515 c 0
493 48 m 2
 500 48 507 42 507 36 c 0
 507 27 504 -2 483 -2 c 2
 61 -2 l 2
 55 -2 48 3 48 9 c 0
 48 31 61 48 78 48 c 2
 493 48 l 2
EndSplineSet
EndChar

StartChar: uni226A
Encoding: 8810 8810 91
Width: 857
Flags: W
HStem: 408 61<475 496.458 772 793.458>
LayerCount: 2
Fore
SplineSet
487 -2 m 2
 94 195 l 2
 77 203 53 216 53 222 c 0
 53 231 66 258 86 268 c 2
 489 466 l 2
 492 468 496 469 497 469 c 0
 503 469 506 465 506 459 c 0
 506 447 495 418 475 408 c 2
 132 236 l 6
 129 235 130 232 133 231 c 6
 483 57 l 6
 502 48 507 16 507 7 c 0
 507 -6 494 -5 487 -2 c 2
784 -2 m 2
 391 195 l 2
 374 203 350 216 350 222 c 0
 350 231 363 258 383 268 c 2
 786 466 l 2
 789 468 793 469 794 469 c 0
 800 469 803 465 803 459 c 0
 803 447 792 418 772 408 c 2
 429 234 l 2
 426 233 427 230 430 229 c 2
 780 55 l 2
 799 46 804 16 804 7 c 0
 804 -6 791 -5 784 -2 c 2
EndSplineSet
EndChar

StartChar: uni226B
Encoding: 8811 8811 92
Width: 857
Flags: W
HStem: -2 61<63.5423 85 360.542 382>
LayerCount: 2
Fore
SplineSet
73 469 m 2
 466 272 l 2
 483 264 507 251 507 245 c 0
 507 236 494 209 474 199 c 2
 71 1 l 2
 68 -1 64 -2 63 -2 c 0
 57 -2 54 2 54 8 c 0
 54 20 65 49 85 59 c 2
 428 233 l 2
 431 234 430 237 427 238 c 2
 77 412 l 2
 58 421 53 451 53 460 c 0
 53 473 66 472 73 469 c 2
370 469 m 2
 763 272 l 2
 780 264 804 251 804 245 c 0
 804 236 791 209 771 199 c 2
 368 1 l 2
 365 -1 361 -2 360 -2 c 0
 354 -2 351 2 351 8 c 0
 351 20 362 49 382 59 c 2
 725 233 l 2
 728 234 727 237 724 238 c 2
 374 412 l 2
 355 421 350 451 350 460 c 0
 350 473 363 472 370 469 c 2
EndSplineSet
EndChar

StartChar: uni226C
Encoding: 8812 8812 93
Width: 315
Flags: W
VStem: 40 55<123.565 411.858> 220 55<123.565 411.858>
LayerCount: 2
Fore
SplineSet
78 -214 m 0
 65 -214 51 -206 51 -192 c 0
 51 -190 65 -175 66 -173 c 0
 127 -102 220 111 220 281 c 0
 220 451 124 599 63 670 c 0
 61 672 50 687 50 689 c 0
 50 698 65 705 72 705 c 0
 82 705 93 700 99 694 c 0
 170 623 275 439 275 269 c 0
 275 99 166 -136 95 -207 c 0
 90 -212 84 -214 78 -214 c 0
237 -214 m 0
 231 -214 225 -212 220 -207 c 0
 149 -136 40 99 40 269 c 0
 40 439 145 623 216 694 c 0
 222 700 233 705 243 705 c 0
 250 705 265 698 265 689 c 0
 265 687 254 672 252 670 c 0
 191 599 95 451 95 281 c 0
 95 111 188 -102 249 -173 c 0
 250 -175 264 -190 264 -192 c 0
 264 -206 250 -214 237 -214 c 0
EndSplineSet
EndChar

StartChar: uni226D
Encoding: 8813 8813 94
Width: 200
Flags: W
HStem: 149 110<56.8467 143.153>
VStem: 45 110<160.847 247.153>
LayerCount: 2
Fore
SplineSet
100 149 m 0
 70 149 45 174 45 204 c 0
 45 234 70 259 100 259 c 0
 130 259 155 234 155 204 c 0
 155 174 130 149 100 149 c 0
EndSplineSet
EndChar

StartChar: uni226E
Encoding: 8814 8814 95
Width: 560
Flags: HW
HStem: 408 61<475 496.458>
LayerCount: 2
Fore
SplineSet
483 55 m 2
 502 46 507 16 507 7 c 0
 507 -6 494 -5 487 -2 c 2
 244 120 l 1
 164 -67 l 6
 158 -81 143 -82 128 -82 c 4
 115 -82 109 -75 112 -67 c 6
 201 141 l 1
 94 195 l 2
 77 203 53 216 53 222 c 0
 53 231 66 258 86 268 c 2
 300 373 l 1
 361 515 l 6
 367 530 383 532 400 532 c 4
 413 532 417 524 413 515 c 6
 366 406 l 1
 489 466 l 2
 492 468 496 469 497 469 c 0
 503 469 506 465 506 459 c 0
 506 447 495 418 475 408 c 2
 337 338 l 1
 263 164 l 1
 483 55 l 2
133 229 m 2
 220 186 l 1
 271 304 l 1
 132 234 l 2
 129 233 130 230 133 229 c 2
EndSplineSet
EndChar

StartChar: uni226F
Encoding: 8815 8815 96
Width: 560
Flags: HW
HStem: -4 61<63.5423 85>
LayerCount: 2
Fore
SplineSet
466 270 m 2
 483 262 507 249 507 243 c 0
 507 234 494 207 474 197 c 2
 225 74 l 1
 164 -67 l 2
 158 -81 143 -82 128 -82 c 0
 115 -82 109 -75 112 -67 c 2
 159 42 l 1
 71 -1 l 2
 68 -3 64 -4 63 -4 c 0
 57 -4 54 0 54 6 c 0
 54 18 65 47 85 57 c 2
 187 109 l 1
 274 312 l 1
 77 410 l 2
 58 419 53 449 53 458 c 0
 53 471 66 470 73 467 c 2
 293 357 l 1
 361 515 l 2
 367 530 383 532 400 532 c 0
 413 532 417 524 413 515 c 2
 336 335 l 1
 466 270 l 2
428 231 m 2
 431 232 430 235 427 236 c 2
 317 291 l 1
 254 143 l 1
 428 231 l 2
EndSplineSet
EndChar

StartChar: uni2270
Encoding: 8816 8816 97
Width: 590
Flags: HW
HStem: 408 61<475 496.458>
LayerCount: 2
Fore
SplineSet
187 -69 m 6
 180.886439706 -83.3769439873 166 -84 151 -84 c 4
 138 -84 131.506536975 -77.2153965642 135 -69 c 6
 408 573 l 6
 414.473676424 588.223810492 430 590 447 590 c 4
 460 590 463.853579156 582.062263069 460 573 c 6
 187 -69 l 6
496 81 m 0
 495 81 494 82 493 82 c 2
 94 262 l 2
 76 269 53 283 53 289 c 0
 53 298 66 327 86 335 c 2
 493 515 l 2
 497 515 506 518 506 506 c 0
 506 494 497 464 475 455 c 2
 132 301 l 2
 129 300 130 297 133 296 c 2
 483 142 l 2
 502 134 507 103 507 94 c 0
 507 89 502 81 496 81 c 0
493 48 m 2
 500 48 507 42 507 36 c 0
 507 27 504 -2 483 -2 c 2
 61 -2 l 2
 55 -2 48 3 48 9 c 0
 48 31 61 48 78 48 c 2
 493 48 l 2
EndSplineSet
EndChar

StartChar: uni2271
Encoding: 8817 8817 98
Width: 590
Flags: HW
HStem: -1 49<50.7275 504.943>
LayerCount: 2
Fore
SplineSet
187 -69 m 6
 180.886439706 -83.3769439873 166 -84 151 -84 c 4
 138 -84 131.506536975 -77.2153965642 135 -69 c 6
 408 573 l 6
 414.473676424 588.223810492 430 590 447 590 c 4
 460 590 463.853579156 582.062263069 460 573 c 6
 187 -69 l 6
64 515 m 0
 65 515 66 514 67 514 c 2
 466 334 l 2
 484 327 507 313 507 307 c 0
 507 298 494 269 474 261 c 2
 67 81 l 2
 63 81 54 78 54 90 c 0
 54 102 63 132 85 141 c 2
 428 295 l 2
 431 296 430 299 427 300 c 2
 77 454 l 2
 58 462 53 493 53 502 c 0
 53 507 58 515 64 515 c 0
493 48 m 2
 500 48 507 42 507 36 c 0
 507 27 504 -2 483 -2 c 2
 61 -2 l 2
 55 -2 48 3 48 9 c 0
 48 31 61 48 78 48 c 2
 493 48 l 2
EndSplineSet
EndChar

StartChar: uni2272
Encoding: 8818 8818 99
Width: 590
Flags: HW
HStem: -37 51<314.162 444.999> 31 53<111.946 255.555> 81 4<493 501>
LayerCount: 2
Fore
SplineSet
386 -37 m 0xa0
 303 -37 257 31 177 31 c 0
 109 31 74 -32 69 -32 c 0
 61 -32 50 -25 50 -18 c 0
 50 9 101 84 188 84 c 0xc0
 269 84 311 14 386 14 c 0
 448 14 491 85 496 85 c 0
 501 85 516 78 516 65 c 0
 516 24 452 -37 386 -37 c 0xa0
496 81 m 4xa0
 495 81 494 82 493 82 c 6
 94 262 l 6
 76 269 53 283 53 289 c 4
 53 298 66 327 86 335 c 6
 493 515 l 6
 497 515 506 518 506 506 c 4
 506 494 497 464 475 455 c 6
 132 301 l 6
 129 300 130 297 133 296 c 6
 483 142 l 6
 502 134 507 103 507 94 c 4
 507 89 502 81 496 81 c 4xa0
EndSplineSet
EndChar

StartChar: uni2273
Encoding: 8819 8819 100
Width: 590
Flags: HW
HStem: -1 49<50.7275 504.943>
LayerCount: 2
Fore
SplineSet
386 -37 m 4xa0
 303 -37 257 31 177 31 c 4
 109 31 74 -32 69 -32 c 4
 61 -32 50 -25 50 -18 c 4
 50 9 101 84 188 84 c 4xc0
 269 84 311 14 386 14 c 4
 448 14 491 85 496 85 c 4
 501 85 516 78 516 65 c 4
 516 24 452 -37 386 -37 c 4xa0
64 515 m 0
 65 515 66 514 67 514 c 2
 466 334 l 2
 484 327 507 313 507 307 c 0
 507 298 494 269 474 261 c 2
 67 81 l 2
 63 81 54 78 54 90 c 0
 54 102 63 132 85 141 c 2
 428 295 l 2
 431 296 430 299 427 300 c 2
 77 454 l 2
 58 462 53 493 53 502 c 0
 53 507 58 515 64 515 c 0
EndSplineSet
EndChar

StartChar: uni2274
Encoding: 8820 8820 101
Width: 590
Flags: HW
HStem: -37 51<314.162 444.999> 31 53<111.946 255.555> 81 4<493 501>
LayerCount: 2
Fore
SplineSet
386 -37 m 4xa0
 303 -37 257 31 177 31 c 4
 109 31 74 -32 69 -32 c 4
 61 -32 50 -25 50 -18 c 4
 50 9 101 84 188 84 c 4xc0
 269 84 311 14 386 14 c 4
 448 14 491 85 496 85 c 4
 501 85 516 78 516 65 c 4
 516 24 452 -37 386 -37 c 4xa0
496 81 m 0xa0
 495 81 494 82 493 82 c 2
 94 262 l 2
 76 269 53 283 53 289 c 0
 53 298 66 327 86 335 c 2
 493 515 l 2
 497 515 506 518 506 506 c 0
 506 494 497 464 475 455 c 2
 132 301 l 2
 129 300 130 297 133 296 c 2
 483 142 l 2
 502 134 507 103 507 94 c 0
 507 89 502 81 496 81 c 0xa0
187 -69 m 6
 180.886439706 -83.3769439873 166 -84 151 -84 c 4
 138 -84 131.506536975 -77.2153965642 135 -69 c 6
 408 573 l 6
 414.473676424 588.223810492 430 590 447 590 c 4
 460 590 463.853579156 582.062263069 460 573 c 6
 187 -69 l 6
EndSplineSet
EndChar

StartChar: uni2275
Encoding: 8821 8821 102
Width: 590
Flags: HW
HStem: -1 49<50.7275 504.943>
LayerCount: 2
Fore
SplineSet
386 -37 m 4xa0
 303 -37 257 31 177 31 c 4
 109 31 74 -32 69 -32 c 4
 61 -32 50 -25 50 -18 c 4
 50 9 101 84 188 84 c 4xc0
 269 84 311 14 386 14 c 4
 448 14 491 85 496 85 c 4
 501 85 516 78 516 65 c 4
 516 24 452 -37 386 -37 c 4xa0
64 515 m 0
 65 515 66 514 67 514 c 2
 466 334 l 2
 484 327 507 313 507 307 c 0
 507 298 494 269 474 261 c 2
 67 81 l 2
 63 81 54 78 54 90 c 0
 54 102 63 132 85 141 c 2
 428 295 l 2
 431 296 430 299 427 300 c 2
 77 454 l 2
 58 462 53 493 53 502 c 0
 53 507 58 515 64 515 c 0
187 -69 m 6
 180.886439706 -83.3769439873 166 -84 151 -84 c 4
 138 -84 131.506536975 -77.2153965642 135 -69 c 6
 408 573 l 6
 414.473676424 588.223810492 430 590 447 590 c 4
 460 590 463.853579156 582.062263069 460 573 c 6
 187 -69 l 6
EndSplineSet
EndChar

StartChar: uni2276
Encoding: 8822 8822 103
Width: 590
Flags: HW
LayerCount: 2
Fore
SplineSet
64 204 m 4xa0
 65 204 66 203 67 203 c 6
 466 23 l 6
 484 16 507 2 507 -4 c 4
 507 -13 494 -42 474 -50 c 6
 67 -230 l 6
 63 -230 54 -233 54 -221 c 4
 54 -209 63 -179 85 -170 c 6
 428 -16 l 6
 431 -15 430 -12 427 -11 c 6
 77 143 l 6
 58 151 53 182 53 191 c 4
 53 196 58 204 64 204 c 4xa0
496 81 m 0xa0
 495 81 494 82 493 82 c 2
 94 262 l 2
 76 269 53 283 53 289 c 0
 53 298 66 327 86 335 c 2
 493 515 l 2
 497 515 506 518 506 506 c 0
 506 494 497 464 475 455 c 2
 132 301 l 2
 129 300 130 297 133 296 c 2
 483 142 l 2
 502 134 507 103 507 94 c 0
 507 89 502 81 496 81 c 0xa0
EndSplineSet
EndChar

StartChar: uni2277
Encoding: 8823 8823 104
Width: 590
Flags: HW
LayerCount: 2
Fore
SplineSet
64 832 m 4xa0
 65 832 66 831 67 831 c 6
 466 651 l 6
 484 644 507 630 507 624 c 4
 507 615 494 586 474 578 c 6
 67 398 l 6
 63 398 54 395 54 407 c 4
 54 419 63 449 85 458 c 6
 428 612 l 6
 431 613 430 616 427 617 c 6
 77 771 l 6
 58 779 53 810 53 819 c 4
 53 824 58 832 64 832 c 4xa0
496 81 m 0xa0
 495 81 494 82 493 82 c 2
 94 262 l 2
 76 269 53 283 53 289 c 0
 53 298 66 327 86 335 c 2
 493 515 l 2
 497 515 506 518 506 506 c 0
 506 494 497 464 475 455 c 2
 132 301 l 2
 129 300 130 297 133 296 c 2
 483 142 l 2
 502 134 507 103 507 94 c 0
 507 89 502 81 496 81 c 0xa0
EndSplineSet
EndChar

StartChar: uni2278
Encoding: 8824 8824 105
Width: 200
Flags: W
HStem: 149 110<56.8467 143.153>
VStem: 45 110<160.847 247.153>
LayerCount: 2
Fore
SplineSet
100 149 m 0
 70 149 45 174 45 204 c 0
 45 234 70 259 100 259 c 0
 130 259 155 234 155 204 c 0
 155 174 130 149 100 149 c 0
EndSplineSet
EndChar

StartChar: uni2279
Encoding: 8825 8825 106
Width: 200
Flags: W
HStem: 149 110<56.8467 143.153>
VStem: 45 110<160.847 247.153>
LayerCount: 2
Fore
SplineSet
100 149 m 0
 70 149 45 174 45 204 c 0
 45 234 70 259 100 259 c 0
 130 259 155 234 155 204 c 0
 155 174 130 149 100 149 c 0
EndSplineSet
EndChar

StartChar: uni227A
Encoding: 8826 8826 107
Width: 560
Flags: HW
LayerCount: 2
Fore
SplineSet
233 236 m 0
 227 234 227 233 233 231 c 0
 271 221 304 210 336 195 c 0
 405 163 461 110 504 27 c 0
 507 21 511 17 511 10 c 0
 511 4 507 -2 498 -2 c 0
 489 -2 459 4 450 22 c 0
 383 155 249 190 84 208 c 0
 76 209 69 216 69 222 c 0
 69 240 79 260 98 262 c 0
 257 281 385 317 450 446 c 0
 459 464 489 470 498 470 c 0
 507 470 511 464 511 458 c 0
 511 451 507 447 504 441 c 0
 458 352 404 304 339 273 c 0
 307 257 272 246 233 236 c 0
EndSplineSet
EndChar

StartChar: uni227C
Encoding: 8828 8828 109
Width: 560
Flags: HW
LayerCount: 2
Fore
SplineSet
99 100 m 4
 80 102 69 122 69 141 c 4
 69 147 77 153 85 152 c 4
 306 124 371 94 459 -71 c 4
 463 -78 461 -91 448 -91 c 4
 439 -91 412 -83 400 -67 c 4
 307 62 250 83 99 100 c 4
254 236 m 0
 248 235 247 233 254 232 c 0
 302 222 343 208 378 186 c 0
 436 150 474 112 509 38 c 0
 512 31 511 18 498 18 c 0
 489 18 461 25 450 42 c 0
 364 175 249 191 84 208 c 0
 76 209 69 216 69 222 c 0
 69 240 79 260 98 262 c 0
 255 279 366 297 450 426 c 0
 461 443 489 450 498 450 c 0
 511 450 513 437 509 430 c 0
 464 351 420 302 358 272 c 0
 327 257 293 245 254 236 c 0
EndSplineSet
EndChar

StartChar: uni227E
Encoding: 8830 8830 111
Width: 560
Flags: HW
LayerCount: 2
Fore
SplineSet
249 300 m 4
 243 299 242 297 249 296 c 4
 297 286 338 272 373 250 c 4
 431 214 469 176 504 102 c 4
 507 95 506 82 493 82 c 4
 484 82 456 89 445 106 c 4
 359 239 244 255 79 272 c 4
 71 273 64 280 64 286 c 4
 64 304 74 324 93 326 c 4
 250 343 361 361 445 490 c 4
 456 507 484 514 493 514 c 4
 506 514 508 501 504 494 c 4
 459 415 415 366 353 336 c 4
 322 321 288 309 249 300 c 4
386 -37 m 0
 303 -37 257 31 177 31 c 0
 109 31 74 -32 69 -32 c 0
 61 -32 50 -25 50 -18 c 0
 50 9 101 84 188 84 c 0
 269 84 311 14 386 14 c 0
 448 14 491 85 496 85 c 0
 501 85 516 78 516 65 c 0
 516 24 452 -37 386 -37 c 0
EndSplineSet
EndChar

StartChar: angleleft
Encoding: 9001 9001 112
Width: 307
Flags: W
VStem: 220 40<-213.301 -146.184 652.077 703.916>
LayerCount: 2
Fore
SplineSet
231 -214 m 0
 225 -214 222 -212 220 -205 c 0
 158 -11 139 37 49 244 c 0
 45 254 40 263 40 272 c 0
 40 275 42 278 43 280 c 0
 121 438 158 528 216 694 c 0
 219 702 243 705 253 705 c 0
 260 705 265 701 265 692 c 0
 265 686 262 675 260 670 c 0
 182 474 175 435 104 278 c 0
 101 272 102 270 104 264 c 0
 148 155 196 31 256 -173 c 0
 257 -176 260 -190 260 -192 c 0
 260 -206 252 -214 231 -214 c 0
EndSplineSet
EndChar

StartChar: angleright
Encoding: 9002 9002 113
Width: 307
Flags: W
VStem: 42 49<-212.629 -144.031 626.672 703.707>
LayerCount: 2
Fore
SplineSet
76 705 m 0
 82 705 85 703 87 696 c 0
 149 502 168 454 258 247 c 0
 262 237 267 228 267 219 c 0
 267 216 265 213 264 211 c 0
 186 53 149 -37 91 -203 c 0
 88 -211 64 -214 54 -214 c 0
 47 -214 42 -210 42 -201 c 0
 42 -195 45 -184 47 -179 c 0
 125 17 132 56 203 213 c 0
 206 219 205 221 203 227 c 0
 159 336 111 460 51 664 c 0
 50 667 47 681 47 683 c 0
 47 697 55 705 76 705 c 0
EndSplineSet
EndChar

StartChar: filledbox
Encoding: 9632 9632 114
Width: 655
Flags: W
HStem: -5 658<54.3245 603.952>
VStem: 50 555<-4.5575 652.146>
LayerCount: 2
Fore
SplineSet
79 -5 m 2
 62 -5 50 0 50 8 c 0
 50 105 53 185 54 626 c 0
 54 648 63 653 83 653 c 2
 576 653 l 2
 595 653 605 648 605 625 c 2
 605 30 l 2
 605 0 593 -5 576 -5 c 2
 533 -5 l 1
 453 -5 l 1
 79 -5 l 2
EndSplineSet
EndChar

StartChar: uni25A1
Encoding: 9633 9633 115
Width: 655
Flags: W
HStem: -5 80<135.385 520.751> 579 74<133 524.953>
VStem: 50 83<76.8767 579> 525 80<80.1424 578.789>
LayerCount: 2
Fore
SplineSet
79 -5 m 2
 62 -5 50 0 50 8 c 0
 50 105 53 185 54 626 c 0
 54 648 63 653 83 653 c 2
 576 653 l 2
 595 653 605 648 605 625 c 2
 605 30 l 2
 605 0 593 -5 576 -5 c 2
 533 -5 l 1
 453 -5 l 1
 79 -5 l 2
169 75 m 0
 176 75 351 78 460 76 c 0
 516 75 525 84 525 132 c 2
 525 555 l 2
 525 575 518 579 496 579 c 2
 148 579 l 2
 137 579 133 572 133 563 c 2
 133 115 l 2
 133 88 144 75 169 75 c 0
EndSplineSet
EndChar

StartChar: uni25A2
Encoding: 9634 9634 116
Width: 200
Flags: W
HStem: 149 110<56.8467 143.153>
VStem: 45 110<160.847 247.153>
LayerCount: 2
Fore
SplineSet
100 149 m 0
 70 149 45 174 45 204 c 0
 45 234 70 259 100 259 c 0
 130 259 155 234 155 204 c 0
 155 174 130 149 100 149 c 0
EndSplineSet
EndChar

StartChar: uni25A3
Encoding: 9635 9635 117
Width: 200
Flags: W
HStem: 149 110<56.8467 143.153>
VStem: 45 110<160.847 247.153>
LayerCount: 2
Fore
SplineSet
100 149 m 0
 70 149 45 174 45 204 c 0
 45 234 70 259 100 259 c 0
 130 259 155 234 155 204 c 0
 155 174 130 149 100 149 c 0
EndSplineSet
EndChar

StartChar: uni25A4
Encoding: 9636 9636 118
Width: 200
Flags: W
HStem: 149 110<56.8467 143.153>
VStem: 45 110<160.847 247.153>
LayerCount: 2
Fore
SplineSet
100 149 m 0
 70 149 45 174 45 204 c 0
 45 234 70 259 100 259 c 0
 130 259 155 234 155 204 c 0
 155 174 130 149 100 149 c 0
EndSplineSet
EndChar

StartChar: uni25A5
Encoding: 9637 9637 119
Width: 200
Flags: W
HStem: 149 110<56.8467 143.153>
VStem: 45 110<160.847 247.153>
LayerCount: 2
Fore
SplineSet
100 149 m 0
 70 149 45 174 45 204 c 0
 45 234 70 259 100 259 c 0
 130 259 155 234 155 204 c 0
 155 174 130 149 100 149 c 0
EndSplineSet
EndChar

StartChar: uni25A6
Encoding: 9638 9638 120
Width: 200
Flags: W
HStem: 149 110<56.8467 143.153>
VStem: 45 110<160.847 247.153>
LayerCount: 2
Fore
SplineSet
100 149 m 0
 70 149 45 174 45 204 c 0
 45 234 70 259 100 259 c 0
 130 259 155 234 155 204 c 0
 155 174 130 149 100 149 c 0
EndSplineSet
EndChar

StartChar: uni25A7
Encoding: 9639 9639 121
Width: 200
Flags: W
HStem: 149 110<56.8467 143.153>
VStem: 45 110<160.847 247.153>
LayerCount: 2
Fore
SplineSet
100 149 m 0
 70 149 45 174 45 204 c 0
 45 234 70 259 100 259 c 0
 130 259 155 234 155 204 c 0
 155 174 130 149 100 149 c 0
EndSplineSet
EndChar

StartChar: uni25A8
Encoding: 9640 9640 122
Width: 200
Flags: W
HStem: 149 110<56.8467 143.153>
VStem: 45 110<160.847 247.153>
LayerCount: 2
Fore
SplineSet
100 149 m 0
 70 149 45 174 45 204 c 0
 45 234 70 259 100 259 c 0
 130 259 155 234 155 204 c 0
 155 174 130 149 100 149 c 0
EndSplineSet
EndChar

StartChar: uni25A9
Encoding: 9641 9641 123
Width: 200
Flags: W
HStem: 149 110<56.8467 143.153>
VStem: 45 110<160.847 247.153>
LayerCount: 2
Fore
SplineSet
100 149 m 0
 70 149 45 174 45 204 c 0
 45 234 70 259 100 259 c 0
 130 259 155 234 155 204 c 0
 155 174 130 149 100 149 c 0
EndSplineSet
EndChar

StartChar: H18543
Encoding: 9642 9642 124
Width: 200
Flags: W
HStem: 149 110<56.8467 143.153>
VStem: 45 110<160.847 247.153>
LayerCount: 2
Fore
SplineSet
100 149 m 0
 70 149 45 174 45 204 c 0
 45 234 70 259 100 259 c 0
 130 259 155 234 155 204 c 0
 155 174 130 149 100 149 c 0
EndSplineSet
EndChar

StartChar: H18551
Encoding: 9643 9643 125
Width: 200
Flags: W
HStem: 149 110<56.8467 143.153>
VStem: 45 110<160.847 247.153>
LayerCount: 2
Fore
SplineSet
100 149 m 0
 70 149 45 174 45 204 c 0
 45 234 70 259 100 259 c 0
 130 259 155 234 155 204 c 0
 155 174 130 149 100 149 c 0
EndSplineSet
EndChar

StartChar: filledrect
Encoding: 9644 9644 126
Width: 200
Flags: W
HStem: 149 110<56.8467 143.153>
VStem: 45 110<160.847 247.153>
LayerCount: 2
Fore
SplineSet
100 149 m 0
 70 149 45 174 45 204 c 0
 45 234 70 259 100 259 c 0
 130 259 155 234 155 204 c 0
 155 174 130 149 100 149 c 0
EndSplineSet
EndChar

StartChar: triagup
Encoding: 9650 9650 127
Width: 683
Flags: W
LayerCount: 2
Fore
SplineSet
104 -3 m 0
 100 -3 97 -3 93 -2 c 2
 66 -2 l 2
 49 -2 43 12 59 48 c 0
 135 219 263 498 325 643 c 0
 350 701 371 691 390 637 c 0
 453 459 593 129 628 38 c 0
 638 12 636 1 591 1 c 0
 552 1 128 -3 104 -3 c 0
EndSplineSet
EndChar

StartChar: uni25B3
Encoding: 9651 9651 128
Width: 683
Flags: W
HStem: -3 50<133.009 376.108>
LayerCount: 2
Fore
SplineSet
104 -3 m 0
 100 -3 97 -3 93 -2 c 2
 66 -2 l 2
 49 -2 43 12 59 48 c 0
 135 219 263 498 325 643 c 0
 350 701 371 691 390 637 c 0
 453 459 593 129 628 38 c 0
 638 12 636 1 591 1 c 0
 552 1 128 -3 104 -3 c 0
162 47 m 0
 263 50 546 49 546 67 c 0
 546 96 479 270 359 559 c 0
 354 571 353 577 350 577 c 0
 348 577 347 571 342 560 c 2
 133 67 l 1
 133 51 145 48 162 47 c 0
EndSplineSet
EndChar

StartChar: uni25B4
Encoding: 9652 9652 129
Width: 200
Flags: W
HStem: 149 110<56.8467 143.153>
VStem: 45 110<160.847 247.153>
LayerCount: 2
Fore
SplineSet
100 149 m 0
 70 149 45 174 45 204 c 0
 45 234 70 259 100 259 c 0
 130 259 155 234 155 204 c 0
 155 174 130 149 100 149 c 0
EndSplineSet
EndChar

StartChar: uni25B5
Encoding: 9653 9653 130
Width: 200
Flags: W
HStem: 149 110<56.8467 143.153>
VStem: 45 110<160.847 247.153>
LayerCount: 2
Fore
SplineSet
100 149 m 0
 70 149 45 174 45 204 c 0
 45 234 70 259 100 259 c 0
 130 259 155 234 155 204 c 0
 155 174 130 149 100 149 c 0
EndSplineSet
EndChar

StartChar: uni25B6
Encoding: 9654 9654 131
Width: 785
Flags: W
LayerCount: 2
Fore
SplineSet
50 577 m 0
 50 581 50 584 51 588 c 2
 51 615 l 2
 51 632 65 638 101 622 c 0
 272 546 551 418 696 356 c 0
 754 331 744 310 690 291 c 0
 512 228 182 88 91 53 c 0
 65 43 54 45 54 90 c 0
 54 129 50 553 50 577 c 0
EndSplineSet
EndChar

StartChar: uni25B7
Encoding: 9655 9655 132
Width: 785
Flags: W
VStem: 50 50<304.892 547.991>
LayerCount: 2
Fore
SplineSet
50 577 m 0
 50 581 50 584 51 588 c 2
 51 615 l 2
 51 632 65 638 101 622 c 0
 272 546 551 418 696 356 c 0
 754 331 744 310 690 291 c 0
 512 228 182 88 91 53 c 0
 65 43 54 45 54 90 c 0
 54 129 50 553 50 577 c 0
100 519 m 0
 103 418 102 135 120 135 c 0
 149 135 323 202 612 322 c 0
 624 327 630 328 630 331 c 0
 630 333 624 334 613 339 c 2
 120 548 l 1
 104 548 101 536 100 519 c 0
EndSplineSet
EndChar

StartChar: uni25B8
Encoding: 9656 9656 133
Width: 200
Flags: W
HStem: 149 110<56.8467 143.153>
VStem: 45 110<160.847 247.153>
LayerCount: 2
Fore
SplineSet
100 149 m 0
 70 149 45 174 45 204 c 0
 45 234 70 259 100 259 c 0
 130 259 155 234 155 204 c 0
 155 174 130 149 100 149 c 0
EndSplineSet
EndChar

StartChar: uni25B9
Encoding: 9657 9657 134
Width: 200
Flags: W
HStem: 149 110<56.8467 143.153>
VStem: 45 110<160.847 247.153>
LayerCount: 2
Fore
SplineSet
100 149 m 0
 70 149 45 174 45 204 c 0
 45 234 70 259 100 259 c 0
 130 259 155 234 155 204 c 0
 155 174 130 149 100 149 c 0
EndSplineSet
EndChar

StartChar: triagrt
Encoding: 9658 9658 135
Width: 200
Flags: W
HStem: 149 110<56.8467 143.153>
VStem: 45 110<160.847 247.153>
LayerCount: 2
Fore
SplineSet
100 149 m 0
 70 149 45 174 45 204 c 0
 45 234 70 259 100 259 c 0
 130 259 155 234 155 204 c 0
 155 174 130 149 100 149 c 0
EndSplineSet
EndChar

StartChar: uni25BB
Encoding: 9659 9659 136
Width: 200
Flags: W
HStem: 149 110<56.8467 143.153>
VStem: 45 110<160.847 247.153>
LayerCount: 2
Fore
SplineSet
100 149 m 0
 70 149 45 174 45 204 c 0
 45 234 70 259 100 259 c 0
 130 259 155 234 155 204 c 0
 155 174 130 149 100 149 c 0
EndSplineSet
EndChar

StartChar: triagdn
Encoding: 9660 9660 137
Width: 683
Flags: W
LayerCount: 2
Fore
SplineSet
104 682 m 0
 128 682 552 678 591 678 c 0
 636 678 638 667 628 641 c 0
 593 550 453 220 390 42 c 0
 371 -12 350 -22 325 36 c 0
 263 181 135 460 59 631 c 0
 43 667 49 681 66 681 c 2
 93 681 l 2
 97 682 100 682 104 682 c 0
EndSplineSet
EndChar

StartChar: uni25BD
Encoding: 9661 9661 138
Width: 683
Flags: W
HStem: 632 50<133.009 376.108>
LayerCount: 2
Fore
SplineSet
104 682 m 0
 128 682 552 678 591 678 c 0
 636 678 638 667 628 641 c 0
 593 550 453 220 390 42 c 0
 371 -12 350 -22 325 36 c 0
 263 181 135 460 59 631 c 0
 43 667 49 681 66 681 c 2
 93 681 l 2
 97 682 100 682 104 682 c 0
162 632 m 0
 145 631 133 628 133 612 c 1
 342 119 l 2
 347 108 348 102 350 102 c 0
 353 102 354 108 359 120 c 0
 479 409 546 583 546 612 c 0
 546 630 263 629 162 632 c 0
EndSplineSet
EndChar

StartChar: uni25BE
Encoding: 9662 9662 139
Width: 200
Flags: W
HStem: 149 110<56.8467 143.153>
VStem: 45 110<160.847 247.153>
LayerCount: 2
Fore
SplineSet
100 149 m 0
 70 149 45 174 45 204 c 0
 45 234 70 259 100 259 c 0
 130 259 155 234 155 204 c 0
 155 174 130 149 100 149 c 0
EndSplineSet
EndChar

StartChar: uni25BF
Encoding: 9663 9663 140
Width: 200
Flags: W
HStem: 149 110<56.8467 143.153>
VStem: 45 110<160.847 247.153>
LayerCount: 2
Fore
SplineSet
100 149 m 0
 70 149 45 174 45 204 c 0
 45 234 70 259 100 259 c 0
 130 259 155 234 155 204 c 0
 155 174 130 149 100 149 c 0
EndSplineSet
EndChar

StartChar: uni25C0
Encoding: 9664 9664 141
Width: 785
Flags: W
LayerCount: 2
Fore
SplineSet
735 102 m 0
 735 98 735 95 734 91 c 2
 734 64 l 2
 734 47 720 41 684 57 c 0
 513 133 234 261 89 323 c 0
 31 348 41 369 95 388 c 0
 273 451 603 591 694 626 c 0
 720 636 731 634 731 589 c 0
 731 550 735 126 735 102 c 0
EndSplineSet
EndChar

StartChar: uni25C1
Encoding: 9665 9665 142
Width: 785
Flags: W
VStem: 685 50<304.892 547.991>
LayerCount: 2
Fore
SplineSet
735 577 m 0
 735 553 731 129 731 90 c 0
 731 45 720 43 694 53 c 0
 603 88 273 228 95 291 c 0
 41 310 31 331 89 356 c 0
 234 418 513 546 684 622 c 0
 720 638 734 632 734 615 c 2
 734 588 l 2
 735 584 735 581 735 577 c 0
685 519 m 0
 684 536 681 548 665 548 c 1
 172 339 l 2
 161 334 155 333 155 331 c 0
 155 328 161 327 173 322 c 0
 462 202 636 135 665 135 c 0
 683 135 682 418 685 519 c 0
EndSplineSet
EndChar

StartChar: uni25C2
Encoding: 9666 9666 143
Width: 200
Flags: W
HStem: 149 110<56.8467 143.153>
VStem: 45 110<160.847 247.153>
LayerCount: 2
Fore
SplineSet
100 149 m 0
 70 149 45 174 45 204 c 0
 45 234 70 259 100 259 c 0
 130 259 155 234 155 204 c 0
 155 174 130 149 100 149 c 0
EndSplineSet
EndChar

StartChar: uni25C3
Encoding: 9667 9667 144
Width: 200
Flags: W
HStem: 149 110<56.8467 143.153>
VStem: 45 110<160.847 247.153>
LayerCount: 2
Fore
SplineSet
100 149 m 0
 70 149 45 174 45 204 c 0
 45 234 70 259 100 259 c 0
 130 259 155 234 155 204 c 0
 155 174 130 149 100 149 c 0
EndSplineSet
EndChar

StartChar: triaglf
Encoding: 9668 9668 145
Width: 200
Flags: W
HStem: 149 110<56.8467 143.153>
VStem: 45 110<160.847 247.153>
LayerCount: 2
Fore
SplineSet
100 149 m 0
 70 149 45 174 45 204 c 0
 45 234 70 259 100 259 c 0
 130 259 155 234 155 204 c 0
 155 174 130 149 100 149 c 0
EndSplineSet
EndChar

StartChar: uni25C6
Encoding: 9670 9670 146
Width: 683
Flags: W
LayerCount: 2
Fore
SplineSet
628 250 m 0
 632 243 634 237 632 234 c 0
 634 230 632 224 628 217 c 0
 593 155 450 -69 388 -190 c 0
 369 -227 348 -234 323 -195 c 0
 260 -97 134 93 59 210 c 0
 52 220 49 228 50 234 c 0
 49 239 52 247 59 257 c 0
 135 373 259 564 322 662 c 0
 347 701 368 694 387 657 c 0
 449 536 593 312 628 250 c 0
EndSplineSet
EndChar

StartChar: uni25C7
Encoding: 9671 9671 147
Width: 683
Flags: W
LayerCount: 2
Fore
SplineSet
628 250 m 0
 632 243 634 237 632 234 c 0
 634 230 632 224 628 217 c 0
 593 155 450 -69 388 -190 c 0
 369 -227 348 -234 323 -195 c 0
 260 -97 134 93 59 210 c 0
 52 220 49 228 50 234 c 0
 49 239 52 247 59 257 c 0
 135 373 259 564 322 662 c 0
 347 701 368 694 387 657 c 0
 449 536 593 312 628 250 c 0
357 562 m 0
 352 570 351 574 349 574 c 0
 347 574 346 570 341 563 c 2
 137 233 l 1
 341 -96 l 2
 346 -103 347 -107 349 -107 c 0
 351 -107 352 -103 357 -95 c 0
 456 83 538 216 538 233 c 0
 538 251 430 442 357 562 c 0
EndSplineSet
EndChar

StartChar: uni25C8
Encoding: 9672 9672 148
Width: 200
Flags: W
HStem: 149 110<56.8467 143.153>
VStem: 45 110<160.847 247.153>
LayerCount: 2
Fore
SplineSet
100 149 m 0
 70 149 45 174 45 204 c 0
 45 234 70 259 100 259 c 0
 130 259 155 234 155 204 c 0
 155 174 130 149 100 149 c 0
EndSplineSet
EndChar

StartChar: lozenge
Encoding: 9674 9674 149
Width: 593
Flags: W
HStem: -154 42<293.422 307.999> 578 45<290.844 310.833>
LayerCount: 2
Fore
SplineSet
241 -154 m 1
 185 -43 104 106 58 208 c 0
 53 219 49 227 50 234 c 0
 49 239 52 248 58 258 c 0
 109 359 186 511 242 623 c 1
 365 623 l 1
 424 488 514 307 539 251 c 0
 542 244 544 236 542 234 c 0
 544 230 542 222 539 216 c 0
 514 159 426 -20 367 -154 c 1
 241 -154 l 1
303 -112 m 0
 304 -112 304 -108 308 -99 c 0
 389 81 456 215 456 233 c 0
 456 251 368 445 308 565 c 0
 304 574 304 578 303 578 c 0
 301 578 300 574 296 567 c 2
 131 233 l 1
 296 -100 l 2
 300 -108 301 -112 303 -112 c 0
EndSplineSet
EndChar

StartChar: uni2C60
Encoding: 11360 11360 150
Width: 584
GlyphClass: 2
Flags: W
HStem: -5 40<220.001 480.925> -5 29<27.3563 55 55.0618 94.228> 257 36<57.0087 130 210 398.479> 367 36<57.0087 130 210 398.479> 622 31<37.0745 116.488 238.822 330.926>
VStem: 130 80<47.25 257 293 367 403 603.136> 541 34<139.048 159.894>
AnchorPoint: "Anchor-15" 0 0 basechar 0
AnchorPoint: "Anchor-14" 0 0 basechar 0
AnchorPoint: "Anchor-13" 187 675 basechar 0
AnchorPoint: "Anchor-12" 311 -30 basechar 0
LayerCount: 2
Fore
SplineSet
563 162 m 0xbe
 571 162 575 152 575 144 c 0
 575 142 574 140 574 139 c 0
 560 87 551 54 547 12 c 0
 546 3 543 -5 533 -5 c 0
 399 -5 290 0 190 0 c 0
 140 0 55 -5 55 -5 c 2
 37 -5 27 0 27 7 c 0
 27 19 45 23 49 24 c 0x7e
 101 34 130 52 130 96 c 2
 130 257 l 1
 71 257 l 2
 62 257 57 269 57 275 c 0
 57 284 69 293 81 293 c 2
 130 293 l 1
 130 367 l 1
 71 367 l 2
 62 367 57 379 57 385 c 0
 57 394 69 403 81 403 c 2
 130 403 l 1
 130 560 l 2
 130 608 119 613 69 622 c 0
 46 626 36 633 36 642 c 0
 36 650 48 653 65 653 c 0
 119 653 133 650 177 650 c 0
 226 650 249 653 303 653 c 0
 320 653 332 650 332 642 c 0
 332 633 322 626 299 622 c 0
 249 613 210 606 210 567 c 2
 210 403 l 1
 388 403 l 2
 394 403 402 398 402 392 c 0
 402 391 401 390 401 389 c 0
 394 376 385 367 370 367 c 2
 210 367 l 1
 210 293 l 1
 388 293 l 2
 394 293 402 288 402 282 c 0
 402 281 401 280 401 279 c 0
 394 266 385 257 370 257 c 2
 210 257 l 1
 210 96 l 2
 210 55 221 35 287 35 c 2
 411 35 l 2
 447 35 476 49 489 61 c 0
 515 84 524 96 541 132 c 0
 544 140 554 162 563 162 c 0xbe
EndSplineSet
EndChar

StartChar: uni2C62
Encoding: 11362 11362 151
Width: 584
GlyphClass: 2
Flags: W
HStem: -5 40<220.001 480.925> -5 29<27.3563 55 55.0618 94.228> 267 66<210.938 320.303> 315 66<58.0395 130> 622 31<37.0745 116.488 238.822 330.926>
VStem: 130 80<47.25 280 379 603.136> 541 34<139.048 159.894>
AnchorPoint: "Anchor-15" 0 0 basechar 0
AnchorPoint: "Anchor-14" 0 0 basechar 0
AnchorPoint: "Anchor-13" 187 675 basechar 0
AnchorPoint: "Anchor-12" 311 -30 basechar 0
LayerCount: 2
Fore
SplineSet
563 162 m 0xae
 571 162 575 152 575 144 c 0
 575 142 574 140 574 139 c 0
 560 87 551 54 547 12 c 0
 546 3 543 -5 533 -5 c 0
 399 -5 290 0 190 0 c 0
 140 0 55 -5 55 -5 c 2
 37 -5 27 0 27 7 c 0
 27 19 45 23 49 24 c 0
 101 34 130 52 130 96 c 2
 130 311 l 1
 121 314 112 315 103 315 c 0
 73 315 41 292 20 279 c 0
 9 272 2 266 0 266 c 0
 -5 266 -10 280 -10 286 c 0
 -10 289 -6 296 1 306 c 0
 23 337 77 381 115 381 c 0x5e
 120 381 125 380 130 379 c 1
 130 560 l 2
 130 608 119 613 69 622 c 0
 46 626 36 633 36 642 c 0
 36 650 48 653 65 653 c 0
 119 653 133 650 177 650 c 0
 226 650 249 653 303 653 c 0
 320 653 332 650 332 642 c 0
 332 633 322 626 299 622 c 0
 249 613 210 606 210 567 c 2
 210 348 l 1
 231 340 253 333 277 333 c 0
 307 333 340 354 360 369 c 0
 371 376 378 382 380 382 c 0
 385 382 390 368 390 362 c 0
 390 359 386 352 379 342 c 0
 356 312 303 267 265 267 c 0
 248 267 229 273 210 280 c 1
 210 96 l 2
 210 55 221 35 287 35 c 2
 411 35 l 2
 447 35 476 49 489 61 c 0
 515 84 524 96 541 132 c 0
 544 140 554 162 563 162 c 0xae
EndSplineSet
EndChar

StartChar: uni2C63
Encoding: 11363 11363 152
Width: 552
GlyphClass: 2
Flags: W
HStem: -5 29<24.6924 100.631 239.305 309.308> 254 31<259.022 374.679> 433 36<11.0087 130 210 372.479> 622 31<37.0745 105.304> 630 28<221.934 347.601>
VStem: 130 80<45.1651 433 469 603.448> 441 86<373.102 559.429>
AnchorPoint: "Anchor-15" 0 0 basechar 0
AnchorPoint: "Anchor-14" 0 0 basechar 0
AnchorPoint: "Anchor-13" 286 675 basechar 0
AnchorPoint: "Anchor-12" 180 -30 basechar 0
LayerCount: 2
Fore
SplineSet
320 285 m 0xee
 400 285 441 355 441 473 c 0
 441 579 371 630 274 630 c 0xee
 236 630 210 618 210 588 c 2
 210 469 l 1
 362 469 l 2
 368 469 376 464 376 458 c 0
 376 457 375 456 375 455 c 0
 368 442 359 433 344 433 c 2
 210 433 l 1
 210 111 l 2
 210 63 227 33 277 24 c 0
 300 20 310 15 310 6 c 0
 310 -2 298 -5 281 -5 c 0
 227 -5 221 2 183 2 c 0
 132 2 107 -5 53 -5 c 0
 36 -5 24 -2 24 6 c 0
 24 15 34 20 57 24 c 0
 107 33 130 51 130 100 c 2
 130 433 l 1
 25 433 l 2
 16 433 11 445 11 451 c 0
 11 460 23 469 35 469 c 2
 130 469 l 1
 130 522 l 2
 130 582 119 613 69 622 c 0
 46 626 36 633 36 642 c 0
 36 650 48 653 65 653 c 0xf6
 119 653 122 652 163 652 c 0
 203 652 246 658 274 658 c 0
 426 658 527 592 527 480 c 0
 527 357 456 254 303 254 c 0
 274 254 258 265 258 273 c 0
 258 278 267 287 274 287 c 0
 280 287 293 285 320 285 c 0xee
EndSplineSet
EndChar

StartChar: uni2C64
Encoding: 11364 11364 153
Width: 713
Flags: W
HStem: -200 41<241.017 313.413> -21 46<603.627 713.254> 627 30<36.0088 108.406 228.013 345.755>
VStem: 130 80<-43.7367 302.04 331.373 612.383> 413 90<411.17 575.094>
LayerCount: 2
Fore
SplineSet
306 -200 m 0
 267 -200 233 -180 206 -148 c 0
 158 -92 130 2 130 89 c 2
 130 526 l 2
 130 602 126 616 69 622 c 0
 46 624 36 633 36 642 c 0
 36 650 48 653 65 653 c 0
 119 653 122 652 163 652 c 0
 201 652 220 657 278 657 c 0
 424 657 503 602 503 493 c 0
 503 403 440 353 385 325 c 0
 380 323 381 318 385 312 c 0
 447 218 494 143 588 58 c 0
 623 27 656 25 703 25 c 0
 713 25 718 22 718 14 c 0
 718 -15 662 -21 637 -21 c 0
 580 -21 534 -10 499 33 c 0
 450 93 416 129 347 241 c 0
 336 259 324 270 304 280 c 0
 275 294 243 300 225 302 c 0
 214 303 210 294 210 282 c 2
 210 -1 l 2
 210 -98 229 -159 276 -159 c 0
 293 -159 306 -151 323 -129 c 0
 337 -111 353 -104 370 -104 c 0
 385 -104 409 -128 409 -151 c 0
 409 -182 374 -200 306 -200 c 0
263 329 m 0
 355 329 413 400 413 477 c 0
 413 558 392 627 266 627 c 0
 223 627 215 603 212 534 c 0
 211 500 210 444 210 364 c 0
 210 331 230 329 263 329 c 0
EndSplineSet
EndChar

StartChar: uni2C67
Encoding: 11367 11367 154
Width: 826
Flags: W
HStem: -5 29<37.6924 109.801 250.294 321.308 501.692 572.618> 302 48<210 601.981> 622 31<45.0745 116.701 235.842 309.926 504.074 576.241 697.262 766.926>
VStem: 130 80<53.5983 302 350 603.314> 602 80<58.4522 302 350 604.033> 724 47<-213.17 -15.9258>
LayerCount: 2
Fore
SplineSet
742 -215 m 0
 723 -215 724 -182 724 -162 c 0
 725 -139 725 -119 725 -102 c 0
 725 -19 701 0 651 0 c 0
 604 0 584 -5 530 -5 c 0
 513 -5 501 -2 501 6 c 0
 501 15 511 20 534 24 c 0
 576 32 602 54 602 97 c 2
 602 287 l 2
 602 294 603 302 597 302 c 2
 215 302 l 2
 210 302 210 299 210 291 c 2
 210 106 l 2
 210 64 243 32 289 24 c 0
 312 20 322 15 322 6 c 0
 322 -2 310 -5 293 -5 c 0
 239 -5 222 0 176 0 c 0
 133 0 120 -5 66 -5 c 0
 49 -5 37 -2 37 6 c 0
 37 15 47 20 70 24 c 0
 120 33 130 51 130 99 c 2
 130 551 l 2
 130 597 127 613 77 622 c 0
 54 626 44 633 44 642 c 0
 44 650 56 653 73 653 c 0
 127 653 136 650 176 650 c 0
 217 650 228 653 282 653 c 0
 299 653 311 650 311 642 c 0
 311 633 301 626 278 622 c 0
 228 613 210 590 210 551 c 2
 210 359 l 2
 210 351 218 350 224 350 c 2
 595 350 l 2
 600 350 602 353 602 362 c 2
 602 552 l 2
 602 588 586 613 536 622 c 0
 513 626 503 633 503 642 c 0
 503 650 515 653 532 653 c 0
 586 653 603 650 648 650 c 0
 684 650 685 653 739 653 c 0
 756 653 768 650 768 642 c 0
 768 633 758 626 735 622 c 0
 685 613 682 590 682 552 c 2
 682 93 l 2
 682 46 754 42 782 41 c 0
 793 41 796 33 796 25 c 0
 796 0 775 -80 771 -174 c 0
 770 -190 758 -215 742 -215 c 0
EndSplineSet
EndChar

StartChar: uni2C69
Encoding: 11369 11369 155
Width: 681
Flags: W
HStem: -5 29<31.6924 105.863 244.783 312.308> 323 22<211.264 231.838> 622 31<32.0745 108.441 226.967 296.926 408.311 456.01 576.716 672.827>
VStem: 131 80<50.6023 322.99 345.01 605.863> 619 47<-216.009 -17.9638>
LayerCount: 2
Fore
SplineSet
637 -218 m 0
 618 -218 619 -182 619 -162 c 0
 620 -139 620 -119 620 -102 c 0
 620 -19 590 1 540 1 c 0
 512 1 484 -1 439 -1 c 0
 422 -1 410 2 410 10 c 0
 410 19 418 23 437 27 c 0
 457 32 465 39 465 47 c 0
 465 55 458 63 450 72 c 2
 238 306 l 2
 231 314 220 323 215 323 c 0
 210 323 211 309 211 302 c 0
 211 239 213 190 216 110 c 0
 218 67 230 33 280 24 c 0
 303 20 313 15 313 6 c 0
 313 -2 301 -5 284 -5 c 0
 230 -5 224 2 186 2 c 0
 137 2 114 -5 60 -5 c 0
 43 -5 31 -2 31 6 c 0
 31 15 41 20 64 24 c 0
 114 33 131 51 131 101 c 2
 131 551 l 2
 131 597 114 613 64 622 c 0
 41 626 31 633 31 642 c 0
 31 650 43 653 60 653 c 0
 114 653 128 651 172 651 c 0
 210 651 215 653 269 653 c 0
 286 653 298 650 298 642 c 0
 298 633 288 626 265 622 c 0
 215 613 211 590 211 551 c 2
 211 364 l 2
 211 359 211 345 216 345 c 0
 223 345 236 355 243 363 c 2
 443 567 l 2
 453 577 458 588 458 597 c 0
 458 608 451 617 439 620 c 0
 416 626 408 631 408 640 c 0
 408 648 420 651 437 651 c 2
 491 651 l 2
 560 651 626 653 653 655 c 0
 666 655 675 651 675 644 c 0
 675 635 665 628 642 624 c 0
 592 615 536 597 490 558 c 0
 418 497 368 448 298 371 c 0
 293 366 296 360 303 353 c 2
 545 95 l 2
 577 61 649 24 677 24 c 0
 688 24 691 16 691 8 c 0
 691 -17 670 -80 666 -174 c 0
 665 -190 653 -218 637 -218 c 0
EndSplineSet
EndChar

StartChar: uni2C6B
Encoding: 11371 11371 156
Width: 603
Flags: W
HStem: 2 34<180.367 487.14> 604 42<110.395 431.997>
VStem: 28 140<8 60> 36 37<506.312 565.979> 508 47<-215.319 -14.3199>
LayerCount: 2
Fore
SplineSet
529 -216 m 0xe8
 510 -216 508 -181 508 -161 c 0
 509 -138 509 -118 509 -101 c 0
 509 -18 485 2 435 2 c 0
 357 2 323 1 234 1 c 0
 194 1 150 -3 112 -3 c 2
 35 -3 l 2
 31 0 28 5 28 11 c 0xe8
 28 21 63 73 86 104 c 0
 222 290 300 396 428 588 c 0
 430 591 432 593 432 596 c 0
 432 600 428 603 413 604 c 0
 377 605 320 606 267 606 c 0
 228 606 190 606 165 604 c 0
 133 602 91 584 73 535 c 0
 68 523 60 503 45 503 c 0
 39 503 36 508 36 514 c 0xd8
 36 522 40 533 43 541 c 0
 50 562 66 610 70 652 c 0
 71 667 80 669 85 669 c 0
 90 669 100 663 110 655 c 0
 118 649 154 648 183 647 c 0
 235 646 283 646 328 646 c 0
 411 646 485 647 559 649 c 0
 565 649 574 636 570 631 c 2
 509 550 l 2
 371 364 298 261 171 70 c 0
 169 67 168 62 168 58 c 0
 168 50 172 42 179 41 c 0
 208 38 248 36 292 36 c 0
 337 36 519 37 566 40 c 0
 577 40 580 32 580 24 c 0
 580 -1 559 -79 555 -173 c 0
 554 -189 545 -216 529 -216 c 0xe8
EndSplineSet
EndChar

StartChar: uni2C6D
Encoding: 11373 11373 157
Width: 735
Flags: W
HStem: -15 31<291.852 416.623> -5 29<634.602 712.308> 619 34<621.644 703.236> 632 31<288.378 452.086>
VStem: 41 100<185.493 430.645> 521 80<106.217 585.368>
LayerCount: 2
Fore
SplineSet
339 -15 m 0x8c
 169 -15 41 120 41 302 c 0
 41 496 180 663 374 663 c 0x9c
 453 663 513 645 552 645 c 0
 607 645 613 653 670 653 c 0
 687 653 704 649 704 641 c 0
 704 632 698 623 675 619 c 0
 616 610 601 596 601 549 c 2
 601 98 l 2
 601 51 630 33 680 24 c 0
 703 20 713 15 713 6 c 0
 713 -2 701 -5 684 -5 c 0x6c
 659 -5 635 1 612 1 c 0
 587 1 560 -6 537 -6 c 0
 521 -6 521 19 521 40 c 0
 521 46 513 54 500 42 c 0
 474 19 427 -15 339 -15 c 0x8c
364 16 m 0
 432 16 521 108 521 159 c 2
 521 524 l 2
 521 581 478 632 358 632 c 0
 212 632 141 473 141 326 c 0
 141 177 208 16 364 16 c 0
EndSplineSet
EndChar

StartChar: uni2C6E
Encoding: 11374 11374 158
Width: 884
GlyphClass: 2
Flags: W
HStem: -200 41<573.587 646.008> -5 29<19.6924 83.1305 195.757 261.308> 624 31<42.8083 117.013 776.216 842.344>
VStem: 657 78<329.983 456.672> 671 85<-47.8064 293.949>
AnchorPoint: "Anchor-15" 0 0 basechar 0
AnchorPoint: "Anchor-14" 0 0 basechar 0
AnchorPoint: "Anchor-13" 0 0 basechar 0
AnchorPoint: "Anchor-12" 407 -30 basechar 0
LayerCount: 2
Fore
SplineSet
671 0 m 0xe8
 671 144 663 329 657 464 c 0
 655 478 648 477 641 464 c 2
 411 -5 l 2
 408 -12 396 -13 393 -4 c 0
 341 152 284 296 209 471 c 0
 206 478 197 478 196 471 c 0
 177 330 164 238 164 102 c 0
 164 66 188 32 229 24 c 0
 252 20 262 15 262 6 c 0
 262 -2 250 -5 233 -5 c 0
 179 -5 176 0 139 0 c 0
 103 0 102 -5 48 -5 c 0
 31 -5 19 -2 19 6 c 0
 19 15 29 20 52 24 c 0
 85 30 107 55 114 102 c 0
 138 282 155 444 155 528 c 0
 155 538 155 551 154 561 c 0
 153 572 152 583 139 594 c 0
 115 614 94 618 64 624 c 0
 51 627 42 635 42 644 c 0
 42 654 56 655 76 655 c 0
 102 655 200 647 226 647 c 0
 235 647 242 641 245 631 c 0
 252 607 257 579 267 554 c 2
 425 153 l 2
 429 143 443 140 448 150 c 2
 645 560 l 1
 651 582 659 614 663 635 c 0
 665 643 668 648 673 648 c 2
 709 648 l 2
 749 648 800 656 823 656 c 0
 829 656 844 655 844 646 c 0
 844 637 838 633 818 625 c 0
 800 618 777 610 759 602 c 0
 745 596 735 583 735 568 c 0xf0
 735 382 748 240 756 89 c 1
 756 2 729 -92 681 -148 c 0
 654 -180 620 -200 581 -200 c 0
 513 -200 478 -182 478 -151 c 0
 478 -128 502 -104 517 -104 c 0
 534 -104 550 -111 564 -129 c 0
 581 -151 594 -159 611 -159 c 0
 658 -159 671 -97 671 0 c 0xe8
EndSplineSet
EndChar

StartChar: uni2C6F
Encoding: 11375 11375 159
Width: 692
GlyphClass: 2
Flags: W
HStem: 368 33<262.093 451.994> 619 36<-2.27746 79.8417 216.102 296.902 425.475 496.985 621.811 692.573>
VStem: -5 208<559.5 649> 516 178<556.5 646>
AnchorPoint: "Anchor-15" 0 0 basechar 0
AnchorPoint: "Anchor-14" 0 0 basechar 0
AnchorPoint: "Anchor-13" 357 680 basechar 0
AnchorPoint: "Anchor-12" 329 -25 basechar 0
LayerCount: 2
Fore
SplineSet
665 655 m 0
 682 655 694 650 694 642 c 0
 694 633 683 626 661 619 c 0
 627 609 597 592 575 542 c 0
 500 371 456 257 388 72 c 0
 381 53 376 35 374 14 c 1
 362 10 350 7 338 -1 c 0
 326 -9 323 -29 319 -35 c 0
 318 -36 315 -36 314 -34 c 0
 311 -28 310 -20 307 -12 c 0
 243 191 162 427 129 522 c 0
 101 602 68 615 28 622 c 0
 5 626 -5 636 -5 645 c 0
 -5 653 7 655 24 655 c 0
 52 655 118 649 163 649 c 0
 202 649 244 650 268 650 c 0
 285 650 297 646 297 638 c 0
 297 629 282 622 264 619 c 0
 220 612 203 596 203 574 c 0
 203 545 227 462 242 412 c 0
 245 402 251 401 269 401 c 2
 458 401 l 2
 464 401 470 405 475 419 c 0
 484 445 516 550 516 563 c 0
 516 592 490 612 458 620 c 0
 435 626 425 631 425 640 c 0
 425 648 437 651 454 651 c 0
 472 651 508 649 545 649 c 0
 589 649 632 655 665 655 c 0
431 368 m 2
 276 368 l 2
 266 368 262 368 262 363 c 0
 262 361 263 357 264 353 c 2
 342 109 l 2
 346 97 348 91 351 91 c 0
 353 91 355 97 359 108 c 2
 450 353 l 2
 451 356 452 359 452 361 c 0
 452 368 444 368 431 368 c 2
EndSplineSet
EndChar

StartChar: uni2C70
Encoding: 11376 11376 160
Width: 735
Flags: W
HStem: -13 31<282.914 446.622> -3 34<31.7637 113.356> 626 29<22.6924 100.398> 634 31<318.377 443.148>
VStem: 134 80<64.6319 543.783> 594 100<219.355 464.507>
LayerCount: 2
Fore
SplineSet
396 665 m 0x1c
 566 665 694 530 694 348 c 0
 694 154 555 -13 361 -13 c 0x9c
 282 -13 222 5 183 5 c 0
 128 5 122 -3 65 -3 c 0
 48 -3 31 1 31 9 c 0
 31 18 37 27 60 31 c 0
 119 40 134 54 134 101 c 2
 134 552 l 2
 134 599 105 617 55 626 c 0
 32 630 22 635 22 644 c 0
 22 652 34 655 51 655 c 0x6c
 76 655 100 649 123 649 c 0
 148 649 175 656 198 656 c 0
 214 656 214 631 214 610 c 0
 214 604 222 596 235 608 c 0
 261 631 308 665 396 665 c 0x1c
371 634 m 0
 303 634 214 542 214 491 c 2
 214 126 l 2
 214 69 257 18 377 18 c 0
 523 18 594 177 594 324 c 0
 594 473 527 634 371 634 c 0
EndSplineSet
EndChar

StartChar: uni2C72
Encoding: 11378 11378 161
Width: 875
Flags: W
HStem: 596 70<832.93 924> 620 33<1.64938 61.2607 189.109 238.926 266.649 333.392 613.369 689.313>
VStem: 0 187<577.5 646>
LayerCount: 2
Fore
SplineSet
335 -16 m 0xa0
 332 -16 326 -1 321 12 c 2
 105 554 l 1
 77 580 67 610 33 620 c 0
 11 627 0 633 0 642 c 0
 0 650 12 653 29 653 c 0
 60 653 84 650 118 650 c 0
 155 650 191 652 211 652 c 0
 228 652 240 649 240 641 c 0
 240 632 230 627 207 621 c 0
 191 617 187 603 187 588 c 0
 187 567 195 545 195 545 c 1
 256 389 292 303 359 152 c 0
 366 137 370 140 374 151 c 2
 452 344 l 2
 461 366 459 372 450 396 c 2
 393 538 l 2
 376 581 332 610 298 620 c 0
 276 627 265 633 265 642 c 0
 265 650 277 653 294 653 c 0
 325 653 352 650 388 650 c 0
 418 650 445 652 465 652 c 0
 482 652 494 649 494 641 c 0
 494 624 453 622 453 599 c 0
 453 596 454 594 455 591 c 0
 459 579 491 497 500 478 c 0
 504 469 506 465 509 465 c 0
 511 465 514 469 518 478 c 0
 534 514 553 574 558 591 c 0
 559 594 559 596 559 598 c 0
 559 622 522 624 522 641 c 0
 522 649 534 652 551 652 c 0
 580 652 584 650 603 650 c 0
 626 650 638 653 662 653 c 0x60
 679 653 691 650 691 642 c 0
 691 633 681 627 658 622 c 0
 615 612 607 602 590 574 c 0
 579 555 553 494 537 451 c 0
 529 430 527 418 538 396 c 2
 634 148 l 2
 637 141 641 145 645 154 c 0
 678 242 717 390 767 541 c 0
 802 645 848 666 895 666 c 0
 953 666 978 633 978 594 c 0
 978 566 957 538 929 538 c 0
 901 538 892 550 881 570 c 0
 870 591 862 596 853 596 c 0
 839 596 819 548 808 515 c 2
 654 58 l 2
 645 30 628 -12 622 -12 c 0
 617 -12 609 -2 605 7 c 0
 552 126 529 199 482 316 c 0
 478 325 476 323 471 310 c 0
 423 197 399 133 357 15 c 0
 352 1 343 -16 335 -16 c 0xa0
EndSplineSet
EndChar

StartChar: uni2C75
Encoding: 11381 11381 162
Width: 509
Flags: W
HStem: -5 29<37.6924 111.863 247.561 318.308> 317 35<218.16 449.984> 622 31<38.0745 114.441 234.846 319.926>
VStem: 137 80<46.2759 315.741 352 605.75> 465 32<253.771 301.391>
LayerCount: 2
Fore
SplineSet
66 -5 m 0
 49 -5 37 -2 37 6 c 0
 37 15 47 20 70 24 c 0
 120 33 137 51 137 100 c 2
 137 550 l 2
 137 597 120 613 70 622 c 0
 47 626 37 633 37 642 c 0
 37 650 49 653 66 653 c 0
 120 653 137 650 183 650 c 0
 226 650 238 653 292 653 c 0
 309 653 321 650 321 642 c 0
 321 633 311 626 288 622 c 0
 238 613 217 608 217 561 c 2
 217 374 l 2
 217 363 218 352 227 352 c 2
 405 352 l 2
 434 352 456 368 466 391 c 0
 468 396 479 408 484 408 c 0
 489 408 498 401 497 392 c 0
 495 369 494 353 494 337 c 0
 494 317 495 298 497 269 c 0
 497 260 496 252 488 252 c 0
 475 252 467 268 465 275 c 0
 450 322 414 317 368 317 c 0
 345 317 262 317 241 316 c 0
 228 315 217 308 217 291 c 0
 217 230 217 167 220 101 c 0
 222 58 236 33 286 24 c 0
 309 20 319 15 319 6 c 0
 319 -2 307 -5 290 -5 c 0
 236 -5 230 2 192 2 c 0
 143 2 120 -5 66 -5 c 0
EndSplineSet
EndChar

StartChar: uni2C7E
Encoding: 11390 11390 163
Width: 465
GlyphClass: 2
Flags: W
HStem: -220 37<259.549 316.431> -16 33<207.298 279.926> 630 34<185.799 307.974>
VStem: 40 36<109.573 170.919> 60 77<460.175 570.462> 338 84<86.3048 218.808>
AnchorPoint: "Anchor-15" 0 0 basechar 0
AnchorPoint: "Anchor-14" 0 0 basechar 0
AnchorPoint: "Anchor-13" 269 675 basechar 0
AnchorPoint: "Anchor-12" 226 -30 basechar 0
LayerCount: 2
Fore
SplineSet
377 -124 m 0xec
 398 -124 415 -143 415 -162 c 0
 415 -198 387 -220 313 -220 c 0
 225 -220 195 -154 172 -104 c 0
 154 -64 141 -21 106 5 c 0
 98 8 91 12 83 17 c 2
 83 17 82 18 81 18 c 2
 82 18 l 1
 75 22 69 27 63 32 c 0
 58 37 52 44 50 52 c 0
 43 79 42 129 40 157 c 0xf4
 40 166 49 171 60 171 c 0xec
 67 171 74 168 76 160 c 0xf4
 102 57 161 17 218 17 c 0
 287 17 338 65 338 139 c 0
 338 221 296 247 225 291 c 0
 147 340 60 385 60 482 c 0
 60 583 128 664 269 664 c 0
 317 664 352 651 374 642 c 0
 384 638 392 627 395 617 c 0
 403 589 415 550 415 518 c 0
 415 510 408 507 400 507 c 0
 388 507 375 513 372 521 c 0
 344 591 309 630 252 630 c 0
 192 630 137 600 137 516 c 0
 137 456 202 416 277 370 c 0
 347 327 422 280 422 180 c 0
 422 62 336 -15 207 -16 c 1
 220 -36 226 -63 232 -89 c 0
 244 -139 260 -183 283 -183 c 0
 300 -183 313 -171 330 -149 c 0
 344 -131 360 -124 377 -124 c 0xec
EndSplineSet
EndChar

StartChar: uni2C7F
Encoding: 11391 11391 164
Width: 603
Flags: W
HStem: -270 37<424.973 507.431> 609 37<120.191 437.997>
VStem: 36 37<506.312 565.741>
LayerCount: 2
Fore
SplineSet
504 -270 m 0
 393 -270 349 -216 305 -156 c 0
 253 -83 201 -3 35 -3 c 0
 29 -3 28 11 28 11 c 1
 28 21 63 73 86 104 c 0
 222 290 306 401 434 593 c 0
 436 596 438 598 438 601 c 0
 438 605 434 608 419 609 c 0
 383 610 326 611 273 611 c 0
 234 611 196 611 171 609 c 0
 139 606 91 584 73 535 c 0
 68 523 60 503 45 503 c 0
 39 503 36 508 36 514 c 0
 36 522 40 533 43 541 c 0
 50 562 67 617 70 659 c 0
 71 674 80 676 85 676 c 0
 90 676 105 667 116 662 c 0
 129 656 168 646 202 646 c 2
 328 646 l 2
 411 646 485 647 559 649 c 0
 565 649 574 636 570 631 c 2
 509 550 l 2
 371 364 289 248 162 58 c 0
 160 55 159 50 159 46 c 0
 159 38 163 30 170 29 c 0
 264 29 310 -43 350 -111 c 0
 386 -174 417 -233 474 -233 c 0
 491 -233 504 -221 521 -199 c 0
 535 -181 551 -174 568 -174 c 0
 589 -174 606 -193 606 -212 c 0
 606 -248 578 -270 504 -270 c 0
EndSplineSet
EndChar

StartChar: uniA726
Encoding: 42790 42790 165
Width: 808
Flags: W
HStem: -200 41<498.587 570.983> -5 29<37.6924 109.801 250.294 321.308> 307 38<210 601.981> 622 31<45.0745 116.701 235.842 309.926 504.074 576.241 697.262 766.926>
VStem: 130 80<53.5983 307 345 603.314> 602 80<-43.7367 307 345 604.033>
LayerCount: 2
Fore
SplineSet
506 -200 m 0
 438 -200 403 -182 403 -151 c 0
 403 -128 427 -104 442 -104 c 0
 459 -104 475 -111 489 -129 c 0
 506 -151 519 -159 536 -159 c 0
 583 -159 602 -98 602 -1 c 2
 602 292 l 2
 602 299 603 307 597 307 c 2
 215 307 l 2
 210 307 210 304 210 296 c 2
 210 106 l 2
 210 64 243 32 289 24 c 0
 312 20 322 15 322 6 c 0
 322 -2 310 -5 293 -5 c 0
 239 -5 222 0 176 0 c 0
 133 0 120 -5 66 -5 c 0
 49 -5 37 -2 37 6 c 0
 37 15 47 20 70 24 c 0
 120 33 130 51 130 99 c 2
 130 551 l 2
 130 597 127 613 77 622 c 0
 54 626 44 633 44 642 c 0
 44 650 56 653 73 653 c 0
 127 653 136 650 176 650 c 0
 217 650 228 653 282 653 c 0
 299 653 311 650 311 642 c 0
 311 633 301 626 278 622 c 0
 228 613 210 590 210 551 c 2
 210 354 l 2
 210 346 218 345 224 345 c 2
 595 345 l 2
 600 345 602 348 602 357 c 2
 602 552 l 2
 602 588 586 613 536 622 c 0
 513 626 503 633 503 642 c 0
 503 650 515 653 532 653 c 0
 586 653 603 650 648 650 c 0
 684 650 685 653 739 653 c 0
 756 653 768 650 768 642 c 0
 768 633 758 626 735 622 c 0
 685 613 682 590 682 552 c 2
 682 89 l 2
 682 2 654 -92 606 -148 c 0
 579 -180 545 -200 506 -200 c 0
EndSplineSet
EndChar

StartChar: uniA728
Encoding: 42792 42792 166
Width: 820
GlyphClass: 2
Flags: W
HStem: -200 31<463.505 596.402> -5 29<185.692 261.52 411.207 487.308> 160 36<585.656 608.386> 419 45<376.751 664.99> 610 32<109.25 287.844 384.786 599.483>
VStem: 296 80<48.375 414.254 464.616 606.061> 619 35<523.175 592.637> 680 90<-74.0992 86.5137>
AnchorPoint: "Anchor-15" 0 0 basechar 0
AnchorPoint: "Anchor-14" 0 0 basechar 0
AnchorPoint: "Anchor-13" 340 675 basechar 0
AnchorPoint: "Anchor-12" 328 -30 basechar 0
LayerCount: 2
Fore
SplineSet
581 196 m 0
 681 196 771 135 770 19 c 0
 769 -133 632 -200 511 -200 c 0
 457 -200 422 -186 390 -171 c 0
 377 -165 359 -152 356 -134 c 0
 351 -106 346 -102 346 -66 c 0
 346 -58 355 -54 365 -54 c 0
 372 -54 375 -63 389 -86 c 0
 421 -137 473 -169 528 -169 c 0
 633 -169 680 -83 680 3 c 0
 680 80 629 160 547 160 c 0
 534 160 535 159 524 159 c 0
 510 159 501 162 501 175 c 0
 501 186 501 188 518 209 c 2
 655 384 l 2
 661 391 665 398 665 408 c 0
 665 418 651 419 635 419 c 2
 426 419 l 2
 410 419 392 414 376 404 c 1
 376 102 l 2
 376 54 405 33 455 24 c 0
 478 20 488 15 488 6 c 0
 488 -2 476 -5 459 -5 c 0
 405 -5 388 0 342 0 c 0
 292 0 268 -5 214 -5 c 0
 197 -5 185 -2 185 6 c 0
 185 15 195 20 218 24 c 0
 268 33 296 54 296 102 c 2
 296 490 l 2
 296 581 291 603 275 606 c 0
 256 610 238 610 204 610 c 2
 157 610 l 2
 125 610 89 597 75 571 c 0
 69 560 49 533 34 533 c 0
 29 533 27 539 27 546 c 0
 27 552 29 560 32 566 c 0
 51 604 57 629 63 671 c 0
 66 693 75 694 80 694 c 0
 85 694 99 673 105 662 c 0
 113 648 147 642 175 642 c 2
 527 642 l 2
 573 642 600 647 622 657 c 0
 638 665 645 677 661 677 c 0
 665 677 668 664 668 654 c 0
 668 647 665 632 664 626 c 0
 658 589 654 593 654 567 c 2
 654 555 l 2
 654 543 648 523 638 523 c 0
 628 523 624 538 619 564 c 0
 614 592 591 610 527 610 c 2
 426 610 l 2
 381 610 376 605 376 495 c 2
 376 467 l 1
 386 465 403 464 421 464 c 2
 709 464 l 2
 729 464 745 467 755 467 c 0
 761 467 765 450 761 445 c 2
 580 207 l 2
 577 203 575 196 581 196 c 0
EndSplineSet
EndChar

StartChar: uniA72A
Encoding: 42794 42794 167
Width: 460
Flags: W
HStem: -14 58<205.625 321.982> 300 56<169.657 206.185> 624 39<231.16 340.169>
VStem: 46 83<397.499 510.187> 93 79<76.5633 191.202>
LayerCount: 2
Fore
SplineSet
233 -14 m 0xe8
 150 -14 93 38 93 113 c 0xe8
 93 170 138 255 206 294 c 0
 210 296 210 300 205 300 c 0
 119 300 46 358 46 431 c 0
 46 545 190 663 329 663 c 0
 366 663 420 642 420 621 c 0
 420 599 413 573 390 573 c 0
 378 573 371 577 363 585 c 0
 342 606 320 624 286 624 c 0
 203 624 129 560 129 476 c 0xf0
 129 398 169 356 246 356 c 0
 269 356 287 361 298 366 c 0
 306 370 310 373 317 373 c 0
 324 373 328 369 328 363 c 0
 328 351 311 334 298 328 c 0
 275 317 172 224 172 139 c 0
 172 86 210 44 266 44 c 0
 329 44 364 83 382 112 c 0
 392 128 399 142 405 142 c 0
 414 142 415 131 415 121 c 0
 415 64 331 -14 233 -14 c 0xe8
EndSplineSet
EndChar

StartChar: uniA72C
Encoding: 42796 42796 168
Width: 480
Flags: W
HStem: -200 41<174.587 247.076> 188 36<86 277 358.065 469.585>
VStem: 277 80<-47.6983 183.998 222.238 485.324>
LayerCount: 2
Fore
SplineSet
182 -200 m 0
 114 -200 79 -182 79 -151 c 0
 79 -128 103 -104 118 -104 c 0
 135 -104 151 -111 165 -129 c 0
 182 -151 195 -159 212 -159 c 0
 259 -159 279 -98 278 -1 c 2
 277 175 l 2
 277 181 270 184 262 184 c 0
 180 184 141 183 54 183 c 0
 43 183 21 186 21 193 c 0
 21 201 30 207 49 235 c 2
 313 614 l 2
 320 624 332 644 339 644 c 0
 344 644 360 625 360 617 c 0
 360 613 357 582 357 565 c 2
 357 229 l 2
 357 226 359 223 362 223 c 0
 377 222 390 222 402 222 c 0
 421 222 439 223 461 224 c 0
 467 224 472 220 472 216 c 0
 472 200 455 188 451 188 c 0
 436 188 418 189 402 189 c 0
 390 189 379 188 371 187 c 0
 366 186 358 182 358 181 c 2
 358 89 l 2
 358 2 330 -92 282 -148 c 0
 255 -180 221 -200 182 -200 c 0
86 219 m 2
 265 219 l 2
 270 219 277 223 277 227 c 2
 277 468 l 2
 277 493 271 492 266 485 c 2
 86 228 l 2
 84 225 82 219 86 219 c 2
EndSplineSet
EndChar

StartChar: uniA72E
Encoding: 42798 42798 169
Width: 602
Flags: W
HStem: -200 41<174.587 247.076> -147 23<394.033 441.141> 29 88<426.443 496.388> 188 36<86 277 358.065 469.585>
VStem: 277 80<-47.6983 183.998 222.238 485.324> 504 52<-60.0924 49.1868>
LayerCount: 2
Fore
SplineSet
182 -200 m 0
 114 -200 79 -182 79 -151 c 0
 79 -128 103 -104 118 -104 c 0
 135 -104 151 -111 165 -129 c 0
 182 -151 195 -159 212 -159 c 0
 259 -159 279 -98 278 -1 c 2
 277 175 l 2
 277 181 270 184 262 184 c 0
 180 184 141 183 54 183 c 0
 43 183 21 186 21 193 c 0
 21 201 30 207 49 235 c 2
 313 614 l 2
 320 624 332 644 339 644 c 0
 344 644 360 625 360 617 c 0
 360 613 357 582 357 565 c 2
 357 229 l 2
 357 226 359 223 362 223 c 0
 377 222 390 222 402 222 c 0
 421 222 439 223 461 224 c 0
 467 224 472 220 472 216 c 0
 472 200 455 188 451 188 c 0
 436 188 418 189 402 189 c 0
 390 189 379 188 371 187 c 0
 366 186 358 182 358 181 c 2
 358 89 l 2
 358 2 330 -92 282 -148 c 0
 255 -180 221 -200 182 -200 c 0
86 219 m 2
 265 219 l 2
 270 219 277 223 277 227 c 2
 277 468 l 2
 277 493 271 492 266 485 c 2
 86 228 l 2
 84 225 82 219 86 219 c 2
412 -147 m 0
 400 -147 394 -142 394 -136 c 0
 394 -131 399 -126 408 -124 c 0
 451 -115 504 -85 504 -15 c 0
 504 1 487 27 465 29 c 0
 436 32 418 49 418 71 c 0
 418 98 444 117 473 117 c 0
 521 117 556 76 556 20 c 0
 556 -81 463 -147 412 -147 c 0
EndSplineSet
EndChar

StartChar: uniA742
Encoding: 42818 42818 170
Width: 687
GlyphClass: 2
Flags: W
HStem: -5 29<37.6924 111.863 250.783 318.308 614.044 693.308> 323 22<217.264 237.372> 622 31<38.0745 114.441 232.967 302.926 414.311 462.01 582.716 678.827>
VStem: 137 80<50.6023 322.99 345.01 605.863>
AnchorPoint: "Anchor-15" 0 0 basechar 0
AnchorPoint: "Anchor-14" 0 0 basechar 0
AnchorPoint: "Anchor-13" 348 675 basechar 0
AnchorPoint: "Anchor-12" 354 -30 basechar 0
LayerCount: 2
Fore
SplineSet
661 24 m 0
 684 19 694 15 694 6 c 0
 694 -2 682 -5 665 -5 c 0
 606 -5 581 0 526 0 c 0
 501 0 490 -1 445 -1 c 0
 428 -1 416 2 416 10 c 0
 416 19 424 23 443 27 c 0
 463 32 471 39 471 47 c 0
 471 55 464 63 456 72 c 2
 365 173 l 1
 310 118 l 2
 303 112 291 117 287 121 c 0
 281 127 283 142 291 151 c 2
 340 200 l 1
 244 306 l 2
 236 314 226 323 221 323 c 0
 216 323 217 309 217 302 c 0
 217 239 219 190 222 110 c 0
 224 67 236 33 286 24 c 0
 309 20 319 15 319 6 c 0
 319 -2 307 -5 290 -5 c 0
 236 -5 230 2 192 2 c 0
 143 2 120 -5 66 -5 c 0
 49 -5 37 -2 37 6 c 0
 37 15 47 20 70 24 c 0
 120 33 137 51 137 101 c 2
 137 551 l 2
 137 597 120 613 70 622 c 0
 47 626 37 633 37 642 c 0
 37 650 49 653 66 653 c 0
 120 653 134 651 178 651 c 0
 216 651 221 653 275 653 c 0
 292 653 304 650 304 642 c 0
 304 633 294 626 271 622 c 0
 221 613 217 590 217 551 c 2
 217 364 l 2
 217 359 217 345 222 345 c 0
 229 345 242 355 249 363 c 2
 449 567 l 2
 459 577 464 588 464 597 c 0
 464 608 457 617 445 620 c 0
 422 626 414 631 414 640 c 0
 414 648 426 651 443 651 c 2
 497 651 l 2
 554 651 646 655 659 655 c 0
 672 655 681 651 681 644 c 0
 681 635 671 628 648 624 c 0
 598 615 542 597 496 558 c 0
 424 497 374 448 304 371 c 0
 299 366 302 360 309 353 c 2
 398 258 l 1
 496 356 l 2
 501 360 510 362 514 358 c 0
 515 357 515 356 515 355 c 0
 520 341 520 328 509 318 c 2
 423 232 l 1
 551 95 l 2
 594 47 604 36 661 24 c 0
EndSplineSet
EndChar

StartChar: uniA78D
Encoding: 42893 42893 171
Width: 678
GlyphClass: 2
Flags: W
HStem: -5 29<368.692 439.913 566.673 637.308> 279 45<230.675 405.529> 622 31<17.0745 88.7015 207.842 281.926 371.074 443.514 565.262 634.926>
VStem: 102 80<373.5 603.407> 470 80<45.3025 336.182 357.754 603.059>
AnchorPoint: "Anchor-15" 0 0 basechar 0
AnchorPoint: "Anchor-14" 0 0 basechar 0
AnchorPoint: "Anchor-13" 325 675 basechar 0
AnchorPoint: "Anchor-12" 0 0 basechar 0
LayerCount: 2
Fore
SplineSet
397 -5 m 0
 380 -5 368 -2 368 6 c 0
 368 15 378 20 401 24 c 0
 443 32 470 54 470 98 c 2
 470 320 l 2
 470 336 467 340 464 336 c 0
 452 321 384 279 294 279 c 0
 169 279 102 323 102 459 c 2
 102 552 l 2
 102 597 99 613 49 622 c 0
 26 626 16 633 16 642 c 0
 16 650 28 653 45 653 c 0
 99 653 108 650 148 650 c 0
 189 650 200 653 254 653 c 0
 271 653 283 650 283 642 c 0
 283 633 273 626 250 622 c 0
 200 613 182 590 182 552 c 2
 182 455 l 2
 182 370 225 324 318 324 c 0
 378 324 444 352 461 366 c 0
 468 371 470 379 470 390 c 2
 470 552 l 2
 470 588 453 613 403 622 c 0
 380 626 370 633 370 642 c 0
 370 650 382 653 399 653 c 0
 453 653 470 650 516 650 c 0
 552 650 553 653 607 653 c 0
 624 653 636 650 636 642 c 0
 636 633 626 626 603 622 c 0
 553 613 550 590 550 552 c 2
 550 100 l 2
 550 51 555 33 605 24 c 0
 628 20 638 15 638 6 c 0
 638 -2 626 -5 609 -5 c 0
 555 -5 545 0 504 0 c 0
 462 0 451 -5 397 -5 c 0
EndSplineSet
EndChar

StartChar: uniA7AA
Encoding: 42922 42922 172
Width: 881
Flags: W
HStem: -5 29<108.692 180.801 321.294 392.308 572.692 643.618 769.673 840.308> 302 48<281 672.981> 613 36<93.5746 199.844> 622 31<306.842 380.926 575.074 647.241 768.262 837.926>
VStem: 15 47<498 590.227> 201 80<53.5983 302 350 603.792> 673 80<44.8548 302 350 604.033>
LayerCount: 2
Fore
SplineSet
137 -5 m 0xde
 120 -5 108 -2 108 6 c 0
 108 15 118 20 141 24 c 0
 191 33 201 51 201 99 c 2
 201 586 l 2
 201 600 195 613 170 613 c 0
 114 613 62 599 62 555 c 0
 62 537 78 524 92 512 c 0
 104 502 115 492 115 482 c 0
 115 462 81 439 69 439 c 0
 42 439 15 484 15 512 c 0
 15 591 56 649 214 649 c 0xee
 288 651 299 653 353 653 c 0
 370 653 382 650 382 642 c 0
 382 633 372 626 349 622 c 0
 299 613 281 590 281 551 c 2
 281 359 l 2
 281 351 289 350 295 350 c 2
 666 350 l 2
 671 350 673 353 673 362 c 2
 673 552 l 2
 673 588 657 613 607 622 c 0
 584 626 574 633 574 642 c 0
 574 650 586 653 603 653 c 0
 657 653 674 650 719 650 c 0
 755 650 756 653 810 653 c 0
 827 653 839 650 839 642 c 0
 839 633 829 626 806 622 c 0
 756 613 753 590 753 552 c 2
 753 100 l 2
 753 51 758 33 808 24 c 0
 831 20 841 15 841 6 c 0
 841 -2 829 -5 812 -5 c 0
 758 -5 749 0 708 0 c 0
 666 0 655 -5 601 -5 c 0
 584 -5 572 -2 572 6 c 0
 572 15 582 20 605 24 c 0
 647 32 673 54 673 97 c 2
 673 287 l 2
 673 294 674 302 668 302 c 2
 286 302 l 2
 281 302 281 299 281 291 c 2
 281 106 l 2
 281 64 314 32 360 24 c 0
 383 20 393 15 393 6 c 0
 393 -2 381 -5 364 -5 c 0
 310 -5 293 0 247 0 c 0
 204 0 191 -5 137 -5 c 0xde
EndSplineSet
EndChar

StartChar: uni2C61
Encoding: 11361 11361 173
Width: 240
GlyphClass: 2
Flags: W
HStem: -3 27<20.0556 73.9702 166.03 219.944> 242 38<11.5707 85 155 226.149> 362 38<11.5707 85 155 226.149>
VStem: 85 70<31.1488 242 280 362 400 627.687>
AnchorPoint: "Anchor-15" 121 -30 basechar 0
AnchorPoint: "Anchor-14" 0 0 basechar 0
AnchorPoint: "Anchor-13" 0 0 basechar 0
AnchorPoint: "Anchor-12" 0 0 basechar 0
LayerCount: 2
Fore
SplineSet
196 242 m 2
 155 242 l 1
 155 62 l 2
 155 35 178 30 198 24 c 0
 209 20 221 16 221 6 c 0
 221 -2 208 -3 201 -3 c 0
 162 -3 155 2 120 2 c 0
 85 2 78 -3 39 -3 c 0
 32 -3 19 -2 19 6 c 0
 19 16 31 20 42 24 c 0
 62 30 85 35 85 62 c 2
 85 242 l 1
 24 242 l 2
 17 242 10 248 10 254 c 0
 10 263 20 280 34 280 c 2
 85 280 l 1
 85 362 l 1
 24 362 l 2
 17 362 10 368 10 374 c 0
 10 383 20 400 34 400 c 2
 85 400 l 1
 85 566 l 2
 85 605 72 632 39 639 c 0
 34 640 31 646 31 652 c 0
 31 658 34 663 38 664 c 0
 89 676 119 691 151 703 c 0
 153 704 155 705 157 705 c 0
 160 705 162 701 162 698 c 0
 162 686 155 652 155 562 c 2
 155 400 l 1
 214 400 l 2
 220 400 227 394 227 388 c 0
 227 368 212 362 196 362 c 2
 155 362 l 1
 155 280 l 1
 214 280 l 2
 220 280 227 274 227 268 c 0
 227 248 212 242 196 242 c 2
EndSplineSet
EndChar

StartChar: uni2C65
Encoding: 11365 11365 174
Width: 399
GlyphClass: 2
Flags: W
HStem: -14 48<111 198.414 312.435 371.606> 365 49<153.283 232.5>
VStem: 40 77<280.888 323.689> 238 68<58.3296 168.996 199.884 290>
AnchorPoint: "Anchor-15" 193 -14 basechar 0
AnchorPoint: "Anchor-14" 201 440 basechar 0
AnchorPoint: "Anchor-13" 0 0 basechar 0
AnchorPoint: "Anchor-12" 0 0 basechar 0
LayerCount: 2
Fore
SplineSet
387 54 m 0
 393 54 398 49 398 43 c 0
 398 37 393 27 387 21 c 0
 366 0 339 -14 318 -14 c 0
 287 -14 263 3 245 38 c 1
 242 38 l 1
 198 2 160 -14 117 -14 c 0
 105 -14 92 -9 81 0 c 1
 55 -47 l 2
 46 -64 29 -65 10 -65 c 0
 -1 -65 -5 -61 -5 -54 c 0
 -5 -53 -3 -46 0 -41 c 2
 45 41 l 1
 40 52 37 62 37 72 c 0
 37 114 59 135 108 155 c 1
 217 353 l 1
 208 361 196 365 181 365 c 0
 161 365 139 358 126 347 c 0
 118 341 116 330 116 318 c 2
 117 300 l 2
 117 290 71 265 51 265 c 0
 44 265 40 269 40 274 c 0
 40 295 55 321 80 343 c 0
 125 384 189 414 229 414 c 0
 236 414 243 413 249 412 c 1
 264 438 l 2
 274 456 291 464 313 464 c 0
 320 464 324 458 324 451 c 0
 324 446 317 432 313 424 c 2
 292 385 l 1
 304 369 311 349 311 325 c 2
 306 85 l 2
 305 57 320 38 342 38 c 0
 359 38 370 41 379 49 c 0
 383 53 385 54 387 54 c 0
240 290 m 1
 182 186 l 1
 210 197 l 2
 236 208 237 210 238 237 c 2
 240 290 l 1
238 148 m 2
 239 163 237 169 229 169 c 0
 226 169 220 168 209 164 c 0
 188 156 171 148 158 140 c 1
 118 68 l 1
 125 45 145 34 164 34 c 0
 190 34 208 43 223 58 c 0
 230 65 235 74 236 99 c 2
 238 148 l 2
EndSplineSet
EndChar

StartChar: uni2C66
Encoding: 11366 11366 175
Width: 370
GlyphClass: 2
Flags: W
HStem: -14 55<173.356 262.431> 352 48<156.312 261>
VStem: 85 70<164 351.595>
AnchorPoint: "Anchor-15" 188 -30 basechar 0
AnchorPoint: "Anchor-14" 136 440 basechar 0
AnchorPoint: "Anchor-13" 0 0 basechar 0
AnchorPoint: "Anchor-12" 0 0 basechar 0
LayerCount: 2
Fore
SplineSet
369 451 m 0
 369 446 362 432 358 424 c 2
 164 77 l 1
 175 54 194 41 221 41 c 0
 260 41 278 47 295 59 c 0
 296 60 298 61 299 61 c 0
 304 61 306 54 306 47 c 0
 306 36 250 -14 189 -14 c 0
 163 -14 141 -8 124 5 c 1
 95 -47 l 2
 86 -64 69 -65 50 -65 c 0
 39 -65 35 -61 35 -54 c 0
 35 -53 37 -46 40 -41 c 2
 92 52 l 1
 88 67 85 85 85 105 c 2
 85 337 l 2
 85 348 79 352 53 352 c 2
 47 352 l 2
 40 352 35 362 35 372 c 0
 35 375 40 382 42 383 c 0
 81 410 113 441 131 463 c 0
 137 470 141 475 148 475 c 0
 154 475 162 473 161 464 c 2
 156 419 l 2
 154 404 163 400 180 400 c 2
 288 400 l 1
 309 438 l 2
 319 456 336 464 358 464 c 0
 365 464 369 458 369 451 c 0
155 324 m 2
 155 164 l 1
 261 352 l 1
 195 352 l 2
 161 352 155 351 155 324 c 2
EndSplineSet
EndChar

StartChar: uni2C68
Encoding: 11368 11368 176
Width: 515
Flags: W
HStem: -3 27<20.0556 71.3797 166.237 215.003 296.997 345.313> 362 52<228.693 321.254>
VStem: 85 70<32.0327 335.273 351.291 626.703> 358 70<40.8289 325.919> 447 41<-138.987 -5.26025>
LayerCount: 2
Fore
SplineSet
468 -139 m 0
 451 -139 447 -121 447 -103 c 0
 448 -93 448 -72 448 -58 c 0
 448 -5 425 2 394 2 c 0
 364 2 356 -3 316 -3 c 0
 308 -3 296 -2 296 6 c 0
 296 16 308 20 319 24 c 0
 339 30 358 41 358 68 c 2
 358 272 l 2
 358 322 308 362 265 362 c 0
 240 362 201 355 182 340 c 0
 161 323 155 309 155 268 c 2
 155 65 l 2
 156 38 173 30 193 24 c 0
 204 20 216 16 216 6 c 0
 216 -2 204 -3 196 -3 c 0
 156 -3 155 2 120 2 c 0
 85 2 79 -3 39 -3 c 0
 32 -3 19 -2 19 6 c 0
 19 16 31 20 42 24 c 0
 62 30 84 38 85 65 c 2
 85 566 l 2
 85 602 74 632 40 639 c 0
 35 640 32 646 32 652 c 0
 32 658 35 663 39 664 c 0
 90 676 123 692 155 704 c 0
 156 704 157 705 157 705 c 2
 161 705 162 701 164 698 c 0
 164 686 155 669 155 562 c 2
 155 388 l 2
 155 376 158 357 163 351 c 1
 194 374 251 414 314 414 c 0
 379 414 428 356 428 278 c 2
 428 53 l 2
 428 43 453 39 471 39 c 0
 479 39 492 42 502 42 c 0
 510 42 516 40 516 34 c 0
 516 32 516 30 515 28 c 0
 507 8 492 -14 488 -108 c 0
 487 -124 475 -139 468 -139 c 0
EndSplineSet
EndChar

StartChar: uni2C6A
Encoding: 11370 11370 177
Width: 475
Flags: W
HStem: -3 27<19.9975 71.766 164.421 212.003> 2 29<256.388 297.968> 206 18<155 170.906> 378 22<273.492 308.089> 384 28<389.276 445.679>
VStem: 85 70<32.0327 198.107 224.002 627.924> 403 41<-138.987 -5.15547>
LayerCount: 2
Fore
SplineSet
424 -139 m 0x6e
 407 -139 403 -121 403 -103 c 0
 404 -93 404 -72 404 -58 c 0
 404 -5 381 2 350 2 c 0x6e
 322 2 340 0 277 0 c 0
 272 0 254 -1 254 9 c 0
 254 20 265 24 277 28 c 0
 287 32 298 36 298 46 c 0
 298 50 295 55 291 60 c 2
 165 205 l 2
 164 206 162 207 160 206 c 0
 157 206 155 203 155 199 c 0
 154 180 154 158 154 135 c 0
 154 112 154 88 155 65 c 0
 155 38 170 30 190 24 c 0
 201 20 213 16 213 6 c 0
 213 -4 195 -3 190 -3 c 0xa6
 151 -3 155 2 120 2 c 0x66
 85 2 81 -3 42 -3 c 0
 37 -3 19 -4 19 6 c 0
 19 16 31 20 42 24 c 0
 62 30 85 38 85 65 c 2
 85 566 l 2
 85 613 72 632 39 639 c 0
 34 640 31 646 31 652 c 0
 31 658 34 663 38 664 c 0
 89 676 107 685 140 698 c 0
 148 701 155 705 159 705 c 0
 162 705 164 700 164 696 c 0
 164 682 155 647 155 562 c 2
 155 231 l 2
 155 227 156 224 160 224 c 0
 164 224 168 226 173 229 c 0
 200 245 282 325 301 347 c 0
 307 354 311 358 311 361 c 0
 311 368 299 375 285 378 c 0
 282 379 273 383 273 386 c 0
 273 398 291 400 295 400 c 2
 344 400 l 2xb6
 380 400 413 409 440 412 c 0
 443 412 448 409 448 405 c 0
 448 397 437 386 428 384 c 0
 403 379 376 364 358 353 c 0
 345 345 278 289 230 247 c 0
 227 245 226 241 225 238 c 0
 225 235 225 232 227 230 c 0
 279 167 353 89 374 70 c 0
 396 49 416 31 434 31 c 0
 442 31 451 35 461 35 c 0
 469 35 475 33 475 27 c 0
 475 25 475 23 474 21 c 0
 466 1 448 -14 444 -108 c 0
 443 -124 431 -139 424 -139 c 0x6e
EndSplineSet
EndChar

StartChar: uni2C6C
Encoding: 11372 11372 178
Width: 377
Flags: W
HStem: 2 33<126.777 288.618> 364 37<95.9758 241.234>
VStem: 37 33<291.591 332.258> 298 41<-138.987 -5.26025>
LayerCount: 2
Fore
SplineSet
319 -139 m 0
 302 -139 298 -121 298 -103 c 0
 298 -88 299 -72 299 -58 c 0
 299 -5 276 2 245 2 c 2
 119 2 l 2
 91 2 56 -5 39 -5 c 0
 34 -5 25 7 25 12 c 0
 25 17 48 51 62 70 c 0
 129 166 175 238 248 354 c 0
 251 358 254 364 239 364 c 2
 122 364 l 2
 104 364 90 337 70 311 c 0
 65 305 53 286 43 286 c 0
 34 286 33 300 37 308 c 0
 45 327 54 373 54 398 c 0
 54 408 65 416 69 416 c 0
 72 416 78 412 84 407 c 0
 90 402 109 401 127 401 c 0
 142 401 156 402 165 402 c 0
 234 402 290 403 351 405 c 0
 356 405 361 397 358 393 c 0
 344 376 334 363 320 343 c 2
 127 50 l 2
 122 42 133 35 139 35 c 2
 277 35 l 2
 316 35 348 41 353 41 c 0
 361 41 367 40 367 34 c 0
 367 32 367 30 366 28 c 0
 358 8 343 -14 339 -108 c 0
 338 -124 326 -139 319 -139 c 0
EndSplineSet
EndChar

StartChar: uni2C71
Encoding: 11377 11377 179
Width: 520
Flags: W
HStem: 359 55<359.711 444.5> 378 27<6.05563 50.2604 155.71 191.944>
LayerCount: 2
Fore
SplineSet
216 -22 m 2x80
 211 -22 199 8 196 17 c 2
 74 329 l 2
 64 353 48 372 28 378 c 0
 17 382 5 386 5 396 c 0
 5 404 18 405 25 405 c 0
 64 405 63 400 98 400 c 0
 133 400 134 405 173 405 c 0
 180 405 193 404 193 396 c 0
 193 386 181 382 170 378 c 0x40
 156 374 150 356 150 337 c 0
 150 328 151 318 154 310 c 2
 228 111 l 2
 233 97 235 96 240 110 c 2
 316 336 l 2
 332 384 362 414 416 414 c 0
 473 414 495 383 495 355 c 0
 495 333 479 314 452 314 c 0
 433 314 424 326 415 337 c 0
 406 348 399 359 386 359 c 0
 370 359 359 338 356 329 c 0
 316 220 261 70 243 23 c 0
 236 7 228 -7 219 -22 c 1
 216 -22 l 2x80
EndSplineSet
EndChar

StartChar: uni2C73
Encoding: 11379 11379 180
Width: 749
Flags: W
HStem: 359 55<608.711 693.5> 378 27<6.05563 53.3292 162.927 199.997 252.997 300.049 402.984 449.944>
VStem: 325 69<275.812 361.333>
LayerCount: 2
Fore
SplineSet
226 -23 m 0xa0
 223 -23 220 -20 219 -16 c 2
 80 329 l 2
 70 355 48 372 28 378 c 0
 17 382 5 386 5 396 c 0
 5 404 18 405 25 405 c 0
 31 405 98 400 98 400 c 1
 98 400 174 405 181 405 c 0
 186 405 201 404 201 396 c 0
 201 386 189 382 178 378 c 0
 164 374 157 357 157 338 c 0
 157 329 159 320 162 312 c 2
 238 116 l 2
 243 102 247 103 253 117 c 2
 319 278 l 2
 323 289 325 299 325 308 c 0
 325 351 296 372 275 378 c 0
 264 381 252 386 252 396 c 0
 252 404 264 405 272 405 c 0
 290 405 310 400 347 400 c 0
 384 400 409 405 431 405 c 0
 438 405 451 404 451 396 c 0
 451 386 439 382 428 378 c 0x60
 413 373 394 366 394 342 c 0
 394 334 396 324 401 312 c 2
 476 119 l 2
 482 105 487 104 492 118 c 2
 565 336 l 2
 581 384 611 414 665 414 c 0
 722 414 744 383 744 355 c 0
 744 333 728 314 701 314 c 0
 682 314 673 326 664 337 c 0
 655 348 648 359 635 359 c 0
 619 359 608 338 605 329 c 2
 477 -16 l 2
 475 -20 472 -23 468 -23 c 0
 465 -23 462 -20 460 -16 c 2
 356 242 l 2
 352 252 349 255 343 241 c 2
 234 -16 l 2
 232 -20 229 -23 226 -23 c 0xa0
EndSplineSet
EndChar

StartChar: uni2C74
Encoding: 11380 11380 181
Width: 426
Flags: W
HStem: 248 53<16.1643 79.7439> 378 27<260.056 298.439 385.433 429.944> 388 42<128.635 179.346>
VStem: 66 62<288.062 386.993> 186 44<294.407 385.167> 307 124<325.5 400>
LayerCount: 2
Fore
SplineSet
411 405 m 0xdc
 418 405 431 404 431 396 c 0
 431 386 419 382 408 378 c 0xdc
 388 372 360 344 346 311 c 2
 268 123 l 2
 263 112 231 23 231 23 c 1
 231 23 209 -22 204 -22 c 0
 199 -22 187 8 184 17 c 2
 94 248 l 1
 61 248 15 254 15 272 c 0
 15 286 27 301 34 301 c 0
 40 301 54 287 81 280 c 1
 75 296 l 2
 69 311 66 320 66 336 c 0
 66 391 116 430 171 430 c 0xbc
 206 430 230 390 230 352 c 0
 230 308 200 277 160 261 c 1
 216 111 l 2
 221 97 223 96 228 110 c 2
 300 295 l 2
 305 308 307 320 307 331 c 0
 307 356 296 374 282 378 c 0
 271 382 259 386 259 396 c 0
 259 404 272 405 279 405 c 0
 294 405 317 400 352 400 c 0
 387 400 392 405 411 405 c 0xdc
152 388 m 0xbc
 139 388 128 377 128 364 c 0
 128 355 139 318 142 310 c 2
 151 285 l 1
 171 294 186 310 186 332 c 0
 186 358 178 388 152 388 c 0xbc
EndSplineSet
EndChar

StartChar: uni2C76
Encoding: 11382 11382 182
Width: 330
Flags: W
HStem: -3 27<17.0556 70.9702 163.03 216.944> 179 35<152.295 261.646> 378 27<22.9241 72.2916 163.827 214.076>
VStem: 82 70<31.3301 179.007 214 371.861> 270 28<126.894 170.255 223.5 267.886>
LayerCount: 2
Fore
SplineSet
36 -3 m 0
 29 -3 16 -2 16 6 c 0
 16 16 28 20 39 24 c 0
 59 30 82 35 82 63 c 2
 82 331 l 2
 82 360 70 374 45 378 c 0
 33 380 22 386 22 396 c 0
 22 404 35 405 42 405 c 0
 82 405 80 400 115 400 c 0
 150 400 155 405 195 405 c 0
 203 405 215 404 215 396 c 0
 215 386 204 380 192 378 c 0
 165 373 152 358 152 331 c 2
 152 238 l 2
 152 219 157 214 163 214 c 2
 233 214 l 2
 254 214 262 227 270 251 c 0
 272 258 278 268 285 268 c 0
 293 268 298 259 297 253 c 0
 296 237 294 213 294 198 c 0
 294 180 297 162 298 143 c 0
 299 137 294 126 288 126 c 0
 276 126 272 146 270 150 c 0
 264 171 249 175 238 177 c 0
 218 179 198 179 177 179 c 0
 158 179 152 180 152 161 c 2
 152 63 l 2
 152 34 175 30 195 24 c 0
 206 20 218 16 218 6 c 0
 218 -2 205 -3 198 -3 c 0
 158 -3 150 2 116 2 c 0
 80 2 76 -3 36 -3 c 0
EndSplineSet
EndChar

StartChar: uni2C77
Encoding: 11383 11383 183
Width: 675
Flags: W
HStem: -13 51<193.889 290 363 487.102> 376 37<147.179 232.951> 383 31<406.92 511.317>
VStem: 35 69<132.446 290.41> 290 73<38 293.606> 558 82<133.045 331.888>
LayerCount: 2
Fore
SplineSet
221 -14 m 2xbc
 108 -14 35 77 35 180 c 0
 35 296 105 413 221 413 c 0
 264 413 287 396 314 369 c 0
 318 365 319 361 319 357 c 0
 319 340 291 323 281 323 c 0
 272 323 261 328 256 333 c 0
 239 350 225 376 189 376 c 0xdc
 121 376 104 293 104 226 c 0
 104 130 162 38 278 38 c 2
 290 38 l 1
 290 187 l 2
 290 298 356 414 479 414 c 0
 595 414 640 331 640 223 c 0
 640 84 495 -13 402 -13 c 2
 221 -14 l 2xbc
363 38 m 1
 438 38 l 2
 486 38 558 84 558 199 c 0
 558 294 547 383 462 383 c 0xbc
 426 383 409 378 385 347 c 0
 358 313 362 258 362 210 c 2
 363 38 l 1
EndSplineSet
EndChar

StartChar: uni2C78
Encoding: 11384 11384 184
Width: 496
Flags: W
HStem: -14 60<170.037 289.088 373.138 444.098> 257 31<111.332 284.014> 383 31<163.177 266.827>
VStem: 30 62<133.034 255.743> 295 65<292.255 362.987> 479 16<111.144 127.073>
LayerCount: 2
Fore
SplineSet
374 -15 m 0
 359 -15 338 12 323 30 c 1
 295 7 253 -14 198 -14 c 0
 107 -14 30 70 30 203 c 0
 30 316 116 414 229 414 c 0
 306 414 360 376 360 302 c 0
 360 272 351 257 325 257 c 2
 117 257 l 2
 101 257 92 254 92 220 c 0
 92 130 153 46 243 46 c 0
 268 46 313 57 339 91 c 0
 342 94 347 98 350 98 c 0
 365 85 383 40 412 40 c 0
 442 40 453 87 479 121 c 0
 482 124 487 128 490 128 c 0
 497 128 497 115 495 107 c 0
 485 72 471 -15 374 -15 c 0
130 288 m 2
 212 288 l 2
 241 288 264 289 285 293 c 0
 292 294 295 310 295 321 c 0
 295 361 252 383 213 383 c 0
 157 383 111 329 111 303 c 0
 111 295 116 288 130 288 c 2
EndSplineSet
EndChar

StartChar: uni2C79
Encoding: 11385 11385 185
Width: 324
Flags: W
HStem: -20 72<26.7062 104.513> 21 24<251.943 321.841> 676 30<76.4052 143.438>
VStem: 173 70<70.5633 648.327>
LayerCount: 2
Fore
SplineSet
168 -20 m 0xb0
 167 -20 160 -18 160 -14 c 0
 160 -5 171 41 171 47 c 0
 171 53 169 54 168 54 c 0
 164 54 151 35 144 29 c 0
 113 1 76 -14 52 -14 c 0
 24 -14 4 0 4 18 c 0
 4 38 23 70 43 70 c 0
 51 70 61 66 71 61 c 0
 82 57 93 52 103 52 c 0xb0
 135 52 173 69 173 136 c 2
 173 488 l 2
 173 636 152 676 109 676 c 0
 60 676 49 599 32 599 c 0
 22 599 8 616 8 638 c 0
 8 678 61 706 125 706 c 0
 210 706 243 658 243 529 c 2
 243 116 l 2
 243 73 245 45 261 45 c 0
 271 45 297 46 307 48 c 0
 312 49 322 47 322 35 c 0
 322 24 313 21 308 21 c 0x70
 256 14 220 -1 191 -13 c 0
 187 -15 173 -19 168 -20 c 0xb0
EndSplineSet
EndChar

StartChar: uni2C7A
Encoding: 11386 11386 186
Width: 495
Flags: W
HStem: -14 30<178 294.365> 130 27<228.879 285.359> 383 31<177.889 291.342>
VStem: 35 82<109.379 279.37> 178 41<45.7464 124.013> 305 41<46.4428 118.205> 378 82<111.572 289.08>
LayerCount: 2
Fore
SplineSet
254 414 m 0
 370 414 460 321 460 213 c 0
 460 96 384 -14 234 -14 c 0
 122 -14 35 70 35 187 c 0
 35 298 131 414 254 414 c 0
358 71 m 0
 374 102 378 150 378 189 c 0
 378 284 322 383 237 383 c 0
 201 383 173 374 149 343 c 0
 122 309 117 258 117 210 c 0
 117 144 143 80 183 45 c 1
 180 54 178 63 178 73 c 0
 178 117 221 157 265 157 c 0
 309 157 346 123 346 79 c 0
 346 67 344 56 340 46 c 1
 347 53 353 61 358 71 c 0
278 18 m 0
 298 23 305 45 305 72 c 0
 305 100 284 130 256 130 c 0
 228 130 219 106 219 78 c 0
 219 46 236 18 263 16 c 0
 268 16 273 17 278 18 c 0
EndSplineSet
EndChar

StartChar: uni2C7B
Encoding: 11387 11387 187
Width: 401
Flags: W
HStem: -5 27<328.708 378.076> -4 35<86.6953 247.378> 182 35<138.354 248.705> 368 34<79.3142 240.851> 376 27<330.03 383.944>
VStem: 103 27<128.177 171.905 226.13 268.914> 249 70<31.5632 182 216.993 361.959>
LayerCount: 2
Fore
SplineSet
365 403 m 0x2e
 372 403 385 402 385 394 c 0
 385 384 373 380 362 376 c 0
 342 370 319 365 319 337 c 2
 319 69 l 2
 319 40 331 26 356 22 c 0
 368 20 379 14 379 4 c 0
 379 -4 366 -5 359 -5 c 0xae
 319 -5 322 0 288 -1 c 0
 200 -1 108 -4 62 -4 c 0
 58 -4 50 -3 50 2 c 0
 48 53 40 76 40 89 c 0
 40 93 44 102 48 102 c 0
 53 102 62 96 67 84 c 0
 81 51 92 31 127 31 c 2
 224 31 l 2
 232 31 249 42 249 55 c 2
 249 158 l 2
 249 177 244 182 238 182 c 2
 167 182 l 2
 146 182 138 169 130 145 c 0
 128 138 122 128 115 128 c 0
 107 128 102 137 103 143 c 0
 104 159 106 183 106 198 c 0
 106 216 103 234 102 253 c 0
 101 259 106 270 112 270 c 0
 124 270 128 250 130 246 c 0
 136 225 151 221 162 219 c 0
 182 217 203 217 224 217 c 0
 243 217 249 216 249 235 c 2
 249 319 l 2
 249 346 240 368 194 368 c 2
 119 368 l 2
 85 368 56 331 41 297 c 0
 39 292 28 275 18 275 c 0
 6 275 7 283 7 287 c 0
 7 295 26 362 29 390 c 0
 29 396 37 402 44 402 c 0x76
 128 402 190 398 260 398 c 0
 296 398 325 403 365 403 c 0x2e
EndSplineSet
EndChar

StartChar: uni2C7C
Encoding: 11388 11388 188
Width: 168
Flags: W
HStem: 316 69<49.0938 115.891>
VStem: 46 73<319.656 381.322> 61 57<-81.6619 193.147>
LayerCount: 2
Fore
SplineSet
82 316 m 0xc0
 64 316 46 333 46 350 c 0
 46 368 64 385 82 385 c 0
 101 385 119 368 119 350 c 0
 119 333 101 316 82 316 c 0xc0
16 -145 m 0
 9 -145 0 -144 0 -137 c 0
 0 -126 6 -120 14 -117 c 0
 29 -112 35 -106 48 -83 c 0
 60 -62 61 -35 61 6 c 2
 61 152 l 2
 61 173 52 191 31 196 c 0
 23 198 22 216 30 218 c 0
 63 225 85 244 108 257 c 0
 113 260 123 257 123 254 c 0
 122 240 118 208 118 156 c 2
 118 18 l 2xa0
 118 -19 114 -40 105 -64 c 0
 91 -101 50 -145 16 -145 c 0
EndSplineSet
EndChar

StartChar: uniA727
Encoding: 42791 42791 189
Width: 510
Flags: W
HStem: -288 32<249.594 325.89> -3 27<19.9975 72.2894 171.029 220.003> 365 49<236.685 335.634>
VStem: 86 70<32.543 331.355 348.82 626.703> 368 70<-144.23 331.919>
LayerCount: 2
Fore
SplineSet
277 -288 m 0
 252 -288 235 -288 211 -278 c 0
 201 -274 184 -262 184 -255 c 0
 184 -239 199 -207 211 -207 c 0
 235 -207 243 -256 286 -256 c 0
 311 -256 343 -236 353 -201 c 0
 365 -160 368 -53 368 50 c 0
 368 148 365 242 365 272 c 0
 365 330 327 365 274 365 c 0
 240 365 206 353 181 334 c 0
 166 323 156 309 156 268 c 2
 156 69 l 2
 156 41 178 30 198 24 c 0
 209 20 221 16 221 6 c 0
 221 -4 203 -3 198 -3 c 0
 159 -3 155 2 120 2 c 0
 85 2 81 -3 42 -3 c 0
 37 -3 19 -4 19 6 c 0
 19 16 31 20 42 24 c 0
 62 30 86 38 86 66 c 2
 86 566 l 2
 86 602 75 632 41 639 c 0
 36 640 33 646 33 652 c 0
 33 658 36 663 40 664 c 0
 91 676 124 692 156 704 c 0
 157 704 158 705 158 705 c 2
 162 705 163 701 165 698 c 0
 165 686 156 669 156 562 c 2
 156 356 l 2
 156 351 160 345 164 349 c 0
 183 368 263 414 326 414 c 0
 391 414 434 373 435 295 c 0
 435 260 438 177 438 90 c 0
 438 -16 434 -128 419 -173 c 0
 390 -259 331 -288 277 -288 c 0
EndSplineSet
EndChar

StartChar: uniA729
Encoding: 42793 42793 190
Width: 544
Flags: W
HStem: -285 40<182.883 318.09> -14 45<159.451 240.026> 100 26<335.774 362.581> 352 24<36.1201 61.0466> 364 36<155.199 177 177.062 375.188>
VStem: 78 74<35.4159 351.842> 419 85<-111.789 44.1177>
LayerCount: 2
Fore
SplineSet
246 -285 m 0xee
 235 -285 190 -284 160 -268 c 0
 145 -261 142 -246 142 -228 c 0
 142 -217 145 -204 156 -204 c 0
 164 -204 186 -245 246 -245 c 0
 270 -245 303 -243 327 -228 c 0
 385 -192 419 -139 419 -67 c 0
 419 7 396 100 320 100 c 0
 274 100 246 89 235 89 c 0
 223 89 231 107 231 107 c 1
 234 115 246 137 258 157 c 2
 383 355 l 2
 386 359 389 364 374 365 c 2
 189 364 l 2xee
 164 364 152 358 152 349 c 2
 152 107 l 2
 152 67 155 31 191 31 c 0
 228 31 241 39 253 48 c 0
 256 50 261 55 264 55 c 0
 269 55 271 48 271 41 c 0
 271 26 222 -14 170 -14 c 0
 118 -14 78 31 78 83 c 2
 78 337 l 2
 78 351 71 352 59 352 c 2
 45 352 l 2
 41 352 35 363 35 370 c 0
 35 373 36 375 38 376 c 0xf6
 80 393 100 423 119 450 c 0
 124 457 142 462 153 462 c 0
 158 462 161 461 161 459 c 2
 155 414 l 2
 154 405 164 400 177 400 c 2
 177 400 262 399 344 400 c 0
 399 400 452 403 481 404 c 0
 486 404 490 396 488 392 c 0
 478 374 471 363 458 343 c 0
 406 263 382 224 336 139 c 0
 331 129 337 126 345 126 c 0
 352 126 360 128 362 128 c 0
 445 128 504 55 504 -31 c 0
 504 -138 390 -229 331 -259 c 0
 302 -274 269 -284 246 -285 c 0xee
EndSplineSet
EndChar

StartChar: uniA72B
Encoding: 42795 42795 191
Width: 395
Flags: W
HStem: -190 55<156.022 250.43> 367 46<205.559 305.718>
VStem: 41 76<138.469 263.651> 71 70<-119.711 -12.6118>
LayerCount: 2
Fore
SplineSet
179 -190 m 0xd0
 114 -190 71 -149 71 -86 c 0xd0
 71 -54 87 11 165 56 c 0
 169 58 169 62 164 62 c 0
 72 64 41 126 41 170 c 0
 41 291 126 353 205 392 c 0
 229 404 262 413 274 413 c 0
 331 413 387 391 387 357 c 0
 387 340 357 318 347 318 c 0
 328 318 319 330 309 342 c 0
 298 354 285 367 256 367 c 0
 174 367 117 302 117 206 c 0xe0
 117 174 129 111 203 111 c 0
 234 111 261 131 265 131 c 0
 273 131 282 130 282 122 c 0
 282 113 263 95 251 88 c 0
 229 75 210 63 181 37 c 0
 163 21 141 -16 141 -69 c 0
 141 -107 166 -135 205 -135 c 0
 250 -135 274 -114 301 -85 c 0
 304 -81 312 -77 317 -77 c 0
 322 -77 324 -82 324 -89 c 0
 324 -110 256 -190 179 -190 c 0xd0
EndSplineSet
EndChar

StartChar: uniA72D
Encoding: 42797 42797 192
Width: 492
Flags: W
HStem: -287 27<172.615 210.488> 43 61<116 259.185> 53 51<117.124 278 350.143 459.476>
VStem: 278 72<29 49.9258 104.023 332.138>
LayerCount: 2
Fore
SplineSet
193 -287 m 0xb0
 186 -287 172 -284 172 -277 c 0
 172 -269 181 -261 183 -260 c 0
 207 -254 230 -237 249 -197 c 0
 278 -136 278 0 278 28 c 2
 278 41 l 2
 278 47 264 50 263 50 c 0
 181 50 139 44 34 43 c 0xd0
 29 43 21 43 21 48 c 0
 21 49 24 55 25 56 c 0
 91 134 198 283 311 427 c 0
 325 445 343 471 351 471 c 0
 357 471 354 464 354 459 c 0
 354 322 350 246 350 109 c 0
 350 106 352 103 355 103 c 0
 370 102 383 102 395 102 c 0
 414 102 432 103 454 104 c 0
 460 104 465 101 465 97 c 0
 465 81 451 53 444 53 c 0
 429 53 411 54 395 54 c 0
 383 54 372 53 364 52 c 0
 359 51 351 47 351 46 c 2
 350 29 l 1
 350 29 350 -72 321 -152 c 0
 296 -220 233 -287 193 -287 c 0xb0
116 104 m 2
 266 104 l 2xb0
 271 104 278 108 278 112 c 2
 278 331 l 2
 278 334 270 335 268 332 c 0
 206 249 174 200 116 113 c 0
 114 110 112 104 116 104 c 2
EndSplineSet
EndChar

StartChar: uniA72F
Encoding: 42799 42799 193
Width: 635
Flags: W
HStem: -287 27<172.615 210.488> -257 23<427.033 474.141> -81 88<459.443 529.388> 43 61<116 259.185> 53 51<117.124 278 350.143 459.476>
VStem: 278 72<29 49.9258 104.023 332.138> 537 52<-170.092 -60.8132>
LayerCount: 2
Fore
SplineSet
193 -287 m 0xee
 186 -287 172 -284 172 -277 c 0
 172 -269 181 -261 183 -260 c 0
 207 -254 230 -237 249 -197 c 0
 278 -136 278 0 278 28 c 2
 278 41 l 2
 278 47 264 50 263 50 c 0
 181 50 139 44 34 43 c 0xf6
 29 43 21 43 21 48 c 0
 21 49 24 55 25 56 c 0
 91 134 198 283 311 427 c 0
 325 445 343 471 351 471 c 0
 357 471 354 464 354 459 c 0
 354 322 350 246 350 109 c 0
 350 106 352 103 355 103 c 0
 370 102 383 102 395 102 c 0
 414 102 432 103 454 104 c 0
 460 104 465 101 465 97 c 0
 465 81 451 53 444 53 c 0
 429 53 411 54 395 54 c 0
 383 54 372 53 364 52 c 0
 359 51 351 47 351 46 c 2
 350 29 l 1
 350 29 350 -72 321 -152 c 0
 296 -220 233 -287 193 -287 c 0xee
116 104 m 2
 266 104 l 2xee
 271 104 278 108 278 112 c 2
 278 331 l 2
 278 334 270 335 268 332 c 0
 206 249 174 200 116 113 c 0
 114 110 112 104 116 104 c 2
445 -257 m 0
 433 -257 427 -252 427 -246 c 0
 427 -241 432 -236 441 -234 c 0
 484 -225 537 -195 537 -125 c 0
 537 -109 520 -83 498 -81 c 0
 469 -78 451 -61 451 -39 c 0
 451 -12 477 7 506 7 c 0
 554 7 589 -34 589 -90 c 0
 589 -191 496 -257 445 -257 c 0
EndSplineSet
EndChar

StartChar: uniA730
Encoding: 42800 42800 194
Width: 371
Flags: W
HStem: -3 27<17.0556 70.9702 163.03 216.944> 179 35<152.295 261.646> 369 35<153.622 314.305> 378 27<22.9241 72.2916>
VStem: 82 70<31.3301 179.007 214 368.437> 270 28<126.894 170.255 223.5 267.886>
LayerCount: 2
Fore
SplineSet
36 -3 m 0xec
 29 -3 16 -2 16 6 c 0
 16 16 28 20 39 24 c 0
 59 30 82 35 82 63 c 2
 82 331 l 2
 82 360 70 374 45 378 c 0
 33 380 22 386 22 396 c 0
 22 404 35 405 42 405 c 0xdc
 70 405 85 401 113 401 c 0
 201 401 293 404 339 404 c 0
 343 404 351 403 351 398 c 0
 353 347 361 324 361 311 c 0
 361 307 357 298 353 298 c 0
 348 298 339 304 334 316 c 0
 320 349 309 369 274 369 c 2
 177 369 l 2
 169 369 152 358 152 345 c 2
 152 238 l 2
 152 219 157 214 163 214 c 2
 233 214 l 2
 254 214 262 227 270 251 c 0
 272 258 278 268 285 268 c 0
 293 268 298 259 297 253 c 0
 296 237 294 213 294 198 c 0
 294 180 297 162 298 143 c 0
 299 137 294 126 288 126 c 0
 276 126 272 146 270 150 c 0
 264 171 249 175 238 177 c 0
 218 179 198 179 177 179 c 0
 158 179 152 180 152 161 c 2
 152 63 l 2
 152 34 175 30 195 24 c 0
 206 20 218 16 218 6 c 0
 218 -2 205 -3 198 -3 c 0
 158 -3 150 2 116 2 c 0
 80 2 76 -3 36 -3 c 0xec
EndSplineSet
EndChar

StartChar: uniA731
Encoding: 42801 42801 195
Width: 440
GlyphClass: 2
Flags: W
HStem: -14 23<159.024 248.554> 433 25<186.822 272.213>
VStem: 60 29<82.2819 132.064> 83 70<310.199 402.01> 290 80<57.0416 144.422> 324 32<332.474 387.166>
AnchorPoint: "Anchor-15" 0 0 basechar 0
AnchorPoint: "Anchor-14" 223 503 basechar 0
AnchorPoint: "Anchor-13" 0 0 basechar 0
AnchorPoint: "Anchor-12" 0 0 basechar 0
LayerCount: 2
Fore
SplineSet
193 -14 m 0xd8
 139 -14 113 2 88 7 c 0
 77 9 79 12 77 15 c 0
 69 31 61 85 60 110 c 0
 60 116 58 133 70 133 c 0
 82 133 85 116 89 108 c 0
 105 79 138 9 200 9 c 0
 262 9 290 48 290 90 c 0xe8
 290 119 277 144 244 165 c 2
 166 215 l 2
 116 247 83 285 83 340 c 0
 83 417 164 458 241 458 c 0
 289 458 321 449 336 447 c 0
 343 446 348 439 349 433 c 0
 354 409 355 377 356 352 c 0
 356 346 351 332 343 332 c 0
 335 332 326 342 324 352 c 0xd4
 306 415 257 433 232 433 c 0
 185 433 153 402 153 364 c 0
 153 320 176 305 214 282 c 2
 299 230 l 2
 342 203 370 164 370 115 c 0
 370 60 306 -14 193 -14 c 0xd8
EndSplineSet
EndChar

StartChar: uniA743
Encoding: 42819 42819 196
Width: 469
GlyphClass: 2
Flags: W
HStem: -3 27<19.3057 71.766 164.421 212.685 254.143 293.768 423.515 478.593> 206 19<155 171.906> 378 22<273.093 309.401> 384 28<389.323 447.893>
VStem: 85 70<32.0327 205.999 225.002 627.924>
AnchorPoint: "Anchor-15" 234 -30 basechar 0
AnchorPoint: "Anchor-14" 0 0 basechar 0
AnchorPoint: "Anchor-13" 0 0 basechar 0
AnchorPoint: "Anchor-12" 0 0 basechar 0
LayerCount: 2
Fore
SplineSet
449 26 m 0xd8
 463 21 479 18 479 8 c 0
 479 -1 471 -3 459 -3 c 0
 407 -3 340 0 272 0 c 0
 258 0 254 4 254 9 c 0
 254 17 262 22 271 25 c 0
 286 30 298 36 298 48 c 0
 298 52 295 57 291 62 c 2
 254 104 l 1
 219 69 l 2
 212 63 201 67 197 71 c 0
 190 78 193 92 202 100 c 2
 231 130 l 1
 170 199 l 2
 166 204 164 206 160 206 c 0
 157 206 155 204 155 199 c 0
 154 180 154 158 154 135 c 0
 154 112 154 88 155 65 c 0
 155 38 170 30 190 24 c 0
 201 20 213 18 213 8 c 0
 213 -2 195 -3 190 -3 c 0
 151 -3 155 2 120 2 c 0
 85 2 81 -3 42 -3 c 0
 27 -3 19 0 19 8 c 0
 19 18 31 20 42 24 c 0
 62 30 85 38 85 65 c 2
 85 566 l 2
 85 613 73 631 40 639 c 0
 34 640 31 646 31 652 c 0
 31 658 34 663 39 664 c 0
 90 676 119 689 149 702 c 0
 153 704 155 705 158 705 c 0
 162 705 164 702 164 696 c 0
 164 682 155 647 155 562 c 2
 155 234 l 2
 155 228 157 225 160 225 c 0
 168 225 181 232 196 245 c 0
 250 292 289 333 302 348 c 0
 309 356 311 360 311 363 c 0
 311 370 297 375 285 378 c 0
 276 380 273 382 273 388 c 0
 273 395 281 400 295 400 c 2
 344 400 l 2xe8
 375 400 416 412 435 412 c 0
 444 412 449 408 449 402 c 0
 449 394 438 388 424 384 c 0
 399 377 376 364 358 353 c 0
 345 345 278 289 230 247 c 0
 226 243 224 240 224 237 c 0
 224 235 225 232 227 230 c 0
 242 212 258 192 275 174 c 1
 332 231 l 2
 337 235 346 237 349 234 c 2
 351 231 l 1
 355 217 354 205 344 194 c 2
 298 148 l 1
 332 113 362 83 374 72 c 0
 396 51 429 33 449 26 c 0xd8
EndSplineSet
EndChar

StartChar: uniA749
Encoding: 42825 42825 197
Width: 280
GlyphClass: 2
Flags: W
HStem: -3 27<39.0556 92.9702 185.03 238.944>
VStem: 104 70<31.1488 481 551 627.687>
AnchorPoint: "Anchor-15" 140 -30 basechar 0
AnchorPoint: "Anchor-14" 0 0 basechar 0
AnchorPoint: "Anchor-13" 0 0 basechar 0
AnchorPoint: "Anchor-12" 0 0 basechar 0
LayerCount: 2
Fore
SplineSet
232 544 m 2
 174 513 l 1
 174 62 l 2
 174 35 197 30 217 24 c 0
 228 20 240 16 240 6 c 0
 240 -2 227 -3 220 -3 c 0
 181 -3 174 2 139 2 c 0
 104 2 97 -3 58 -3 c 0
 51 -3 38 -2 38 6 c 0
 38 16 50 20 61 24 c 0
 81 30 104 35 104 62 c 2
 104 481 l 1
 50 452 l 2
 42 448 30 460 30 468 c 0
 30 477 38 483 43 486 c 2
 104 519 l 1
 104 566 l 2
 104 605 91 632 58 639 c 0
 53 640 50 646 50 652 c 0
 50 658 53 663 57 664 c 0
 108 676 138 691 170 703 c 0
 172 704 174 705 176 705 c 0
 179 705 181 701 181 698 c 0
 181 686 174 652 174 562 c 2
 174 551 l 1
 232 582 l 2
 234 583 237 584 239 584 c 0
 245 584 250 579 250 564 c 0
 250 557 241 549 232 544 c 2
EndSplineSet
EndChar

StartChar: uniA751
Encoding: 42833 42833 198
Width: 519
GlyphClass: 2
Flags: W
HStem: -285 27<19.9975 73.9702 172.131 235.003> -190 89<-37.1825 -2.0024> -137 36<8.0625 85 155 369.669> -14 31<227.473 322.672> 369 45<232.033 339.995>
VStem: 85 70<-246.875 -137 -101 17.9674 86.2615 336.424> 404 80<127.023 298.226>
AnchorPoint: "Anchor-15" 0 0 basechar 0
AnchorPoint: "Anchor-14" 263 440 basechar 0
AnchorPoint: "Anchor-13" 0 0 basechar 0
AnchorPoint: "Anchor-12" 0 0 basechar 0
LayerCount: 2
Fore
SplineSet
159 18 m 0xbe
 156 18 155 -27 155 -33 c 2
 155 -101 l 1
 342 -101 l 2
 362 -101 371 -104 371 -113 c 0
 371 -128 352 -137 330 -137 c 2
 155 -137 l 1
 155 -220 l 2
 155 -247 193 -252 213 -258 c 0
 224 -262 236 -266 236 -276 c 0
 236 -284 222 -285 214 -285 c 0
 175 -285 155 -280 120 -280 c 0
 85 -280 79 -285 40 -285 c 0
 33 -285 19 -284 19 -276 c 0
 19 -266 31 -262 42 -258 c 0
 62 -252 85 -247 85 -220 c 2
 85 -137 l 1
 57 -137 l 2xbe
 24 -137 11 -146 -2 -169 c 0
 -10 -183 -13 -190 -25 -190 c 0
 -34 -190 -44 -150 -44 -124 c 0
 -44 -109 -38 -101 -15 -101 c 2xde
 85 -101 l 1
 85 287 l 2
 85 302 72 353 39 360 c 0
 34 361 31 367 31 373 c 0
 31 379 34 384 38 385 c 0
 89 397 122 412 154 425 c 0
 155 425 155 426 156 426 c 0
 159 426 162 421 162 417 c 0
 162 405 157 373 157 357 c 0
 157 353 157 349 158 348 c 1
 177 367 257 414 320 414 c 0
 423 414 484 319 484 225 c 0
 484 106 385 -14 259 -14 c 0
 231 -14 179 0 159 18 c 0xbe
158 317 m 0
 158 259 155 190 155 166 c 0
 155 85 220 17 274 17 c 0
 313 17 404 59 404 193 c 0
 404 347 311 369 268 369 c 0
 220 369 158 331 158 317 c 0
EndSplineSet
EndChar

StartChar: uniA753
Encoding: 42835 42835 199
Width: 634
Flags: W
HStem: -285 27<134.997 188.97 287.131 350.003> -275 44<-69 16.2533> -14 31<310.568 437.672> 80 36<94.7252 167.875> 369 45<346.792 454.995>
VStem: 10 71<-157.201 53.6888> 24 68<-203.214 -12.2684> 200 70<-246.875 17.9674 103.122 335.047> 519 80<127.023 298.226>
LayerCount: 2
Fore
SplineSet
155 -285 m 0xbd80
 148 -285 134 -284 134 -276 c 0
 134 -266 146 -262 157 -258 c 0
 177 -252 200 -247 200 -220 c 2
 200 29 l 1
 182 51 156 80 128 80 c 0
 96 80 81 48 81 14 c 0xbd80
 81 -49 92 -109 92 -147 c 0
 92 -204 14 -275 -54 -275 c 0
 -84 -275 -109 -259 -109 -239 c 0
 -109 -217 -89 -193 -68 -193 c 0
 -42 -193 -33 -231 -5 -231 c 0
 17 -231 24 -199 24 -170 c 0x7b80
 24 -154 10 -67 10 -34 c 0
 10 44 56 116 136 116 c 0
 157 116 179 110 200 102 c 1
 200 287 l 2
 200 302 187 353 154 360 c 0
 149 361 146 367 146 373 c 0
 146 379 149 384 153 385 c 0
 204 397 237 412 269 425 c 0
 270 425 270 426 271 426 c 0
 274 426 277 421 277 417 c 0
 277 405 272 373 272 357 c 0
 272 353 272 349 273 348 c 1
 292 367 372 414 435 414 c 0
 538 414 599 319 599 225 c 0
 599 106 500 -14 374 -14 c 0
 346 -14 294 0 274 18 c 0
 271 18 270 -27 270 -33 c 2
 270 -220 l 2
 270 -247 308 -252 328 -258 c 0
 339 -262 351 -266 351 -276 c 0
 351 -284 337 -285 329 -285 c 0
 290 -285 270 -280 235 -280 c 0
 200 -280 194 -285 155 -285 c 0xbd80
389 17 m 0
 428 17 519 59 519 193 c 0
 519 347 426 369 383 369 c 0
 349 369 322 359 297 340 c 0
 282 329 273 310 271 269 c 0
 271 252 270 229 270 205 c 0
 270 171 271 136 272 115 c 0
 273 97 277 60 296 42 c 0
 311 28 345 17 389 17 c 0
EndSplineSet
EndChar

StartChar: uniA757
Encoding: 42839 42839 200
Width: 522
Flags: W
HStem: -285 27<312.056 365.97 461.69 521.003> -137 36<198.062 377 447 559.669> -14 53<191.053 311.347> 382 32<198.653 318.636>
VStem: 35 82<112.735 280.438> 377 70<-248.32 -137 -101 42.9948 62.939 335.223>
LayerCount: 2
Fore
SplineSet
520 -137 m 2
 447 -137 l 1
 447 -220 l 2
 447 -247 479 -252 499 -258 c 0
 510 -262 522 -266 522 -276 c 0
 522 -284 510 -285 502 -285 c 0
 462 -285 448 -280 412 -280 c 0
 377 -280 371 -285 331 -285 c 0
 324 -285 311 -284 311 -276 c 0
 311 -266 323 -262 334 -258 c 0
 354 -252 377 -247 377 -220 c 2
 377 -137 l 1
 247 -137 l 2
 214 -137 201 -146 188 -169 c 0
 180 -183 177 -190 165 -190 c 0
 156 -190 146 -150 146 -124 c 0
 146 -109 152 -101 175 -101 c 2
 377 -101 l 1
 377 13 l 2
 377 36 375 43 371 43 c 0
 368 43 365 44 362 41 c 0
 345 26 288 -14 235 -14 c 0
 131 -14 35 54 35 178 c 0
 35 319 135 414 282 414 c 0
 350 414 405 392 410 392 c 0
 424 392 429 402 436 417 c 0
 437 418 440 421 443 421 c 0
 449 421 459 416 459 411 c 0
 459 398 447 352 447 295 c 2
 447 -101 l 1
 532 -101 l 2
 552 -101 561 -104 561 -113 c 0
 561 -128 542 -137 520 -137 c 2
272 39 m 0
 316 39 361 61 378 80 c 1
 378 116 378 250 377 275 c 0
 375 335 323 382 257 382 c 0
 185 382 117 320 117 205 c 0
 117 72 212 39 272 39 c 0
EndSplineSet
EndChar

StartChar: uniA759
Encoding: 42841 42841 201
Width: 724
Flags: W
HStem: -285 27<312.056 365.97 461.69 521.003> -14 38<204.516 336.195> 355 42<506.721 599.336> 382 32<198.653 318.636>
VStem: 35 82<108.761 280.438> 377 70<-248.32 -117 -85.4569 -54.9254 -21 24.9948 45.2624 296.824> 613 78<190.474 342.881>
LayerCount: 2
Fore
SplineSet
331 -285 m 0xee
 324 -285 311 -284 311 -276 c 0
 311 -266 323 -262 334 -258 c 0
 354 -252 377 -247 377 -220 c 2
 377 -117 l 1
 344 -141 307 -169 262 -201 c 0
 251 -209 231 -238 228 -247 c 0
 219 -272 211 -277 200 -277 c 0
 191 -277 167 -254 167 -243 c 0
 167 -228 178 -216 246 -167 c 0
 281 -142 326 -109 377 -69 c 1
 377 -5 l 2
 377 18 375 25 371 25 c 0
 368 25 365 23 362 20 c 0
 345 5 298 -14 235 -14 c 0
 131 -14 35 54 35 178 c 0
 35 319 135 414 282 414 c 0xde
 350 414 405 392 410 392 c 0
 424 392 429 402 436 417 c 0
 437 418 440 421 443 421 c 0
 449 421 459 416 459 411 c 0
 459 401 452 371 449 332 c 1
 484 371 529 397 584 397 c 0
 639 397 691 363 691 302 c 0
 691 156 585 42 492 -36 c 0
 477 -49 462 -60 447 -72 c 1
 447 -220 l 2
 447 -247 479 -252 499 -258 c 0
 510 -262 522 -266 522 -276 c 0
 522 -284 510 -285 502 -285 c 0
 462 -285 448 -280 412 -280 c 0
 377 -280 371 -285 331 -285 c 0xee
272 24 m 0
 306 24 333 28 358 47 c 0
 378 61 378 124 378 171 c 0
 378 207 378 250 377 275 c 0
 375 335 323 382 257 382 c 0
 185 382 117 320 117 205 c 0
 117 72 212 24 272 24 c 0
447 -21 m 1
 461 -10 475 2 489 14 c 0
 566 78 613 170 613 284 c 0
 613 331 591 355 555 355 c 0xee
 518 355 475 311 447 271 c 1
 447 -21 l 1
EndSplineSet
EndChar

StartChar: uniA76B
Encoding: 42859 42859 202
Width: 297
Flags: W
HStem: 112 39<146.815 159.333> 345 43<57.5949 145.038>
VStem: 161 70<214.485 329.905> 191 71<-39.1019 82.955>
LayerCount: 2
Fore
SplineSet
74 -169 m 0xd0
 66 -169 59 -164 59 -155 c 0
 59 -147 86 -134 102 -122 c 0
 152 -86 191 -49 191 16 c 0xd0
 191 64 162 112 115 112 c 0
 84 112 57 92 53 92 c 0
 45 92 36 93 36 101 c 0
 36 110 44 121 56 128 c 0
 77 140 89 145 118 171 c 0
 153 202 161 232 161 277 c 0
 161 310 139 345 105 345 c 0
 75 345 53 332 38 319 c 0
 33 315 24 311 19 311 c 0
 14 311 12 316 12 323 c 0
 12 337 67 388 131 388 c 0
 182 388 231 351 231 301 c 0xe0
 231 257 224 201 147 157 c 0
 143 155 143 151 148 151 c 0
 209 151 262 108 262 48 c 0
 262 -50 193 -116 114 -155 c 0
 100 -162 84 -169 74 -169 c 0xd0
EndSplineSet
EndChar

StartChar: uniA78E
Encoding: 42894 42894 203
Width: 276
Flags: W
HStem: -288 28<220.4 290.593> 265 42<61.1911 114> 414 29<42.1904 93.7053>
VStem: -14 52<328.289 412.813> 114 70<-219.875 265 312 401.637 439 625.405> 302 72<-248.392 -189.197>
LayerCount: 2
Fore
SplineSet
232 -288 m 0
 154 -288 114 -211 114 -104 c 2
 114 265 l 1
 43 268 -14 298 -14 352 c 0
 -14 405 24 443 81 443 c 0
 93 443 104 442 114 439 c 1
 114 566 l 2
 114 605 101 632 68 639 c 0
 63 640 60 646 60 652 c 0
 60 658 63 663 67 664 c 0
 118 676 151 692 183 704 c 0
 184 704 184 705 185 705 c 0
 188 705 191 701 191 698 c 0
 191 686 184 652 184 562 c 2
 184 312 l 1
 207 318 229 327 254 342 c 0
 259 345 269 355 276 355 c 0
 285 355 285 347 285 338 c 0
 285 331 237 296 184 277 c 1
 183 -44 l 2
 183 -210 208 -260 252 -260 c 0
 288 -260 302 -238 302 -219 c 0
 302 -201 344 -169 365 -169 c 0
 373 -169 374 -182 374 -195 c 0
 374 -258 311 -288 232 -288 c 0
114 307 m 1
 114 333 l 2
 114 375 97 414 64 414 c 0
 49 414 38 399 38 384 c 0
 38 339 63 312 114 307 c 1
EndSplineSet
EndChar

StartChar: f_f
Encoding: 64256 -1 204
Width: 575
Flags: MW
HStem: -3 21G<37.5 64 186 212.5 294.5 321 466 492.5> 352 48<185 200 200 295 428 436 436 551> 386 20G<347 347> 623 41<266.5 295> 665 41<543.5 547>
VStem: 90 70<68 335 413 422 422 433> 347 70<68 339 406 410 410 440.5>
LayerCount: 2
Fore
SplineSet
567 706 m 0xce
 641 706 677 681 677 646 c 0
 677 619 661 606 643 606 c 0
 631 606 622 617 609 629 c 0
 592 646 569 665 525 665 c 0xce
 462 665 417 611 417 498 c 2
 417 410 l 2
 417 402 422 400 428 400 c 2
 553 400 l 2
 560 400 566 395 566 389 c 0
 566 380 564 368 560 360 c 0
 558 355 554 352 551 352 c 2
 436 352 l 2
 420 352 417 347 417 339 c 2
 417 68 l 2
 417 41 429 30 483 24 c 0
 497 22 506 18 506 8 c 0
 506 0 499 -3 486 -3 c 0
 446 -3 419 2 384 2 c 0
 349 2 341 -3 301 -3 c 0
 288 -3 281 0 281 8 c 0
 281 18 290 21 304 24 c 0
 335 31 347 41 347 68 c 2
 347 350 l 1
 334 350 316 350 295 352 c 2
 200 352 l 2
 164 352 160 345 160 335 c 2
 160 68 l 2
 160 42 182 29 203 24 c 0
 217 21 226 18 226 8 c 0
 226 0 219 -3 206 -3 c 0
 166 -3 162 2 127 2 c 0
 92 2 84 -3 44 -3 c 0
 31 -3 24 0 24 8 c 0
 24 18 33 20 47 24 c 0
 67 30 90 41 90 68 c 2
 90 350 l 1
 77 350 59 350 38 352 c 0
 34 353 24 363 24 370 c 0
 24 373 29 375 31 376 c 0
 61 384 70 392 90 402 c 1
 90 591 223 664 310 664 c 0xd6
 358 664 395 649 414 631 c 1
 460 686 520 706 567 706 c 0xce
185 400 m 2xd6
 335 400 l 1xd6
 347 406 l 1xb6
 347 475 359 529 378 572 c 1
 372 576 366 582 359 589 c 0
 342 606 317 623 273 623 c 0
 206 623 160 568 160 433 c 2
 160 422 l 2
 160 404 172 400 185 400 c 2xd6
EndSplineSet
Ligature2: "EBGaramond-Regular-'liga' Standard Ligatures lookup 27 subtable" f f
EndChar

StartChar: f_f_i
Encoding: 64259 -1 205
Width: 776
Flags: MW
HStem: -3 21G<37.5 64 186 212.5 298.5 322 444 467.5 571.5 595 717 740.5> 352 48<185 200 200 296> 623 41<266.5 295> 666 40<565.5 569.5>
VStem: 90 70<68 335 413 422 422 433> 348 70<68 332 412 420 420 437> 621 70<68 275>
LayerCount: 2
Fore
SplineSet
734 24 m 0
 745 20 757 16 757 6 c 0
 757 -2 744 -3 737 -3 c 0
 697 -3 691 2 656 2 c 0
 621 2 615 -3 575 -3 c 0
 568 -3 555 -2 555 6 c 0
 555 16 567 20 578 24 c 0
 598 30 621 39 621 68 c 2
 621 279 l 2
 621 316 607 345 573 352 c 0
 570 353 547 353 519 353 c 0
 499 353 476 353 458 352 c 0
 419 350 418 344 418 332 c 2
 418 68 l 2
 418 39 441 30 461 24 c 0
 472 20 484 16 484 6 c 0
 484 -2 471 -3 464 -3 c 0
 424 -3 418 2 383 2 c 0
 348 2 342 -3 302 -3 c 0
 295 -3 282 -2 282 6 c 0
 282 16 294 20 305 24 c 0
 325 30 348 39 348 68 c 2
 348 350 l 1
 334 350 317 349 296 352 c 2
 200 352 l 2
 164 352 160 345 160 335 c 2
 160 68 l 2
 160 42 182 29 203 24 c 0
 217 21 226 18 226 8 c 0
 226 0 219 -3 206 -3 c 0
 166 -3 162 2 127 2 c 0
 92 2 84 -3 44 -3 c 0
 31 -3 24 0 24 8 c 0
 24 18 33 20 47 24 c 0
 67 30 90 41 90 68 c 2
 90 350 l 1
 77 350 59 350 38 352 c 0
 34 353 24 363 24 370 c 0
 24 373 29 375 31 376 c 0
 61 384 70 392 90 402 c 1
 90 591 223 664 310 664 c 0xee
 363 664 402 646 419 626 c 1
 471 686 541 706 590 706 c 0
 649 706 720 691 720 641 c 0
 720 604 695 589 670 589 c 0
 653 589 644 604 631 620 c 0
 615 641 593 666 546 666 c 0xde
 482 666 418 610 418 475 c 2
 418 420 l 2
 418 404 430 402 443 400 c 0
 480 396 523 393 560 393 c 0
 596 393 625 396 634 400 c 0
 653 411 669 422 687 433 c 0
 692 435 699 434 699 429 c 0
 697 406 691 362 691 275 c 2
 691 68 l 2
 691 39 714 30 734 24 c 0
185 400 m 2
 344 400 l 2
 345 401 346 401 348 402 c 0
 348 472 361 527 382 569 c 1
 375 573 368 581 359 589 c 0
 342 606 317 623 273 623 c 0
 206 623 160 568 160 433 c 2
 160 422 l 2
 160 404 172 400 185 400 c 2
EndSplineSet
Ligature2: "EBGaramond-Regular-'liga' Standard Ligatures lookup 27 subtable" f f i
EndChar

StartChar: f_f_l
Encoding: 64260 -1 206
Width: 761
Flags: MW
HStem: -3 21G<37.5 64 186 212.5 298.5 322 444 467.5 556.5 580 702 725.5> 352 48<185 200 200 289 443 458 458 596> 623 41<266.5 295> 666 40<565.5 575.5> 677 20G
VStem: 90 70<68 335 413 422 422 433> 348 70<68 332> 607 70<68 342 342 346 410 562>
LayerCount: 2
Fore
SplineSet
719 24 m 0xef
 730 20 742 16 742 6 c 0
 742 -2 729 -3 722 -3 c 0
 682 -3 676 2 641 2 c 0
 606 2 600 -3 560 -3 c 0
 553 -3 540 -2 540 6 c 0
 540 16 552 20 563 24 c 0
 583 30 607 39 607 68 c 2
 607 342 l 2
 607 350 600 352 596 352 c 2
 458 352 l 2
 419 352 418 344 418 332 c 2
 418 68 l 2
 418 39 441 30 461 24 c 0
 472 20 484 16 484 6 c 0
 484 -2 471 -3 464 -3 c 0
 424 -3 418 2 383 2 c 0
 348 2 342 -3 302 -3 c 0
 295 -3 282 -2 282 6 c 0
 282 16 294 20 305 24 c 0
 325 30 348 39 348 68 c 2
 348 350 l 1
 334 350 310 350 289 352 c 2
 200 352 l 2
 164 352 160 345 160 335 c 2
 160 68 l 2
 160 42 182 29 203 24 c 0
 217 21 226 18 226 8 c 0
 226 0 219 -3 206 -3 c 0
 166 -3 162 2 127 2 c 0
 92 2 84 -3 44 -3 c 0
 31 -3 24 0 24 8 c 0
 24 18 33 20 47 24 c 0
 67 30 90 41 90 68 c 2
 90 350 l 1
 77 350 59 350 38 352 c 0
 34 353 24 363 24 370 c 0
 24 373 29 375 31 376 c 0
 61 384 70 392 90 402 c 1
 90 591 223 664 310 664 c 0xef
 364 664 402 645 420 626 c 1
 472 686 541 706 590 706 c 0xd7
 605 706 624 705 643 698 c 0
 648 697 653 695 658 697 c 0xef
 662 699 667 702 672 703 c 0
 674 704 675 704 677 704 c 0
 681 704 683 703 683 698 c 0xd7
 683 686 677 652 677 562 c 2
 677 68 l 2
 677 39 699 30 719 24 c 0xef
607 410 m 2
 607 566 l 2
 607 597 607 666 544 666 c 0xd7
 482 666 418 610 418 475 c 2
 418 420 l 2
 418 404 430 400 443 400 c 2
 598 400 l 2
 604 400 607 403 607 410 c 2
185 400 m 2
 344 400 l 2
 345 401 347 401 348 402 c 0
 349 471 362 526 383 569 c 1
 375 573 368 581 359 589 c 0
 342 606 317 623 273 623 c 0xef
 206 623 160 568 160 433 c 2
 160 422 l 2
 160 404 172 400 185 400 c 2
EndSplineSet
Ligature2: "EBGaramond-Regular-'liga' Standard Ligatures lookup 27 subtable" f f l
EndChar

StartChar: f_i
Encoding: 64257 -1 207
Width: 518
Flags: MW
HStem: -3 21G<40.5 64 186 209.5 313.5 337 459 482.5> 352 48 666 40<288.5 311.5>
VStem: 90 70<68 332 412 420 420 475> 363 70<68 275>
LayerCount: 2
Fore
SplineSet
44 -3 m 0
 37 -3 24 -2 24 6 c 0
 24 16 36 20 47 24 c 0
 67 30 90 39 90 68 c 2
 90 350 l 1
 76 350 59 349 38 352 c 0
 32 353 27 361 27 370 c 0
 27 375 31 378 38 380 c 0
 62 387 72 394 90 402 c 1
 90 642 245 706 332 706 c 0
 391 706 462 691 462 641 c 0
 462 604 437 589 412 589 c 0
 395 589 386 604 373 620 c 0
 357 641 335 666 288 666 c 0
 224 666 160 610 160 475 c 2
 160 420 l 2
 160 404 172 402 185 400 c 0
 222 396 265 393 302 393 c 0
 338 393 367 396 376 400 c 0
 395 411 411 422 429 433 c 0
 434 435 441 434 441 429 c 0
 439 406 433 362 433 275 c 2
 433 68 l 2
 433 39 456 30 476 24 c 0
 487 20 499 16 499 6 c 0
 499 -2 486 -3 479 -3 c 0
 439 -3 433 2 398 2 c 0
 363 2 357 -3 317 -3 c 0
 310 -3 297 -2 297 6 c 0
 297 16 309 20 320 24 c 0
 340 30 363 39 363 68 c 2
 363 279 l 2
 363 316 349 345 315 352 c 0
 312 353 289 353 261 353 c 0
 241 353 218 353 200 352 c 0
 161 350 160 344 160 332 c 2
 160 68 l 2
 160 39 183 30 203 24 c 0
 214 20 226 16 226 6 c 0
 226 -2 213 -3 206 -3 c 0
 166 -3 160 2 125 2 c 0
 90 2 84 -3 44 -3 c 0
EndSplineSet
Ligature2: "EBGaramond-Regular-'liga' Standard Ligatures lookup 27 subtable" f i
EndChar

StartChar: f_l
Encoding: 64258 -1 208
Width: 506
Flags: MW
HStem: -3 21G<43.5 67 189 212.5 301.5 325 447 470.5> 352 48<188 203 203 341> 666 40<291.5 320.5> 677 20G
VStem: 93 70<68 332> 352 70<68 342 342 346 410 562>
LayerCount: 2
Fore
SplineSet
47 -3 m 0xec
 40 -3 27 -2 27 6 c 0
 27 16 39 20 50 24 c 0
 70 30 93 39 93 68 c 2
 93 350 l 1
 79 350 55 350 34 352 c 0
 30 353 24 364 24 371 c 0
 24 374 25 375 27 376 c 0
 57 384 73 393 93 402 c 1
 96 642 248 706 335 706 c 0xec
 350 706 369 705 388 698 c 0
 393 697 398 695 403 697 c 0xdc
 407 699 412 702 417 703 c 0
 419 704 420 704 422 704 c 0
 426 704 428 703 428 698 c 0
 428 686 422 652 422 562 c 2
 422 68 l 2
 422 39 444 30 464 24 c 0
 475 20 487 16 487 6 c 0
 487 -2 474 -3 467 -3 c 0
 427 -3 421 2 386 2 c 0
 351 2 345 -3 305 -3 c 0
 298 -3 285 -2 285 6 c 0
 285 16 297 20 308 24 c 0
 328 30 352 39 352 68 c 2
 352 342 l 2
 352 350 345 352 341 352 c 2
 203 352 l 2
 164 352 163 344 163 332 c 2
 163 68 l 2
 163 39 186 30 206 24 c 0
 217 20 229 16 229 6 c 0
 229 -2 216 -3 209 -3 c 0
 169 -3 163 2 128 2 c 0
 93 2 87 -3 47 -3 c 0xec
188 400 m 2
 343 400 l 2
 349 400 352 403 352 410 c 2
 352 566 l 2
 352 597 352 666 289 666 c 0
 227 666 163 610 163 475 c 2
 163 420 l 2
 163 404 175 400 188 400 c 2
EndSplineSet
Ligature2: "EBGaramond-Regular-'liga' Standard Ligatures lookup 27 subtable" f l
EndChar

StartChar: longs_t
Encoding: 64261 -1 209
Width: 595
Flags: MW
HStem: -14 45<484 495> -3 21G<44.5 66.5 183.5 205.5> 352 48<457 472 472 575> 668 38<264.5 320>
VStem: 90 70<68 350 350 350> 362 70<87 107 107 336 336 338> 369 67<529 560>
LayerCount: 2
Fore
SplineSet
469 -14 m 0xbc
 413 -14 362 27 362 83 c 2
 362 336 l 2
 362 349 358 351 341 351 c 2
 329 351 l 2
 325 351 319 362 319 369 c 0
 319 373 320 375 322 376 c 0xbc
 341 384 350 389 362 401 c 0
 367 406 369 473 369 522 c 0
 369 598 366 668 274 668 c 0
 212 668 160 609 160 475 c 2
 160 68 l 2
 160 39 183 30 203 24 c 0
 214 20 226 16 226 6 c 0
 226 -4 208 -3 203 -3 c 0
 164 -3 160 2 125 2 c 0
 90 2 86 -3 47 -3 c 0
 42 -3 24 -4 24 6 c 0
 24 16 36 20 47 24 c 0
 67 30 90 39 90 68 c 2
 90 350 l 1
 77 350 59 350 38 352 c 0
 34 353 28 362 28 368 c 0
 28 373 29 375 34 377 c 0
 52 382 71 392 90 402 c 1
 93 632 221 706 308 706 c 0
 399 706 436 642 436 556 c 0
 436 502 433 414 433 414 c 2
 433 405 444 400 457 400 c 2x7a
 575 400 l 2
 580 400 583 388 583 376 c 0
 583 364 580 352 575 352 c 2
 472 352 l 2
 436 352 432 352 432 338 c 2
 432 107 l 2
 432 67 466 31 502 31 c 0
 546 31 558 40 574 52 c 0
 575 53 577 55 580 55 c 0
 585 55 587 47 587 41 c 0
 587 38 586 36 585 34 c 0
 576 19 521 -14 469 -14 c 0xbc
EndSplineSet
Ligature2: "EBGaramond-Regular-'dlig' Discretionary Ligatures lookup 37 subtable" longs t
Ligature2: "EBGaramond-Regular-'hlig' Historic Ligatures lookup 26 subtable" longs t
EndChar

StartChar: s_t
Encoding: 64262 -1 210
Width: 620
Flags: MW
HStem: -14 31<126.5 170 126.5 190.5> -14 45<509 520> 352 48<482 497 497 600> 375 39<168 189.5> 389 20G 635 30<252 326.5>
VStem: 47 62<296 324> 106 31<485 539 481.5 547.5> 214 69<71.5 113> 387 70<87 107 107 335 335 338> 411 50<491.5 580>
LayerCount: 2
Fore
SplineSet
133 -14 m 0xa5c0
 113 -14 48 9 42 22 c 0
 35 36 30 60 29 83 c 0
 29 89 37 92 45 92 c 0
 52 92 58 90 59 85 c 0
 66 51 109 17 144 17 c 0
 196 17 214 47 214 85 c 0
 214 141 174 153 138 177 c 0
 89 209 47 231 47 295 c 0x8ec0
 47 353 76 395 139 409 c 1x8dc0
 120 415 106 466 106 504 c 0
 106 591 187 665 306 665 c 0
 365 665 461 622 461 538 c 2
 460 414 l 2
 460 405 469 400 482 400 c 2xa5a0
 600 400 l 2
 605 400 608 388 608 376 c 0
 608 364 605 352 600 352 c 2
 497 352 l 2
 461 352 457 352 457 338 c 2
 457 107 l 2
 457 67 491 31 527 31 c 0
 571 31 586 42 602 54 c 0x65c0
 608 58 612 49 612 41 c 0
 612 38 611 36 610 34 c 0
 601 19 546 -14 494 -14 c 0
 438 -14 387 27 387 83 c 2
 387 335 l 2
 387 345 382 352 366 352 c 2
 354 352 l 2
 350 353 344 363 344 370 c 0
 344 373 345 375 347 376 c 0xa5c0
 389 393 403 423 407 443 c 0xa5a0
 411 462 411 482 411 501 c 0
 411 570 361 635 292 635 c 0
 212 635 137 578 137 500 c 0
 137 463 148 414 188 414 c 0x95a0
 228 414 253 404 263 394 c 1
 273 362 277 341 277 313 c 0
 277 310 275 309 272 309 c 0
 261 309 241 320 239 329 c 0
 233 368 200 375 179 375 c 0
 140 375 109 350 109 316 c 0x96c0
 109 276 161 240 194 222 c 0
 228 204 283 170 283 106 c 0
 283 37 248 -14 133 -14 c 0xa5c0
EndSplineSet
Ligature2: "EBGaramond-Regular-'dlig' Discretionary Ligatures lookup 37 subtable" s t
EndChar

StartChar: uniFB00
Encoding: 64256 64256 211
Width: 575
Flags: W
HStem: -3 27<24.2499 75.2193 174.394 225.75 281.25 335.79 430.684 505.75> 352 48<160 335 417 564.395> 352 24<26.0171 63.4493> 623 41<226.057 342.18> 665 41<483.33 590.384>
VStem: 90 70<32.9166 350 400.148 516.328> 347 70<33.4395 350 406 546.667>
LayerCount: 2
Fore
SplineSet
567 706 m 0xbe
 641 706 677 681 677 646 c 0
 677 619 661 606 643 606 c 0
 631 606 622 617 609 629 c 0
 592 646 569 665 525 665 c 0
 462 665 417 611 417 498 c 2
 417 410 l 2
 417 402 422 400 428 400 c 2
 553 400 l 2
 560 400 566 395 566 389 c 0
 566 380 564 368 560 360 c 0
 558 355 554 352 551 352 c 2
 436 352 l 2
 420 352 417 347 417 339 c 2
 417 68 l 2
 417 41 429 30 483 24 c 0
 497 22 506 18 506 8 c 0
 506 0 499 -3 486 -3 c 0
 446 -3 419 2 384 2 c 0
 349 2 341 -3 301 -3 c 0
 288 -3 281 0 281 8 c 0
 281 18 290 21 304 24 c 0
 335 31 347 41 347 68 c 2
 347 350 l 1
 334 350 316 350 295 352 c 2
 200 352 l 2xde
 164 352 160 345 160 335 c 2
 160 68 l 2
 160 42 182 29 203 24 c 0
 217 21 226 18 226 8 c 0
 226 0 219 -3 206 -3 c 0
 166 -3 162 2 127 2 c 0
 92 2 84 -3 44 -3 c 0
 31 -3 24 0 24 8 c 0
 24 18 33 20 47 24 c 0
 67 30 90 41 90 68 c 2
 90 350 l 1
 77 350 59 350 38 352 c 0
 34 353 24 363 24 370 c 0
 24 373 29 375 31 376 c 0
 61 384 70 392 90 402 c 1
 90 591 223 664 310 664 c 0
 358 664 395 649 414 631 c 1
 460 686 520 706 567 706 c 0xbe
185 400 m 2
 335 400 l 1
 347 406 l 1
 347 475 359 529 378 572 c 1
 372 576 366 582 359 589 c 0
 342 606 317 623 273 623 c 0
 206 623 160 568 160 433 c 2
 160 422 l 2
 160 404 172 400 185 400 c 2
EndSplineSet
Ligature2: "EBGaramond-Regular-'dlig' Discretionary Ligatures lookup 37 subtable" f f
EndChar

StartChar: uniFB01
Encoding: 64257 64257 212
Width: 518
Flags: W
HStem: -3 27<25.0556 76 174 224.944 298.056 349 447 497.944> 352 28<27.351 72.6723> 353 40<161.06 346.672> 666 40<243.097 347.064>
VStem: 90 70<32.4201 349.909 400.511 535.407> 363 70<32.4201 338.692>
LayerCount: 2
Fore
SplineSet
44 -3 m 0xdc
 37 -3 24 -2 24 6 c 0
 24 16 36 20 47 24 c 0
 67 30 90 39 90 68 c 2
 90 350 l 1
 76 350 59 349 38 352 c 0
 32 353 27 361 27 370 c 0
 27 375 31 378 38 380 c 0xdc
 62 387 72 394 90 402 c 1
 90 642 245 706 332 706 c 0
 391 706 462 691 462 641 c 0
 462 604 437 589 412 589 c 0
 395 589 386 604 373 620 c 0
 357 641 335 666 288 666 c 0
 224 666 160 610 160 475 c 2
 160 420 l 2
 160 404 172 402 185 400 c 0
 222 396 265 393 302 393 c 0xbc
 338 393 367 396 376 400 c 0
 395 411 411 422 429 433 c 0
 434 435 441 434 441 429 c 0
 439 406 433 362 433 275 c 2
 433 68 l 2
 433 39 456 30 476 24 c 0
 487 20 499 16 499 6 c 0
 499 -2 486 -3 479 -3 c 0
 439 -3 433 2 398 2 c 0
 363 2 357 -3 317 -3 c 0
 310 -3 297 -2 297 6 c 0
 297 16 309 20 320 24 c 0
 340 30 363 39 363 68 c 2
 363 279 l 2
 363 316 349 345 315 352 c 0xdc
 312 353 289 353 261 353 c 0xbc
 241 353 218 353 200 352 c 0
 161 350 160 344 160 332 c 2
 160 68 l 2
 160 39 183 30 203 24 c 0
 214 20 226 16 226 6 c 0
 226 -2 213 -3 206 -3 c 0
 166 -3 160 2 125 2 c 0
 90 2 84 -3 44 -3 c 0xdc
EndSplineSet
EndChar

StartChar: uniFB02
Encoding: 64258 64258 213
Width: 506
Flags: W
HStem: -3 27<28.0556 79 177 227.944 286.056 337.5 435.5 485.944> 352 48<163 352> 352 24<25.5137 61.8129> 666 40<245.928 342.5>
VStem: 93 70<32.4201 349.989 400.313 535.407> 352 70<32.9121 352 400 650.556>
LayerCount: 2
Fore
SplineSet
47 -3 m 0xdc
 40 -3 27 -2 27 6 c 0
 27 16 39 20 50 24 c 0
 70 30 93 39 93 68 c 2
 93 350 l 1
 79 350 55 350 34 352 c 0
 30 353 24 364 24 371 c 0
 24 374 25 375 27 376 c 0xbc
 57 384 73 393 93 402 c 1
 96 642 248 706 335 706 c 0
 350 706 369 705 388 698 c 0
 393 697 398 695 403 697 c 0
 407 699 412 702 417 703 c 0
 419 704 420 704 422 704 c 0
 426 704 428 703 428 698 c 0
 428 686 422 652 422 562 c 2
 422 68 l 2
 422 39 444 30 464 24 c 0
 475 20 487 16 487 6 c 0
 487 -2 474 -3 467 -3 c 0
 427 -3 421 2 386 2 c 0
 351 2 345 -3 305 -3 c 0
 298 -3 285 -2 285 6 c 0
 285 16 297 20 308 24 c 0
 328 30 352 39 352 68 c 2
 352 342 l 2
 352 350 345 352 341 352 c 2
 203 352 l 2
 164 352 163 344 163 332 c 2
 163 68 l 2
 163 39 186 30 206 24 c 0
 217 20 229 16 229 6 c 0
 229 -2 216 -3 209 -3 c 0
 169 -3 163 2 128 2 c 0
 93 2 87 -3 47 -3 c 0xdc
188 400 m 2xdc
 343 400 l 2
 349 400 352 403 352 410 c 2
 352 566 l 2
 352 597 352 666 289 666 c 0
 227 666 163 610 163 475 c 2
 163 420 l 2
 163 404 175 400 188 400 c 2xdc
EndSplineSet
EndChar

StartChar: uniFB03
Encoding: 64259 64259 214
Width: 776
Flags: W
HStem: -3 27<24.2499 75.2193 174.394 225.75 283.056 334 432 482.944 556.056 607 705 755.944> 352 48<160 347.907> 352 24<26.0171 63.4493> 353 40<419.06 604.672> 623 41<226.057 342.6> 666 40<500.899 605.064>
VStem: 90 70<32.9166 350 400.148 516.328> 348 70<32.4201 349.909 400.502 537.725> 621 70<32.4201 338.692>
LayerCount: 2
Fore
SplineSet
734 24 m 0xcf80
 745 20 757 16 757 6 c 0
 757 -2 744 -3 737 -3 c 0
 697 -3 691 2 656 2 c 0
 621 2 615 -3 575 -3 c 0
 568 -3 555 -2 555 6 c 0
 555 16 567 20 578 24 c 0
 598 30 621 39 621 68 c 2
 621 279 l 2
 621 316 607 345 573 352 c 0xaf80
 570 353 547 353 519 353 c 0x9f80
 499 353 476 353 458 352 c 0xaf80
 419 350 418 344 418 332 c 2
 418 68 l 2
 418 39 441 30 461 24 c 0
 472 20 484 16 484 6 c 0
 484 -2 471 -3 464 -3 c 0
 424 -3 418 2 383 2 c 0
 348 2 342 -3 302 -3 c 0
 295 -3 282 -2 282 6 c 0
 282 16 294 20 305 24 c 0
 325 30 348 39 348 68 c 2
 348 350 l 1
 334 350 317 349 296 352 c 2
 200 352 l 2xcf80
 164 352 160 345 160 335 c 2
 160 68 l 2
 160 42 182 29 203 24 c 0
 217 21 226 18 226 8 c 0
 226 0 219 -3 206 -3 c 0
 166 -3 162 2 127 2 c 0
 92 2 84 -3 44 -3 c 0
 31 -3 24 0 24 8 c 0
 24 18 33 20 47 24 c 0
 67 30 90 41 90 68 c 2
 90 350 l 1
 77 350 59 350 38 352 c 0
 34 353 24 363 24 370 c 0
 24 373 29 375 31 376 c 0xaf80
 61 384 70 392 90 402 c 1
 90 591 223 664 310 664 c 0
 363 664 402 646 419 626 c 1
 471 686 541 706 590 706 c 0
 649 706 720 691 720 641 c 0
 720 604 695 589 670 589 c 0
 653 589 644 604 631 620 c 0
 615 641 593 666 546 666 c 0
 482 666 418 610 418 475 c 2
 418 420 l 2
 418 404 430 402 443 400 c 0xcf80
 480 396 523 393 560 393 c 0x9f80
 596 393 625 396 634 400 c 0
 653 411 669 422 687 433 c 0
 692 435 699 434 699 429 c 0
 697 406 691 362 691 275 c 2
 691 68 l 2
 691 39 714 30 734 24 c 0xcf80
185 400 m 2xcf80
 344 400 l 2
 345 401 346 401 348 402 c 0
 348 472 361 527 382 569 c 1
 375 573 368 581 359 589 c 0
 342 606 317 623 273 623 c 0
 206 623 160 568 160 433 c 2
 160 422 l 2
 160 404 172 400 185 400 c 2xcf80
EndSplineSet
Ligature2: "EBGaramond-Regular-'dlig' Discretionary Ligatures lookup 37 subtable" f f i
EndChar

StartChar: uniFB04
Encoding: 64260 64260 215
Width: 761
Flags: W
HStem: -3 27<24.2499 75.2193 174.394 225.75 283.056 334 432 482.944 541.056 592.5 690.5 740.944> 352 48<160 347.952 418 607> 352 24<26.0171 63.4493> 623 41<226.057 342.806> 666 40<500.723 597.5>
VStem: 90 70<32.9166 350 400.148 516.328> 348 70<32.4201 349.989 400.091 536.762> 607 70<32.9121 352 400 650.556>
LayerCount: 2
Fore
SplineSet
719 24 m 0xbf
 730 20 742 16 742 6 c 0
 742 -2 729 -3 722 -3 c 0
 682 -3 676 2 641 2 c 0
 606 2 600 -3 560 -3 c 0
 553 -3 540 -2 540 6 c 0
 540 16 552 20 563 24 c 0
 583 30 607 39 607 68 c 2
 607 342 l 2
 607 350 600 352 596 352 c 2
 458 352 l 2
 419 352 418 344 418 332 c 2
 418 68 l 2
 418 39 441 30 461 24 c 0
 472 20 484 16 484 6 c 0
 484 -2 471 -3 464 -3 c 0
 424 -3 418 2 383 2 c 0
 348 2 342 -3 302 -3 c 0
 295 -3 282 -2 282 6 c 0
 282 16 294 20 305 24 c 0
 325 30 348 39 348 68 c 2
 348 350 l 1
 334 350 310 350 289 352 c 2
 200 352 l 2xdf
 164 352 160 345 160 335 c 2
 160 68 l 2
 160 42 182 29 203 24 c 0
 217 21 226 18 226 8 c 0
 226 0 219 -3 206 -3 c 0
 166 -3 162 2 127 2 c 0
 92 2 84 -3 44 -3 c 0
 31 -3 24 0 24 8 c 0
 24 18 33 20 47 24 c 0
 67 30 90 41 90 68 c 2
 90 350 l 1
 77 350 59 350 38 352 c 0
 34 353 24 363 24 370 c 0
 24 373 29 375 31 376 c 0
 61 384 70 392 90 402 c 1
 90 591 223 664 310 664 c 0
 364 664 402 645 420 626 c 1
 472 686 541 706 590 706 c 0
 605 706 624 705 643 698 c 0
 648 697 653 695 658 697 c 0
 662 699 667 702 672 703 c 0
 674 704 675 704 677 704 c 0
 681 704 683 703 683 698 c 0
 683 686 677 652 677 562 c 2
 677 68 l 2
 677 39 699 30 719 24 c 0xbf
607 410 m 2
 607 566 l 2
 607 597 607 666 544 666 c 0
 482 666 418 610 418 475 c 2
 418 420 l 2
 418 404 430 400 443 400 c 2
 598 400 l 2
 604 400 607 403 607 410 c 2
185 400 m 2
 344 400 l 2
 345 401 347 401 348 402 c 0
 349 471 362 526 383 569 c 1
 375 573 368 581 359 589 c 0
 342 606 317 623 273 623 c 0
 206 623 160 568 160 433 c 2
 160 422 l 2
 160 404 172 400 185 400 c 2
EndSplineSet
Ligature2: "EBGaramond-Regular-'dlig' Discretionary Ligatures lookup 37 subtable" f f l
EndChar

StartChar: uniFB05
Encoding: 64261 64261 216
Width: 595
Flags: W
HStem: -14 45<455.36 549.232> -3 27<24.9975 76 174 225.003> 352 48<433.02 582.965> 352 25<28.5801 65.1462 319.676 347.989> 668 38<231.568 336.372>
VStem: 90 70<32.4201 350 391.014 539.066> 362 70<55.5864 350.949> 369 67<401.279 637.939>
LayerCount: 2
Fore
SplineSet
469 -14 m 0xae
 413 -14 362 27 362 83 c 2
 362 336 l 2
 362 349 358 351 341 351 c 2
 329 351 l 2
 325 351 319 362 319 369 c 0
 319 373 320 375 322 376 c 0
 341 384 350 389 362 401 c 0xae
 367 406 369 473 369 522 c 0
 369 598 366 668 274 668 c 0
 212 668 160 609 160 475 c 2
 160 68 l 2
 160 39 183 30 203 24 c 0
 214 20 226 16 226 6 c 0
 226 -4 208 -3 203 -3 c 0
 164 -3 160 2 125 2 c 0
 90 2 86 -3 47 -3 c 0
 42 -3 24 -4 24 6 c 0
 24 16 36 20 47 24 c 0
 67 30 90 39 90 68 c 2
 90 350 l 1
 77 350 59 350 38 352 c 0
 34 353 28 362 28 368 c 0
 28 373 29 375 34 377 c 0
 52 382 71 392 90 402 c 1
 93 632 221 706 308 706 c 0
 399 706 436 642 436 556 c 0x5d
 436 502 433 414 433 414 c 2
 433 405 444 400 457 400 c 2
 575 400 l 2
 580 400 583 388 583 376 c 0
 583 364 580 352 575 352 c 2
 472 352 l 2
 436 352 432 352 432 338 c 2
 432 107 l 2
 432 67 466 31 502 31 c 0
 546 31 558 40 574 52 c 0
 575 53 577 55 580 55 c 0
 585 55 587 47 587 41 c 0
 587 38 586 36 585 34 c 0
 576 19 521 -14 469 -14 c 0xae
EndSplineSet
EndChar

StartChar: uniFB06
Encoding: 64262 64262 217
Width: 620
Flags: W
HStem: -14 45<480.36 574.495> -14 31<100.49 193.81> 352 48<460.164 607.965> 352 24<345.246 369.279> 375 39<153.327 226.672> 635 30<224.225 345.219>
VStem: 29 30<55.6084 91.9763> 47 62<270.258 359.092> 106 31<434.437 557.813> 214 69<32.1986 139.721> 239 38<312.725 362.364> 387 70<55.5864 351.874> 411 49<406.107 576.392>
LayerCount: 2
Fore
SplineSet
133 -14 m 0x4d40
 113 -14 48 9 42 22 c 0
 35 36 30 60 29 83 c 0
 29 89 37 92 45 92 c 0
 52 92 58 90 59 85 c 0x4e40
 66 51 109 17 144 17 c 0
 196 17 214 47 214 85 c 0
 214 141 174 153 138 177 c 0
 89 209 47 231 47 295 c 0x4d40
 47 353 76 395 139 409 c 1
 120 415 106 466 106 504 c 0
 106 591 187 665 306 665 c 0
 365 665 461 622 461 538 c 2
 460 414 l 2x4c88
 460 405 469 400 482 400 c 2
 600 400 l 2x2488
 605 400 608 388 608 376 c 0x1488
 608 364 605 352 600 352 c 2
 497 352 l 2x2488
 461 352 457 352 457 338 c 2
 457 107 l 2
 457 67 491 31 527 31 c 0
 571 31 586 42 602 54 c 0
 608 58 612 49 612 41 c 0
 612 38 611 36 610 34 c 0
 601 19 546 -14 494 -14 c 0
 438 -14 387 27 387 83 c 2
 387 335 l 2
 387 345 382 352 366 352 c 2
 354 352 l 2
 350 353 344 363 344 370 c 0
 344 373 345 375 347 376 c 0x9410
 389 393 403 423 407 443 c 0
 411 462 411 482 411 501 c 0
 411 570 361 635 292 635 c 0
 212 635 137 578 137 500 c 0
 137 463 148 414 188 414 c 0
 228 414 253 404 263 394 c 1
 273 362 277 341 277 313 c 0
 277 310 275 309 272 309 c 0
 261 309 241 320 239 329 c 0x0ca8
 233 368 200 375 179 375 c 0
 140 375 109 350 109 316 c 0
 109 276 161 240 194 222 c 0
 228 204 283 170 283 106 c 0
 283 37 248 -14 133 -14 c 0x4d40
EndSplineSet
EndChar

StartChar: ordfeminine
Encoding: 170 170 218
Width: 310
Flags: W
HStem: 161 35<36.2861 275.934> 268 40<99.7715 165.165 229.174 270.743> 491 33<110.987 171.265>
VStem: 46 51<310.316 371.53 441.23 477.67> 177 53<317.082 387.993 406.688 487.507>
LayerCount: 2
Fore
SplineSet
101 268 m 0
 74 268 46 304 46 327 c 0
 46 352 51 368 83 380 c 2
 159 408 l 2
 176 414 177 416 177 432 c 2
 177 455 l 2
 177 475 164 491 140 491 c 0
 124 491 101 487 97 478 c 0
 94 471 95 461 95 453 c 0
 95 445 65 438 50 434 c 0
 46 433 43 437 46 444 c 0
 52 459 55 469 71 482 c 0
 91 499 134 524 168 524 c 0
 199 524 231 499 230 471 c 2
 227 347 l 2
 227 330 229 308 248 308 c 0
 257 308 260 312 264 314 c 0
 267 316 269 318 272 318 c 0
 277 318 282 309 282 303 c 0
 282 301 278 295 272 289 c 0
 262 279 248 268 233 268 c 0
 199 268 187 293 184 299 c 1
 180 299 l 1
 165 287 142 268 101 268 c 0
129 308 m 0
 146 308 159 319 169 327 c 0
 174 331 175 335 176 350 c 2
 177 379 l 2
 177 391 173 393 162 390 c 0
 112 376 97 356 97 342 c 0
 97 319 116 308 129 308 c 0
265 196 m 2
 271 196 279 191 279 185 c 0
 279 184 278 183 278 182 c 0
 271 169 262 161 247 161 c 2
 49 161 l 2
 42 161 35 167 35 173 c 0
 35 182 46 196 59 196 c 2
 265 196 l 2
EndSplineSet
Substitution2: "EBGaramond-Regular-'smcp' Lowercase to Small Capitals lookup 22 subtable" ordfeminine.sc
Substitution2: "EBGaramond-Regular-'aalt' Access All Alternates lookup 0 subtable" ordfeminine.sc
EndChar

StartChar: ordmasculine
Encoding: 186 186 219
Width: 309
Flags: W
HStem: 161 35<26.2861 281.934> 268 29<123.641 195.091> 493 31<112.462 187.042>
VStem: 25 63<325.524 461.154> 221 63<327.053 463.622>
LayerCount: 2
Fore
SplineSet
148 268 m 0
 81 268 25 316 25 388 c 0
 25 462 86 524 160 524 c 0
 225 524 284 469 284 404 c 0
 284 334 238 268 148 268 c 0
160 297 m 0
 204 297 221 341 221 389 c 0
 221 441 194 493 149 493 c 0
 104 493 88 448 88 402 c 0
 88 347 116 297 160 297 c 0
271 196 m 2
 277 196 285 191 285 185 c 0
 285 184 284 183 284 182 c 0
 277 169 268 161 253 161 c 2
 39 161 l 2
 32 161 25 167 25 173 c 0
 25 182 36 196 49 196 c 2
 271 196 l 2
EndSplineSet
Substitution2: "EBGaramond-Regular-'smcp' Lowercase to Small Capitals lookup 22 subtable" ordmasculine.sc
Substitution2: "EBGaramond-Regular-'aalt' Access All Alternates lookup 0 subtable" ordmasculine.sc
EndChar

StartChar: uniA7FB
Encoding: 43003 43003 220
Width: 512
GlyphClass: 2
Flags: W
HStem: -5 29<200.692 271.439 407.137 481.308> 319 34<132.794 300.303> 617 33<86.345 296.661 400.59 472.03>
VStem: 27 24<529.355 573.023> 84 32<256.771 305.032> 302 80<46.2759 316.741 350.008 603.448>
AnchorPoint: "Anchor-15" 0 0 basechar 0
AnchorPoint: "Anchor-14" 0 0 basechar 0
AnchorPoint: "Anchor-13" 232 675 basechar 0
AnchorPoint: "Anchor-12" 327 -30 basechar 0
LayerCount: 2
Fore
SplineSet
453 -5 m 0
 399 -5 376 2 327 2 c 0
 289 2 283 -5 229 -5 c 0
 212 -5 200 -2 200 6 c 0
 200 15 210 20 233 24 c 0
 283 33 297 58 299 101 c 0
 302 167 302 231 302 292 c 0
 302 309 291 316 278 317 c 0
 257 319 236 319 213 319 c 0
 197 319 180 318 163 318 c 0
 147 318 126 309 116 278 c 0
 114 271 106 255 93 255 c 0
 85 255 84 263 84 272 c 0
 86 301 87 320 87 340 c 0
 87 356 86 372 84 395 c 0
 83 404 92 411 97 411 c 0
 102 411 113 399 115 394 c 0
 125 371 147 353 176 353 c 0
 200 353 250 350 292 350 c 0
 301 350 302 361 302 372 c 0
 303 396 303 433 303 467 c 0
 303 502 303 542 302 567 c 0
 301 593 299 617 268 617 c 2
 141 617 l 2
 116 617 93 611 74 590 c 0
 65 580 57 563 51 541 c 0
 49 534 43 529 36 529 c 0
 30 529 27 538 27 550 c 0
 27 564 29 628 32 651 c 0
 33 658 43 660 50 660 c 0
 74 660 106 650 149 650 c 2
 275 650 l 2
 344 650 374 653 447 653 c 0
 464 653 476 650 476 642 c 0
 476 633 466 626 443 622 c 0
 393 613 382 582 382 522 c 2
 382 100 l 2
 382 51 399 33 449 24 c 0
 472 20 482 15 482 6 c 0
 482 -2 470 -5 453 -5 c 0
EndSplineSet
EndChar

StartChar: uniA7FC
Encoding: 43004 43004 221
Width: 574
Flags: W
HStem: -5 29<237.692 310.71 450.199 522.308> 254 28<201.196 296.299> 626 31<207.196 358.132 462.377 533.965>
VStem: 350 80<52.8845 600.43>
LayerCount: 2
Fore
SplineSet
266 -5 m 0
 249 -5 237 -2 237 6 c 0
 237 15 247 20 270 24 c 0
 320 33 350 63 350 111 c 2
 350 550 l 2
 350 567 347 589 335 601 c 0
 324 612 296 626 271 626 c 0
 187 626 127 556 121 473 c 0
 115 384 166 282 246 282 c 0
 273 282 282 286 288 286 c 0
 295 286 302 278 302 273 c 0
 302 265 251 254 222 254 c 0
 69 254 25 374 25 446 c 0
 25 583 142 657 285 657 c 0
 328 657 356 650 396 650 c 0
 439 650 451 653 505 653 c 0
 522 653 534 650 534 642 c 0
 534 633 524 626 501 622 c 0
 451 613 430 597 430 550 c 2
 430 100 l 2
 430 51 440 33 490 24 c 0
 513 20 523 15 523 6 c 0
 523 -2 511 -5 494 -5 c 0
 440 -5 415 2 364 2 c 0
 326 2 320 -5 266 -5 c 0
EndSplineSet
EndChar

StartChar: uniA7FD
Encoding: 43005 43005 222
Width: 901
GlyphClass: 2
Flags: W
HStem: -10 31<58.2075 122.884 786.574 858.48> 622 29<36.6924 111.235 247.831 315.308 639.692 705.243 817.869 881.308>
VStem: 144 88<298.857 600.61> 166 78<189.328 320.475>
AnchorPoint: "Anchor-15" 0 0 basechar 0
AnchorPoint: "Anchor-14" 0 0 basechar 0
AnchorPoint: "Anchor-13" 494 676 basechar 0
AnchorPoint: "Anchor-12" 451 -29 basechar 0
LayerCount: 2
Fore
SplineSet
853 651 m 0xd0
 870 651 882 648 882 640 c 0
 882 631 872 626 849 622 c 0
 816 616 794 591 787 544 c 0
 763 364 746 202 746 118 c 0
 746 108 746 95 747 85 c 0
 748 74 749 63 762 52 c 0
 786 32 807 28 837 22 c 0
 850 19 859 11 859 2 c 0
 859 -8 845 -9 825 -9 c 0
 799 -9 701 -1 675 -1 c 0
 666 -1 659 5 656 15 c 0
 649 39 644 67 634 92 c 2
 476 493 l 2
 472 503 458 506 453 496 c 2
 256 86 l 1
 250 64 242 32 238 11 c 0
 236 3 233 -2 228 -2 c 2
 192 -2 l 2
 152 -2 101 -10 78 -10 c 0
 72 -10 57 -9 57 0 c 0
 57 9 63 13 83 21 c 0
 101 28 124 36 142 44 c 0
 156 50 166 63 166 78 c 0xd0
 166 264 152 400 144 551 c 0
 142 592 119 613 69 622 c 0
 46 626 36 631 36 640 c 0
 36 648 48 651 65 651 c 0
 119 651 136 646 182 646 c 0
 223 646 233 651 287 651 c 0
 304 651 316 648 316 640 c 0
 316 631 306 625 283 622 c 0
 244 617 232 597 232 550 c 0xe0
 232 406 238 317 244 182 c 0
 246 168 253 169 260 182 c 2
 490 651 l 2
 493 658 505 659 508 650 c 0
 560 494 617 350 692 175 c 0
 695 168 704 168 705 175 c 0
 724 316 737 408 737 544 c 0
 737 580 713 614 672 622 c 0
 649 626 639 631 639 640 c 0
 639 648 651 651 668 651 c 0
 722 651 725 646 762 646 c 0
 798 646 799 651 853 651 c 0xd0
EndSplineSet
EndChar

StartChar: uniA7FE
Encoding: 43006 43006 223
Width: 340
Flags: W
HStem: -5 29<19.6924 97.1038 243.602 321.308> 712 31<31.0745 107.441 235.205 312.926>
VStem: 130 80<46.75 694.158>
LayerCount: 2
Fore
SplineSet
48 -5 m 0
 31 -5 19 -2 19 6 c 0
 19 15 29 20 52 24 c 0
 102 33 130 51 130 98 c 2
 130 640 l 2
 130 687 113 703 63 712 c 0
 40 716 30 723 30 732 c 0
 30 740 42 743 59 743 c 0
 113 743 130 740 176 740 c 0
 219 740 231 743 285 743 c 0
 302 743 314 740 314 732 c 0
 314 723 304 716 281 712 c 0
 231 703 210 687 210 640 c 2
 210 98 l 2
 210 51 239 33 289 24 c 0
 312 20 322 15 322 6 c 0
 322 -2 310 -5 293 -5 c 0
 239 -5 222 0 176 0 c 0
 126 0 102 -5 48 -5 c 0
EndSplineSet
EndChar

StartChar: uniA7FF
Encoding: 43007 43007 224
Width: 1232
Flags: W
HStem: -5 36<1.56704 90.7768 214.923 286.525> 559 111<340 380.5 720 760.5> 620 31<968.846 1045.21 1165.06 1235.83>
LayerCount: 2
Fore
SplineSet
514 -15 m 0xc0
 509 -15 474 55 461 105 c 2
 350 541 l 2
 346 553 344 559 341 559 c 0xc0
 339 559 336 553 333 542 c 2
 198 102 l 2
 185 64 219 39 254 30 c 0
 277 24 287 19 287 10 c 0
 287 2 275 -1 258 -1 c 0
 240 -1 204 1 167 1 c 0
 123 1 80 -5 47 -5 c 0
 30 -5 -2 0 -2 8 c 0
 -2 17 29 24 51 31 c 0
 85 41 117 57 137 108 c 2
 304 578 l 2
 307 587 311 596 314 608 c 0
 317 619 316 635 318 636 c 0
 330 640 339 646 350 651 c 0xa0
 365 658 373 670 378 670 c 0xc0
 383 670 385 665 388 656 c 2
 520 197 l 2
 526 178 533 169 538 169 c 0
 543 169 549 178 556 197 c 2
 684 578 l 2
 687 587 691 596 694 608 c 0
 697 619 696 635 698 636 c 0
 710 640 719 646 730 651 c 0xa0
 745 658 753 670 758 670 c 0xc0
 763 670 765 665 768 656 c 2
 902 197 l 2
 908 178 915 169 920 169 c 0
 925 169 930 178 938 197 c 2
 1059 547 l 1
 1073 603 1052 605 1000 620 c 0
 986 624 967 631 967 640 c 0
 967 648 979 651 996 651 c 0xa0
 1022 651 1057 650 1095 650 c 0
 1134 650 1183 653 1209 653 c 0
 1226 653 1238 650 1238 642 c 0
 1238 633 1228 627 1205 622 c 0
 1156 611 1120 571 1107 535 c 2
 939 79 l 2
 934 66 910 -15 896 -15 c 0
 891 -15 874 27 866 56 c 2
 730 541 l 2
 726 553 724 559 721 559 c 0
 719 559 717 553 713 542 c 2
 557 79 l 2
 552 66 528 -15 514 -15 c 0xc0
EndSplineSet
EndChar

StartChar: uni212A
Encoding: 8490 8490 225
Width: 681
GlyphClass: 2
Flags: W
HStem: -5 29<31.6924 105.863 244.783 312.308 608.044 687.308> 323 22<211.264 231.372> 622 31<32.0745 108.441 226.967 296.926 408.311 456.01 576.716 672.827>
VStem: 131 80<50.6023 322.99 345.01 605.863>
AnchorPoint: "Anchor-3" 0 0 basechar 0
AnchorPoint: "Anchor-2" 0 0 basechar 0
AnchorPoint: "Anchor-1" 342 675 basechar 0
AnchorPoint: "Anchor-0" 348 -30 basechar 0
LayerCount: 2
Fore
SplineSet
60 -5 m 0
 43 -5 31 -2 31 6 c 0
 31 15 41 20 64 24 c 0
 114 33 131 51 131 101 c 2
 131 551 l 2
 131 597 114 613 64 622 c 0
 41 626 31 633 31 642 c 0
 31 650 43 653 60 653 c 0
 114 653 128 651 172 651 c 0
 210 651 215 653 269 653 c 0
 286 653 298 650 298 642 c 0
 298 633 288 626 265 622 c 0
 215 613 211 590 211 551 c 2
 211 364 l 2
 211 359 211 345 216 345 c 0
 223 345 236 355 243 363 c 2
 443 567 l 2
 453 577 458 588 458 597 c 0
 458 608 451 617 439 620 c 0
 416 626 408 631 408 640 c 0
 408 648 420 651 437 651 c 2
 491 651 l 2
 548 651 640 655 653 655 c 0
 666 655 675 651 675 644 c 0
 675 635 665 628 642 624 c 0
 592 615 536 597 490 558 c 0
 418 497 368 448 298 371 c 0
 293 366 296 360 303 353 c 2
 545 95 l 2
 588 47 598 36 655 24 c 0
 678 19 688 15 688 6 c 0
 688 -2 676 -5 659 -5 c 0
 600 -5 575 0 520 0 c 0
 495 0 484 -1 439 -1 c 0
 422 -1 410 2 410 10 c 0
 410 19 418 23 437 27 c 0
 457 32 465 39 465 47 c 0
 465 55 458 63 450 72 c 2
 238 306 l 2
 230 314 220 323 215 323 c 0
 210 323 211 309 211 302 c 0
 211 239 213 190 216 110 c 0
 218 67 230 33 280 24 c 0
 303 20 313 15 313 6 c 0
 313 -2 301 -5 284 -5 c 0
 230 -5 224 2 186 2 c 0
 137 2 114 -5 60 -5 c 0
EndSplineSet
EndChar

StartChar: uni212B
Encoding: 8491 8491 226
Width: 692
GlyphClass: 2
Flags: W
HStem: -5 36<-0.573315 70.1888 195.015 266.525 395.098 475.898 612.158 694.277> 249 33<240.006 429.907> 700 22<331.125 387.115> 821 23<327.129 384.496>
VStem: -2 178<4 93.5> 270 42<731.083 814.641> 402 42<728.482 812.593> 489 208<1 90.5>
AnchorPoint: "Anchor-3" 0 0 basechar 0
AnchorPoint: "Anchor-2" 0 0 basechar 0
AnchorPoint: "Anchor-1" 363 675 basechar 0
AnchorPoint: "Anchor-0" 335 -30 basechar 0
LayerCount: 2
Fore
SplineSet
361 844 m 0
 403 844 444 819 444 777 c 0
 444 730 400 700 353 700 c 0
 310 700 270 726 270 769 c 0
 270 815 315 844 361 844 c 0
312 772 m 0
 312 744 334 722 362 722 c 0
 387 722 402 747 402 772 c 0
 402 799 381 821 354 821 c 0
 328 821 312 798 312 772 c 0
27 -5 m 0
 10 -5 -2 0 -2 8 c 0
 -2 17 9 24 31 31 c 0
 65 41 95 58 117 108 c 0
 192 279 236 393 304 578 c 0
 311 597 316 615 318 636 c 1
 330 640 342 643 354 651 c 0
 366 659 369 679 373 685 c 0
 374 686 377 686 378 684 c 0
 381 678 382 670 385 662 c 0
 449 459 530 223 563 128 c 0
 591 48 624 35 664 28 c 0
 687 24 697 14 697 5 c 0
 697 -3 685 -5 668 -5 c 0
 640 -5 574 1 529 1 c 0
 490 1 448 0 424 0 c 0
 407 0 395 4 395 12 c 0
 395 21 410 28 428 31 c 0
 472 38 489 54 489 76 c 0
 489 105 465 188 450 238 c 0
 447 248 441 249 423 249 c 2
 234 249 l 2
 228 249 222 245 217 231 c 0
 208 205 176 100 176 87 c 0
 176 58 202 38 234 30 c 0
 257 24 267 19 267 10 c 0
 267 2 255 -1 238 -1 c 0
 220 -1 184 1 147 1 c 0
 103 1 60 -5 27 -5 c 0
261 282 m 2
 416 282 l 2
 426 282 430 282 430 287 c 0
 430 289 429 293 428 297 c 2
 350 541 l 2
 346 553 344 559 341 559 c 0
 339 559 337 553 333 542 c 2
 242 297 l 2
 241 294 240 291 240 289 c 0
 240 282 248 282 261 282 c 2
EndSplineSet
EndChar

StartChar: uni2474
Encoding: 9332 9332 227
Width: 924
Flags: W
HStem: -3 25<340.125 407.39 509.121 578.982> 384 22<348.005 406.752 514 568.929>
VStem: 40 83<123.565 411.858> 424 72<31.3266 375.132> 796 83<123.565 411.858>
LayerCount: 2
Fore
SplineSet
237 -214 m 0
 231 -214 225 -212 220 -207 c 0
 149 -136 40 99 40 269 c 0
 40 439 145 623 216 694 c 0
 222 700 233 705 243 705 c 0
 250 705 265 698 265 689 c 0
 265 687 254 672 252 670 c 0
 191 599 123 451 123 281 c 0
 123 111 188 -102 249 -173 c 0
 250 -175 264 -190 264 -192 c 0
 264 -206 250 -214 237 -214 c 0
682 -214 m 0
 669 -214 655 -206 655 -192 c 0
 655 -190 669 -175 670 -173 c 0
 731 -102 796 111 796 281 c 0
 796 451 728 599 667 670 c 0
 665 672 654 687 654 689 c 0
 654 698 669 705 676 705 c 0
 686 705 697 700 703 694 c 0
 774 623 879 439 879 269 c 0
 879 99 770 -136 699 -207 c 0
 694 -212 688 -214 682 -214 c 0
359 -3 m 0
 351 -3 340 1 340 11 c 0
 340 17 349 21 359 22 c 0
 386 25 424 27 424 68 c 2
 424 333 l 2
 424 374 401 380 363 384 c 0
 354 385 348 390 348 395 c 0
 348 401 355 406 363 406 c 0
 423 406 421 403 460 403 c 0
 498 403 495 406 553 406 c 0
 559 406 569 403 569 396 c 0
 569 388 558 385 553 384 c 0
 525 378 496 379 496 333 c 2
 496 68 l 2
 496 29 517 28 561 22 c 0
 573 20 579 15 579 9 c 0
 579 3 573 -3 561 -3 c 0
 504 -3 502 2 460 2 c 0
 417 2 413 -3 359 -3 c 0
EndSplineSet
EndChar

StartChar: uni2475
Encoding: 9333 9333 228
Width: 1076
Flags: W
HStem: 0 65<464.73 696.002> 348 66<432.998 539.148>
VStem: 40 83<123.565 411.858> 559 68<219.734 327.626> 722 22<107.848 138.003> 948 83<123.565 411.858>
LayerCount: 2
Fore
SplineSet
237 -214 m 0
 231 -214 225 -212 220 -207 c 0
 149 -136 40 99 40 269 c 0
 40 439 145 623 216 694 c 0
 222 700 233 705 243 705 c 0
 250 705 265 698 265 689 c 0
 265 687 254 672 252 670 c 0
 191 599 123 451 123 281 c 0
 123 111 188 -102 249 -173 c 0
 250 -175 264 -190 264 -192 c 0
 264 -206 250 -214 237 -214 c 0
834 -214 m 0
 821 -214 807 -206 807 -192 c 0
 807 -190 821 -175 822 -173 c 0
 883 -102 948 111 948 281 c 0
 948 451 880 599 819 670 c 0
 817 672 806 687 806 689 c 0
 806 698 821 705 828 705 c 0
 838 705 849 700 855 694 c 0
 926 623 1031 439 1031 269 c 0
 1031 99 922 -136 851 -207 c 0
 846 -212 840 -214 834 -214 c 0
696 -4 m 0
 682 -4 592 0 525 0 c 0
 461 0 367 -3 362 -3 c 0
 359 -3 355 1 355 5 c 0
 355 9 358 13 362 17 c 0
 379 34 407 61 423 74 c 0
 445 92 559 186 559 267 c 0
 559 321 529 348 481 348 c 0
 441 348 407 329 380 291 c 0
 377 287 373 284 367 284 c 0
 361 284 360 292 360 298 c 0
 360 345 433 414 507 414 c 0
 571 414 627 378 627 290 c 0
 627 258 610 220 586 191 c 0
 556 155 475 80 465 73 c 0
 459 69 468 65 474 65 c 2
 629 65 l 2
 682 65 698 80 722 128 c 0
 725 134 730 139 739 139 c 0
 746 139 745 130 744 126 c 0
 728 78 711 22 711 12 c 0
 711 2 698 -4 696 -4 c 0
EndSplineSet
EndChar

StartChar: uni2476
Encoding: 9334 9334 229
Width: 1007
Flags: W
HStem: -190 44<375.965 469.993> 358 55<424.57 518.978>
VStem: 40 83<123.565 411.858> 534 70<235.612 342.711> 568 76<-36.5393 79.7627> 879 83<123.565 411.858>
LayerCount: 2
Fore
SplineSet
237 -214 m 0xe4
 231 -214 225 -212 220 -207 c 0
 149 -136 40 99 40 269 c 0
 40 439 145 623 216 694 c 0
 222 700 233 705 243 705 c 0
 250 705 265 698 265 689 c 0
 265 687 254 672 252 670 c 0
 191 599 123 451 123 281 c 0
 123 111 188 -102 249 -173 c 0
 250 -175 264 -190 264 -192 c 0
 264 -206 250 -214 237 -214 c 0xe4
765 -214 m 0
 752 -214 738 -206 738 -192 c 0
 738 -190 752 -175 753 -173 c 0
 814 -102 879 111 879 281 c 0
 879 451 811 599 750 670 c 0
 748 672 737 687 737 689 c 0
 737 698 752 705 759 705 c 0
 769 705 780 700 786 694 c 0
 857 623 962 439 962 269 c 0
 962 99 853 -136 782 -207 c 0
 777 -212 771 -214 765 -214 c 0
401 -190 m 0
 390 -190 374 -186 374 -176 c 0
 374 -164 389 -146 401 -146 c 0
 410 -146 451 -145 468 -136 c 0
 519 -109 568 -79 568 17 c 0xec
 568 55 546 112 472 112 c 0
 441 112 414 92 410 92 c 0
 402 92 393 94 393 101 c 0
 393 110 412 128 424 135 c 0
 446 148 465 160 494 186 c 0
 512 202 534 239 534 292 c 0
 534 330 509 358 470 358 c 0
 425 358 401 337 374 308 c 0
 371 304 363 300 358 300 c 0
 352 300 351 305 351 312 c 0
 351 333 419 413 496 413 c 0
 561 413 604 372 604 309 c 0xf4
 604 277 588 212 510 167 c 0
 506 165 506 161 511 161 c 0
 603 159 644 103 644 53 c 0xec
 644 -68 549 -130 470 -169 c 0
 446 -181 413 -190 401 -190 c 0
EndSplineSet
EndChar

StartChar: uni2477
Encoding: 9335 9335 230
Width: 1190
Flags: W
HStem: 43 61<430.864 574.185> 53 51<432.124 593 666.065 774.476>
VStem: 40 83<123.565 411.858> 593 73<-162.906 49.9258 104.023 282.138> 1062 83<123.565 411.858>
LayerCount: 2
Fore
SplineSet
237 -214 m 0x38
 231 -214 225 -212 220 -207 c 0
 149 -136 40 99 40 269 c 0
 40 439 145 623 216 694 c 0
 222 700 233 705 243 705 c 0
 250 705 265 698 265 689 c 0
 265 687 254 672 252 670 c 0
 191 599 123 451 123 281 c 0
 123 111 188 -102 249 -173 c 0
 250 -175 264 -190 264 -192 c 0
 264 -206 250 -214 237 -214 c 0x38
948 -214 m 0
 935 -214 921 -206 921 -192 c 0
 921 -190 935 -175 936 -173 c 0
 997 -102 1062 111 1062 281 c 0
 1062 451 994 599 933 670 c 0
 931 672 920 687 920 689 c 0
 920 698 935 705 942 705 c 0
 952 705 963 700 969 694 c 0
 1040 623 1145 439 1145 269 c 0
 1145 99 1036 -136 965 -207 c 0
 960 -212 954 -214 948 -214 c 0
608 -181 m 0
 600 -181 593 -178 593 -168 c 2
 593 41 l 2
 593 47 579 50 578 50 c 0
 496 50 454 44 349 43 c 0xb8
 344 43 336 43 336 48 c 0
 336 49 339 55 340 56 c 2
 626 377 l 2
 641 393 663 421 666 421 c 0
 672 421 669 414 669 409 c 0
 669 292 665 226 665 109 c 0
 665 106 667 103 670 103 c 0
 685 102 698 102 710 102 c 0
 729 102 747 103 769 104 c 0
 775 104 780 101 780 97 c 0
 780 81 766 53 759 53 c 0x78
 744 53 726 54 710 54 c 0
 698 54 687 53 679 52 c 0
 674 51 666 47 666 46 c 2
 666 -133 l 2
 666 -158 615 -181 608 -181 c 0
436 104 m 2
 581 104 l 2x78
 586 104 593 108 593 112 c 2
 593 281 l 2
 593 284 586 285 583 282 c 2
 431 113 l 2
 428 110 432 104 436 104 c 2
EndSplineSet
EndChar

StartChar: uni2478
Encoding: 9336 9336 231
Width: 1010
Flags: W
HStem: -189 29<367.529 449.003> 328 87<483.22 577.013>
VStem: 40 83<123.565 411.858> 373 33<213.5 307.328> 544 80<-70.5065 72.1954> 882 83<123.565 411.858>
LayerCount: 2
Fore
SplineSet
237 -214 m 0
 231 -214 225 -212 220 -207 c 0
 149 -136 40 99 40 269 c 0
 40 439 145 623 216 694 c 0
 222 700 233 705 243 705 c 0
 250 705 265 698 265 689 c 0
 265 687 254 672 252 670 c 0
 191 599 123 451 123 281 c 0
 123 111 188 -102 249 -173 c 0
 250 -175 264 -190 264 -192 c 0
 264 -206 250 -214 237 -214 c 0
768 -214 m 0
 755 -214 741 -206 741 -192 c 0
 741 -190 755 -175 756 -173 c 0
 817 -102 882 111 882 281 c 0
 882 451 814 599 753 670 c 0
 751 672 740 687 740 689 c 0
 740 698 755 705 762 705 c 0
 772 705 783 700 789 694 c 0
 860 623 965 439 965 269 c 0
 965 99 856 -136 785 -207 c 0
 780 -212 774 -214 768 -214 c 0
401 -189 m 0
 386 -189 367 -186 367 -177 c 0
 367 -167 388 -162 400 -160 c 0
 475 -147 544 -106 544 0 c 0
 544 67 486 129 423 167 c 0
 385 190 373 205 373 222 c 0
 373 276 396 330 404 347 c 0
 413 366 430 376 440 380 c 0
 480 395 572 415 587 415 c 0
 594 415 598 408 598 401 c 0
 598 376 574 333 547 328 c 0
 496 318 462 314 425 309 c 0
 418 308 406 296 406 276 c 0
 406 268 412 260 426 252 c 0
 528 195 624 109 624 17 c 0
 624 -112 501 -189 401 -189 c 0
EndSplineSet
EndChar

StartChar: uni2479
Encoding: 9337 9337 232
Width: 1101
Flags: W
HStem: -14 36<517.143 631.037> 260 62<557.124 643.798> 614 25<705.436 752>
VStem: 40 83<123.565 411.858> 356 83<99.847 320.292> 685 69<100.076 214.62> 973 83<123.565 411.858>
LayerCount: 2
Fore
SplineSet
237 -214 m 0
 231 -214 225 -212 220 -207 c 0
 149 -136 40 99 40 269 c 0
 40 439 145 623 216 694 c 0
 222 700 233 705 243 705 c 0
 250 705 265 698 265 689 c 0
 265 687 254 672 252 670 c 0
 191 599 123 451 123 281 c 0
 123 111 188 -102 249 -173 c 0
 250 -175 264 -190 264 -192 c 0
 264 -206 250 -214 237 -214 c 0
859 -214 m 0
 846 -214 832 -206 832 -192 c 0
 832 -190 846 -175 847 -173 c 0
 908 -102 973 111 973 281 c 0
 973 451 905 599 844 670 c 0
 842 672 831 687 831 689 c 0
 831 698 846 705 853 705 c 0
 863 705 874 700 880 694 c 0
 951 623 1056 439 1056 269 c 0
 1056 99 947 -136 876 -207 c 0
 871 -212 865 -214 859 -214 c 0
547 -14 m 0
 415 -14 356 73 356 193 c 0
 356 342 436 436 471 477 c 0
 520 533 629 611 742 639 c 0
 750 641 756 638 756 635 c 0
 756 623 734 616 730 614 c 0
 640 575 579 529 528 456 c 0
 494 407 439 310 439 190 c 0
 439 96 501 22 576 22 c 0
 646 22 685 75 685 142 c 0
 685 203 644 260 591 260 c 0
 556 260 534 257 511 245 c 0
 499 239 497 248 504 256 c 0
 514 267 519 272 529 281 c 0
 543 293 586 322 623 322 c 0
 698 322 754 265 754 190 c 0
 754 93 678 -14 547 -14 c 0
EndSplineSet
EndChar

StartChar: uni247A
Encoding: 9338 9338 233
Width: 1095
Flags: W
HStem: 323 78<368.417 661.181>
VStem: 40 83<123.565 411.858> 967 83<123.565 411.858>
LayerCount: 2
Fore
SplineSet
237 -214 m 0
 231 -214 225 -212 220 -207 c 0
 149 -136 40 99 40 269 c 0
 40 439 145 623 216 694 c 0
 222 700 233 705 243 705 c 0
 250 705 265 698 265 689 c 0
 265 687 254 672 252 670 c 0
 191 599 123 451 123 281 c 0
 123 111 188 -102 249 -173 c 0
 250 -175 264 -190 264 -192 c 0
 264 -206 250 -214 237 -214 c 0
853 -214 m 0
 840 -214 826 -206 826 -192 c 0
 826 -190 840 -175 841 -173 c 0
 902 -102 967 111 967 281 c 0
 967 451 899 599 838 670 c 0
 836 672 825 687 825 689 c 0
 825 698 840 705 847 705 c 0
 857 705 868 700 874 694 c 0
 945 623 1050 439 1050 269 c 0
 1050 99 941 -136 870 -207 c 0
 865 -212 859 -214 853 -214 c 0
411 -193 m 0
 396 -193 385 -185 385 -170 c 0
 385 -161 397 -142 406 -126 c 2
 661 313 l 2
 665 320 660 323 651 323 c 2
 430 326 l 2
 410 326 386 324 370 303 c 0
 365 297 353 281 344 281 c 0
 340 281 339 284 339 289 c 0
 339 296 342 306 343 311 c 0
 350 340 355 370 355 395 c 0
 355 405 362 406 365 406 c 0
 368 406 403 403 428 402 c 0
 457 401 495 401 535 401 c 0
 624 401 722 403 741 407 c 0
 745 407 748 398 748 393 c 0
 748 377 720 340 710 323 c 2
 430 -166 l 2
 424 -177 415 -193 411 -193 c 0
EndSplineSet
EndChar

StartChar: uni247B
Encoding: 9339 9339 234
Width: 1087
Flags: W
HStem: -13 35<492.401 599.197> 565 24<504.104 584.712>
VStem: 40 83<123.565 411.858> 370 70<72.9321 201.604> 383 70<407.902 518.912> 628 70<401.999 529.481> 642 70<78.369 177.582> 959 83<123.565 411.858>
LayerCount: 2
Fore
SplineSet
237 -214 m 0xe1
 231 -214 225 -212 220 -207 c 0
 149 -136 40 99 40 269 c 0
 40 439 145 623 216 694 c 0
 222 700 233 705 243 705 c 0
 250 705 265 698 265 689 c 0
 265 687 254 672 252 670 c 0
 191 599 123 451 123 281 c 0
 123 111 188 -102 249 -173 c 0
 250 -175 264 -190 264 -192 c 0
 264 -206 250 -214 237 -214 c 0xe1
845 -214 m 0
 832 -214 818 -206 818 -192 c 0
 818 -190 832 -175 833 -173 c 0
 894 -102 959 111 959 281 c 0
 959 451 891 599 830 670 c 0
 828 672 817 687 817 689 c 0
 817 698 832 705 839 705 c 0
 849 705 860 700 866 694 c 0
 937 623 1042 439 1042 269 c 0
 1042 99 933 -136 862 -207 c 0
 857 -212 851 -214 845 -214 c 0
531 -13 m 0
 446 -13 370 47 370 132 c 0xf3
 370 214 444 255 492 282 c 0
 501 287 497 289 489 295 c 0
 428 338 383 376 383 455 c 0
 383 535 469 589 551 589 c 0
 625 589 698 540 698 465 c 0xed
 698 420 672 393 650 374 c 0
 632 358 622 351 600 335 c 0
 584 323 585 322 595 315 c 0
 664 267 712 232 712 157 c 0xe3
 712 60 623 -13 531 -13 c 0
562 340 m 0
 566 337 570 337 574 340 c 0
 617 375 628 416 628 472 c 0
 628 519 593 565 546 565 c 0
 498 565 453 524 453 474 c 0xed
 453 402 496 389 562 340 c 0
545 22 m 0
 601 22 642 65 642 118 c 0
 642 176 585 221 532 259 c 0
 525 264 522 267 517 267 c 0
 514 267 511 265 506 261 c 0
 466 229 440 207 440 147 c 0xf3
 440 84 482 22 545 22 c 0
EndSplineSet
EndChar

StartChar: uni247C
Encoding: 9340 9340 235
Width: 1101
Flags: W
HStem: -186 18<356.932 390.647> 89 53<483.428 570.77> 378 36<487.378 592.51>
VStem: 40 83<123.565 411.858> 368 69<192.647 300.858> 661 80<102.36 310.427> 973 83<123.565 411.858>
LayerCount: 2
Fore
SplineSet
237 -214 m 0
 231 -214 225 -212 220 -207 c 0
 149 -136 40 99 40 269 c 0
 40 439 145 623 216 694 c 0
 222 700 233 705 243 705 c 0
 250 705 265 698 265 689 c 0
 265 687 254 672 252 670 c 0
 191 599 123 451 123 281 c 0
 123 111 188 -102 249 -173 c 0
 250 -175 264 -190 264 -192 c 0
 264 -206 250 -214 237 -214 c 0
859 -214 m 0
 846 -214 832 -206 832 -192 c 0
 832 -190 846 -175 847 -173 c 0
 908 -102 973 111 973 281 c 0
 973 451 905 599 844 670 c 0
 842 672 831 687 831 689 c 0
 831 698 846 705 853 705 c 0
 863 705 874 700 880 694 c 0
 951 623 1056 439 1056 269 c 0
 1056 99 947 -136 876 -207 c 0
 871 -212 865 -214 859 -214 c 0
365 -186 m 0
 360 -186 356 -185 356 -181 c 0
 356 -174 363 -170 370 -168 c 0
 427 -150 543 -56 585 0 c 0
 621 48 661 114 661 227 c 0
 661 310 606 378 533 378 c 0
 468 378 437 316 437 267 c 0
 437 206 482 142 535 142 c 0
 576 142 590 156 615 168 c 0
 620 170 624 161 622 157 c 0
 615 144 600 130 589 122 c 0
 574 111 534 89 497 89 c 0
 428 89 368 143 368 215 c 0
 368 306 445 414 566 414 c 0
 663 414 741 328 741 210 c 0
 741 96 669 6 615 -47 c 0
 560 -101 446 -173 378 -185 c 0
 371 -186 368 -186 365 -186 c 0
EndSplineSet
EndChar

